<svg xmlns="http://www.w3.org/2000/svg" xmlns:xlink="http://www.w3.org/1999/xlink" width="500" zoomAndPan="magnify" viewBox="0 0 375 374.999991" height="500" preserveAspectRatio="xMidYMid meet" version="1.0"><path fill="#b44c43" d="M 152.84375 102.269531 L 152.84375 66.730469 C 152.84375 56.070312 140.402344 50.738281 133.292969 57.84375 L 10.679688 168.019531 C 0.0195312 176.902344 0.0195312 194.671875 10.679688 203.558594 L 133.292969 317.285156 C 140.402344 324.398438 152.84375 319.0625 152.84375 308.402344 L 152.84375 262.203125 C 152.84375 248.453125 164.140625 237.320312 177.890625 237.324219 C 275.511719 237.355469 325.226562 263.992188 353.640625 290.632812 C 362.527344 297.742188 374.964844 288.855469 371.410156 278.191406 C 332.316406 182.238281 252.351562 134.257812 177.71875 127.148438 C 163.503906 127.148438 152.84375 116.488281 152.84375 102.269531 " fill-opacity="1" fill-rule="nonzero"/></svg>