<svg xmlns="http://www.w3.org/2000/svg" xmlns:xlink="http://www.w3.org/1999/xlink" width="1000" zoomAndPan="magnify" viewBox="0 0 750 749.999995" height="1000" preserveAspectRatio="xMidYMid meet" version="1.0"><defs><clipPath id="c7271612c2"><path d="M 0 225.679688 L 130.757812 225.679688 L 130.757812 466.429688 L 0 466.429688 Z M 0 225.679688 " clip-rule="nonzero"/></clipPath><clipPath id="2e418aaeab"><path d="M 0 380.425781 L 330.265625 380.425781 L 330.265625 750 L 0 750 Z M 0 380.425781 " clip-rule="nonzero"/></clipPath><clipPath id="84472085db"><path d="M 156.4375 617.5625 L 495.4375 617.5625 L 495.4375 750 L 156.4375 750 Z M 156.4375 617.5625 " clip-rule="nonzero"/></clipPath><clipPath id="25c2c645dd"><path d="M 308.953125 677.710938 L 647.949219 677.710938 L 647.949219 750 L 308.953125 750 Z M 308.953125 677.710938 " clip-rule="nonzero"/></clipPath><clipPath id="cfca54d9a9"><path d="M 0 75 L 33.367188 75 L 33.367188 414 L 0 414 Z M 0 75 " clip-rule="nonzero"/></clipPath><clipPath id="6cd3a65c7f"><path d="M 205.265625 119.820312 L 386 119.820312 L 386 300.570312 L 205.265625 300.570312 Z M 205.265625 119.820312 " clip-rule="nonzero"/></clipPath><clipPath id="6405be91cd"><path d="M 413.917969 470.878906 L 484.417969 470.878906 L 484.417969 541.378906 L 413.917969 541.378906 Z M 413.917969 470.878906 " clip-rule="nonzero"/></clipPath><clipPath id="99e61f3a39"><path d="M 548.800781 714.125 L 664.300781 714.125 L 664.300781 750 L 548.800781 750 Z M 548.800781 714.125 " clip-rule="nonzero"/></clipPath><clipPath id="d84e62e955"><path d="M 490.28125 476.71875 L 533.78125 476.71875 L 533.78125 520.21875 L 490.28125 520.21875 Z M 490.28125 476.71875 " clip-rule="nonzero"/></clipPath><clipPath id="78bb21da80"><path d="M 474.644531 446.542969 L 494.894531 446.542969 L 494.894531 466.792969 L 474.644531 466.792969 Z M 474.644531 446.542969 " clip-rule="nonzero"/></clipPath><clipPath id="f0fed3a06a"><path d="M 175.5625 101.917969 L 216.8125 101.917969 L 216.8125 143 L 175.5625 143 Z M 175.5625 101.917969 " clip-rule="nonzero"/></clipPath></defs><g clip-path="url(#c7271612c2)"><path fill="#b44c43" d="M 10.507812 225.679688 C -56.066406 225.679688 -109.992188 279.601562 -109.992188 346.175781 C -109.992188 412.75 -56.066406 466.675781 10.507812 466.675781 C 77.082031 466.675781 131.003906 412.75 131.003906 346.175781 C 131.003906 279.601562 77.082031 225.679688 10.507812 225.679688 Z M 10.507812 225.679688 " fill-opacity="1" fill-rule="nonzero"/></g><g clip-path="url(#2e418aaeab)"><path fill="#b44c43" d="M 72.015625 380.425781 C -70.804688 380.425781 -186.484375 496.101562 -186.484375 638.921875 C -186.484375 781.742188 -70.804688 897.421875 72.015625 897.421875 C 214.835938 897.421875 330.511719 781.742188 330.511719 638.921875 C 330.511719 496.101562 214.835938 380.425781 72.015625 380.425781 Z M 72.015625 380.425781 " fill-opacity="1" fill-rule="nonzero"/></g><g clip-path="url(#84472085db)"><path fill="#b44c43" d="M 326.101562 617.5625 C 232.363281 617.5625 156.4375 693.484375 156.4375 787.226562 C 156.4375 880.964844 232.363281 956.890625 326.101562 956.890625 C 419.84375 956.890625 495.765625 880.964844 495.765625 787.226562 C 495.765625 693.484375 419.84375 617.5625 326.101562 617.5625 Z M 326.101562 617.5625 " fill-opacity="1" fill-rule="nonzero"/></g><g clip-path="url(#25c2c645dd)"><path fill="#b44c43" d="M 478.617188 677.710938 C 384.875 677.710938 308.953125 753.636719 308.953125 847.375 C 308.953125 941.117188 384.875 1017.039062 478.617188 1017.039062 C 572.355469 1017.039062 648.277344 941.117188 648.277344 847.375 C 648.277344 753.636719 572.355469 677.710938 478.617188 677.710938 Z M 478.617188 677.710938 " fill-opacity="1" fill-rule="nonzero"/></g><g clip-path="url(#cfca54d9a9)"><path fill="#b44c43" d="M -135.96875 75 C -229.707031 75 -305.632812 150.925781 -305.632812 244.664062 C -305.632812 338.402344 -229.707031 414.328125 -135.96875 414.328125 C -42.226562 414.328125 33.695312 338.402344 33.695312 244.664062 C 33.695312 150.925781 -42.226562 75 -135.96875 75 Z M -135.96875 75 " fill-opacity="1" fill-rule="nonzero"/></g><g clip-path="url(#6cd3a65c7f)"><path fill="#b44c43" d="M 295.585938 119.820312 C 245.683594 119.820312 205.265625 160.238281 205.265625 210.144531 C 205.265625 260.046875 245.683594 300.464844 295.585938 300.464844 C 345.488281 300.464844 385.910156 260.046875 385.910156 210.144531 C 385.910156 160.238281 345.488281 119.820312 295.585938 119.820312 Z M 295.585938 119.820312 " fill-opacity="1" fill-rule="nonzero"/></g><g clip-path="url(#6405be91cd)"><path fill="#b44c43" d="M 449.316406 470.878906 C 429.757812 470.878906 413.917969 486.71875 413.917969 506.277344 C 413.917969 525.832031 429.757812 541.671875 449.316406 541.671875 C 468.871094 541.671875 484.710938 525.832031 484.710938 506.277344 C 484.710938 486.71875 468.871094 470.878906 449.316406 470.878906 Z M 449.316406 470.878906 " fill-opacity="1" fill-rule="nonzero"/></g><g clip-path="url(#99e61f3a39)"><path fill="#b44c43" d="M 606.574219 714.125 C 574.652344 714.125 548.800781 739.976562 548.800781 771.898438 C 548.800781 803.816406 574.652344 829.671875 606.574219 829.671875 C 638.492188 829.671875 664.347656 803.816406 664.347656 771.898438 C 664.347656 739.976562 638.492188 714.125 606.574219 714.125 Z M 606.574219 714.125 " fill-opacity="1" fill-rule="nonzero"/></g><g clip-path="url(#d84e62e955)"><path fill="#b44c43" d="M 512.113281 476.71875 C 500.050781 476.71875 490.28125 486.488281 490.28125 498.550781 C 490.28125 510.613281 500.050781 520.382812 512.113281 520.382812 C 524.175781 520.382812 533.945312 510.613281 533.945312 498.550781 C 533.945312 486.488281 524.175781 476.71875 512.113281 476.71875 Z M 512.113281 476.71875 " fill-opacity="1" fill-rule="nonzero"/></g><g clip-path="url(#78bb21da80)"><path fill="#b44c43" d="M 484.710938 446.542969 C 479.148438 446.542969 474.644531 451.050781 474.644531 456.609375 C 474.644531 462.171875 479.148438 466.675781 484.710938 466.675781 C 490.273438 466.675781 494.777344 462.171875 494.777344 456.609375 C 494.777344 451.050781 490.273438 446.542969 484.710938 446.542969 Z M 484.710938 446.542969 " fill-opacity="1" fill-rule="nonzero"/></g><g clip-path="url(#f0fed3a06a)"><path fill="#b44c43" d="M 196.039062 101.917969 C 184.726562 101.917969 175.5625 111.082031 175.5625 122.398438 C 175.5625 133.710938 184.726562 142.875 196.039062 142.875 C 207.355469 142.875 216.519531 133.710938 216.519531 122.398438 C 216.519531 111.082031 207.355469 101.917969 196.039062 101.917969 Z M 196.039062 101.917969 " fill-opacity="1" fill-rule="nonzero"/></g></svg>