<svg xmlns="http://www.w3.org/2000/svg" xmlns:xlink="http://www.w3.org/1999/xlink" width="1000" zoomAndPan="magnify" viewBox="0 0 750 749.999995" height="1000" preserveAspectRatio="xMidYMid meet" version="1.0"><path fill="#29abe2" d="M 204.214844 280.902344 C 213.03125 273.125 222.53125 266.277344 231.914062 259.207031 C 236.824219 255.507812 241.769531 251.808594 246.460938 247.828125 C 250.648438 244.273438 245.003906 248.488281 248.554688 246.171875 C 249.792969 245.375 251.003906 244.542969 252.242188 243.746094 C 261.792969 237.585938 282.929688 227.453125 281.25 213.390625 C 280.675781 208.550781 278.214844 203.980469 273.109375 202.695312 C 252.902344 197.585938 234.621094 206.589844 216.886719 215.3125 C 207.714844 219.820312 198.519531 224.183594 189.617188 229.21875 C 184.878906 231.902344 179.5 234.460938 175.386719 238.050781 C 172.460938 240.609375 170.28125 242.449219 166.398438 243.515625 C 170.710938 249.113281 175.007812 254.710938 179.316406 260.324219 C 182.34375 255.472656 187.3125 251.917969 191.699219 248.367188 C 196.878906 244.164062 201.59375 239.59375 206.453125 235.039062 C 217.4375 224.734375 228.902344 214.945312 239.273438 204.007812 C 246.644531 196.214844 239.433594 180.609375 228.082031 184.773438 C 207.152344 192.453125 192.496094 214.394531 181.925781 233.066406 C 172.300781 250.054688 160.632812 274.851562 166.179688 294.820312 C 169.03125 305.0625 177.605469 312.265625 188.453125 310.953125 C 197.648438 309.839844 205.425781 303.6875 212.136719 297.710938 C 222.617188 288.375 232.121094 277.410156 241.941406 267.355469 C 253.992188 255.003906 275.324219 234.707031 265.992188 215.632812 C 263.582031 210.707031 257.800781 209.554688 252.964844 210.328125 C 240.289062 212.375 228.9375 224.378906 220.976562 233.605469 C 210.714844 245.5 200.957031 259.5 196.839844 274.875 C 192.949219 289.378906 196.65625 306.078125 212.566406 311.113281 C 228.679688 316.210938 244.085938 304.511719 255.386719 294.429688 C 262.367188 288.203125 268.796875 281.382812 275.335938 274.703125 C 278.335938 271.640625 281.347656 268.578125 284.546875 265.699219 C 285.230469 265.074219 288.339844 262.503906 287.644531 263.03125 C 286.957031 263.53125 289.847656 261.644531 290.605469 261.242188 C 284.863281 257.945312 279.109375 254.636719 273.363281 251.34375 C 273.671875 253.964844 273.671875 254.183594 273.179688 256.132812 C 272.507812 258.765625 271.6875 261.375 270.632812 263.886719 C 268.6875 268.542969 266.238281 273.015625 263.835938 277.4375 C 257.566406 289 252.058594 300.933594 246.226562 312.71875 C 239.066406 327.171875 231.582031 341.507812 225.789062 356.585938 C 221.382812 368.066406 213.433594 384.75 218.371094 397.027344 C 220.144531 401.4375 224.050781 405.824219 229.367188 405.40625 C 250.195312 403.765625 257.898438 382.238281 263.726562 365.238281 C 269.765625 347.632812 282.609375 328.828125 278.117188 309.238281 C 276.511719 302.269531 267.414062 298.554688 261.402344 302.441406 C 237.203125 318.070312 217.023438 341.765625 204.839844 367.832031 C 201.777344 374.375 199.058594 381.136719 197.160156 388.109375 C 195.398438 394.5625 194.859375 401.179688 193.597656 407.734375 C 190.925781 421.625 178.351562 435.617188 188.515625 449.445312 C 191.222656 453.121094 196.425781 456.664062 201.3125 454.652344 C 211.304688 450.550781 217.265625 443.164062 223.230469 434.441406 C 229.769531 424.871094 236.75 415.609375 243.375 406.105469 C 257.371094 386.011719 272.628906 366.644531 285.832031 346.039062 C 278.9375 343.136719 272.042969 340.21875 265.148438 337.316406 C 262.820312 348.207031 258.21875 358.769531 254.972656 369.402344 C 250.785156 383.097656 246.289062 397.945312 246.570312 412.414062 C 246.851562 426.882812 255.902344 440.847656 272.1875 437.464844 C 287.765625 434.242188 295.601562 416.480469 300.597656 403.164062 C 303.832031 394.527344 306.21875 385.535156 307.835938 376.46875 C 309.183594 368.960938 310.640625 360.863281 309.710938 353.21875 C 308.988281 347.253906 305.105469 342.082031 298.578125 342.082031 C 292.613281 342.082031 287.363281 347.179688 287.449219 353.21875 C 287.765625 375.367188 290.167969 397.457031 294.722656 419.140625 C 297.292969 431.425781 301.210938 447.265625 312.871094 454.101562 C 330.320312 464.34375 347.414062 444.070312 351.761719 428.976562 C 356.832031 411.371094 353.011719 396.488281 351.039062 380.339844 C 349.105469 364.429688 347.660156 341.324219 334.238281 330.238281 C 328.875 325.8125 319.824219 325.433594 316.164062 332.5625 C 306.941406 350.523438 312.625 372.207031 319.261719 390.09375 C 325.078125 405.785156 332.121094 422.054688 340.789062 436.398438 C 345.296875 443.871094 350.878906 451.675781 358.644531 456.027344 C 363.886719 458.964844 370.425781 460.25 375.554688 456.441406 C 379.78125 453.304688 382.351562 448.183594 383.929688 443.273438 C 388.878906 427.875 384.507812 411.015625 383.6875 395.335938 C 382.707031 376.433594 383.550781 351.785156 369.800781 336.949219 C 366.308594 333.1875 360.101562 332.648438 355.765625 335.136719 C 334.570312 347.339844 332.546875 375.050781 332.632812 396.929688 C 332.695312 413.257812 332.144531 429.847656 332.953125 446.152344 C 333.808594 463.523438 336.699219 489.324219 356.488281 495.484375 C 380.980469 503.105469 395.160156 477.746094 399.25 457.839844 C 405.996094 424.96875 402.765625 391.183594 402.839844 357.921875 C 402.875 343.183594 380.503906 343.246094 380 357.921875 C 379.351562 376.59375 378.308594 396.746094 385.132812 414.496094 C 389.171875 425.007812 395.90625 434.109375 406.757812 438.175781 C 417.117188 442.058594 427.710938 439.15625 434.726562 430.617188 C 447.363281 415.242188 450.730469 390.042969 447.402344 370.894531 C 446.582031 366.15625 445.355469 361.5 444.523438 356.769531 C 444.019531 353.90625 444.179688 349.664062 444.597656 347.363281 C 444.265625 349.175781 445.636719 346.589844 444.375 347.632812 C 447.046875 345.4375 442.488281 348.28125 445.785156 346.382812 C 447.535156 345.378906 449.703125 344.800781 451.785156 344.558594 C 459.351562 343.6875 467.128906 346.125 474.476562 347.535156 C 478.882812 348.378906 483.390625 349.226562 487.886719 349.457031 C 483.28125 349.210938 488.449219 349.59375 489.648438 349.789062 C 494.71875 350.632812 499.789062 351.515625 504.882812 352.261719 C 513.539062 353.535156 528.894531 357.605469 535.839844 349.949219 C 541.558594 343.636719 539.230469 333.628906 530.867188 331.105469 C 488.054688 318.21875 427.660156 301.765625 400.476562 350.414062 C 393.863281 362.246094 391.953125 376.359375 400.195312 387.949219 C 407.273438 397.910156 418.695312 403.640625 430.0625 407.316406 C 450.167969 413.808594 473.839844 415.550781 494.695312 412.621094 C 506.472656 410.96875 519.785156 406.632812 526.324219 395.851562 C 531.148438 387.886719 527.082031 377.535156 519.441406 373.050781 C 511.617188 368.457031 502.101562 370.75 495.683594 376.480469 C 492.929688 378.945312 491.375 384.054688 492.746094 387.59375 C 495.316406 394.222656 499.457031 400.039062 507.085938 400.800781 C 513.429688 401.4375 519.113281 398.300781 523.472656 393.839844 C 531.613281 385.523438 536.597656 372.769531 530.832031 361.671875 C 525.722656 351.832031 513.28125 346.222656 503.597656 341.835938 C 491.730469 336.460938 477.511719 331.644531 465.253906 338.652344 C 457.664062 342.988281 458.078125 353.90625 465.253906 358.339844 C 475.601562 364.734375 490.089844 365.617188 501.722656 363.105469 C 513.917969 360.46875 524.792969 350.402344 521.4375 337.085938 C 518.609375 325.8125 509.144531 316.589844 501.648438 308.210938 C 494.339844 300.027344 488.890625 294.390625 488.3125 281.882812 C 486.882812 250.875 519.453125 233.027344 534.308594 209.960938 C 538.753906 203.0625 543.261719 194.292969 538.507812 186.535156 C 534.824219 180.535156 528.453125 176.332031 521.292969 176.367188 C 508.496094 176.429688 498.699219 188.363281 492.085938 197.964844 C 474.523438 223.460938 466.148438 261.953125 492.699219 284.527344 C 496.554688 287.8125 501.734375 288.925781 506.300781 286.28125 C 525.859375 274.984375 542.769531 259.390625 553.546875 239.347656 C 560.929688 225.605469 573.078125 201.128906 553.496094 191.277344 C 550.203125 189.625 545.34375 188.789062 542.121094 191.277344 C 530.78125 200.050781 521.828125 210.082031 517.554688 224.046875 C 515.558594 230.554688 513.832031 238.441406 514.003906 245.242188 C 514.238281 254.40625 524.292969 259.328125 532.386719 259.085938 C 544.621094 258.71875 558.027344 249.714844 564.199219 239.3125 C 573.789062 223.152344 567.46875 205.085938 555.957031 191.976562 C 553.4375 189.109375 548.539062 187.871094 544.9375 189.058594 C 521.191406 196.914062 508.285156 216.367188 491.105469 232.980469 C 497.449219 234.65625 503.792969 236.335938 510.148438 238 C 507.648438 230.039062 510.257812 220.273438 509.839844 211.539062 C 509.265625 199.546875 504.257812 188.679688 493.578125 182.46875 C 484.824219 177.375 474.867188 177.742188 466.296875 182.984375 C 464.875 183.855469 463.566406 184.871094 462.242188 185.875 C 461.019531 186.804688 459.832031 187.785156 458.59375 188.707031 C 459.5625 187.996094 458.863281 188.496094 458.289062 188.902344 C 457.675781 189.328125 453.683594 191.953125 455.640625 190.8125 C 455.128906 191.117188 454.195312 190.996094 453.742188 191.351562 C 454.367188 190.859375 457.269531 191.707031 454.796875 191.070312 C 457.613281 194.78125 460.441406 198.480469 463.257812 202.191406 C 464.375 184.332031 475.050781 161.621094 464.214844 143.15625 C 457.625 131.9375 443.605469 131.984375 435.03125 141.050781 C 428.824219 147.617188 426.105469 156.449219 423.070312 164.742188 C 421.683594 168.503906 423.324219 173.171875 426.019531 175.890625 C 436.832031 186.832031 450.425781 176.34375 458.019531 167.304688 C 467.542969 155.960938 474.660156 142.875 476.410156 127.964844 C 478.1875 112.863281 473.816406 94.484375 464.851562 82.0625 C 455.8125 69.542969 438.460938 72.261719 426.679688 79.429688 C 420.484375 83.191406 415.292969 88.753906 411.902344 95.160156 C 408.117188 102.300781 403.511719 110.15625 403.402344 118.507812 C 403.304688 125.945312 406.414062 132.941406 411.730469 138.109375 C 418.929688 145.117188 426.949219 145.765625 436.121094 142.277344 C 450.449219 136.824219 460.566406 120.898438 460.40625 105.574219 C 460.320312 97.597656 456.460938 90.136719 450.695312 84.769531 C 443.714844 78.277344 433.234375 79.566406 424.527344 81.4375 C 416.160156 83.238281 408.519531 87.40625 401.96875 92.820312 C 398.75 95.476562 395.933594 98.457031 393.347656 101.726562 C 390.582031 105.21875 387.128906 108.097656 384.3125 111.636719 C 372.371094 126.605469 368.832031 144.113281 372.125 162.796875 C 372.777344 166.484375 376.570312 170.023438 380.148438 170.820312 C 400.390625 175.289062 418.941406 168.980469 432.535156 153.324219 C 430.84375 154.316406 429.15625 155.296875 427.464844 156.289062 C 435.707031 152.910156 443.605469 148.742188 448.28125 140.78125 C 452.433594 133.710938 452.347656 125.015625 449.433594 117.542969 C 447.511719 112.617188 443.824219 109.285156 438.351562 109.101562 C 409.597656 108.15625 371.796875 118.019531 357.847656 145.863281 C 349.25 163.039062 357.773438 177.472656 370.328125 189.699219 C 382.472656 201.519531 398.980469 210.425781 414.140625 198.445312 C 417.226562 196.007812 418.15625 190.789062 417.117188 187.199219 C 412.390625 171.039062 389.992188 165.023438 375.898438 160.6875 C 367.289062 158.042969 358.621094 155.605469 349.558594 155.285156 C 336.980469 154.84375 324.699219 158.421875 312.234375 159.4375 C 314.953125 166.003906 317.667969 172.570312 320.386719 179.136719 C 335.535156 164.621094 349.460938 148.976562 362.046875 132.179688 C 372.628906 118.054688 387.238281 99.289062 375.835938 81.328125 C 370.511719 72.9375 360.996094 67.398438 351.015625 67.695312 C 348.996094 67.753906 347.011719 68.121094 345.003906 68.332031 C 343.9375 68.476562 342.871094 68.5625 341.804688 68.601562 C 342.125 68.90625 342.492188 69.140625 342.910156 69.324219 C 343.644531 69.640625 344.21875 70.144531 344.621094 70.828125 C 345.148438 72.203125 345.222656 72.226562 344.84375 70.929688 C 344.988281 72.289062 345.015625 72.238281 344.917969 70.792969 C 344.902344 70.207031 344.902344 69.617188 344.941406 69.027344 C 345.273438 57.929688 352.03125 42.015625 344.21875 30.488281 C 340.140625 24.472656 331.628906 22.574219 326.15625 28.160156 C 302.988281 51.769531 294.183594 90.601562 296.421875 122.785156 C 296.851562 128.984375 301.394531 134.277344 307.910156 134.277344 C 314.804688 134.277344 318.574219 128.960938 319.398438 122.785156 C 321.148438 109.675781 311.851562 98.773438 298.984375 97.769531 C 295.089844 97.460938 290.914062 100.15625 289.0625 103.464844 C 281.066406 117.726562 275.140625 133.96875 270.890625 149.710938 C 266.484375 166.078125 261.878906 189.867188 278.691406 200.882812 C 284.078125 204.410156 291.195312 201.753906 294.441406 196.753906 C 308.253906 175.523438 305.535156 143.144531 278.851562 133.96875 C 251.945312 124.71875 235.109375 152.785156 220.21875 169.582031 C 225.679688 169.582031 231.140625 169.582031 236.601562 169.582031 C 234.789062 167.730469 236.371094 170.523438 235.683594 168.125 C 234.960938 165.625 235.488281 168.625 235.429688 165.90625 C 235.367188 162.894531 235.941406 160.308594 236.726562 157.136719 C 238.402344 150.335938 240.949219 143.746094 242.175781 136.835938 C 243.632812 128.589844 243.214844 119.550781 237.339844 113.007812 C 235.316406 110.765625 232.792969 109.1875 230.1875 107.714844 C 229.28125 107.203125 228.289062 106.785156 227.429688 106.183594 C 228.496094 106.945312 226.992188 105.5 226.597656 104.8125 C 226.992188 107.800781 227.382812 110.792969 227.773438 113.78125 C 227.714844 113.941406 226.867188 115.324219 227.527344 114.320312 C 228.289062 113.167969 226.953125 115.019531 226.929688 115.042969 C 225.460938 116.144531 224.445312 116.476562 222.65625 116.804688 C 224.429688 116.476562 220.90625 116.195312 222.839844 116.804688 C 223.28125 116.941406 223.734375 117.050781 224.175781 117.222656 C 225.777344 117.859375 221.773438 115.875 224.652344 117.480469 C 229.292969 120.054688 232.144531 122.136719 235.613281 125.039062 C 242.628906 130.90625 248.921875 137.375 256.90625 141.96875 C 262.0625 144.933594 267.351562 147.679688 272.300781 150.996094 C 274.613281 152.554688 276.21875 153.765625 278.164062 155.824219 C 279.351562 157.085938 278.558594 156.058594 279.464844 157.429688 C 279.523438 157.527344 280.589844 158.875 279.917969 158.140625 C 279.585938 157.785156 279.78125 159.15625 280.027344 158.496094 C 280.847656 156.328125 278.042969 160.652344 277.578125 161.164062 C 274.957031 164.007812 272.261719 166.679688 269.9375 169.789062 C 265.0625 176.296875 262.109375 183.671875 260.640625 191.644531 C 257.847656 206.761719 249.878906 225.433594 256 240.511719 C 259.820312 249.945312 271.074219 251.832031 277.113281 243.269531 C 282.929688 235.023438 285.390625 225.175781 290.3125 216.464844 C 294.5625 208.957031 300.820312 202.121094 306.710938 195.859375 C 312.160156 190.050781 318.894531 182.984375 327.222656 181.882812 C 336.039062 180.71875 345.601562 184.578125 353.671875 187.578125 C 362.757812 190.960938 371.84375 194.21875 380.992188 197.441406 C 389.011719 200.257812 395.097656 204.789062 401.308594 210.488281 C 414.3125 222.394531 429.621094 235.34375 435.425781 252.628906 C 439.332031 264.304688 437.308594 275.964844 436.148438 287.921875 C 434.824219 301.496094 435.695312 315.316406 435.695312 328.9375 C 435.695312 343.664062 458.570312 343.6875 458.570312 328.9375 C 458.570312 315.328125 457.75 301.484375 459.09375 287.921875 C 460.332031 275.402344 461.949219 263.335938 458.863281 250.902344 C 453.425781 228.984375 437.027344 212.152344 420.949219 197.316406 C 412.832031 189.820312 404.859375 182.628906 394.609375 178.207031 C 384.789062 173.96875 374.402344 171.003906 364.425781 167.144531 C 353.316406 162.84375 341.609375 158.640625 329.523438 158.789062 C 318.097656 158.925781 308.496094 163.675781 299.792969 170.757812 C 290.703125 178.144531 283.320312 187.40625 276.132812 196.59375 C 267.742188 207.3125 264.941406 220.628906 257.164062 231.617188 C 264.207031 232.539062 271.246094 233.457031 278.277344 234.375 C 274.613281 225.320312 279.929688 213.5625 281.839844 204.203125 C 282.84375 199.265625 283.160156 193.9375 285.109375 189.246094 C 287.3125 183.964844 291.441406 180.535156 295.089844 176.332031 C 303.488281 166.667969 305.988281 154.574219 298.078125 143.734375 C 291.539062 134.777344 281.582031 129.214844 272.089844 123.898438 C 270.230469 122.859375 268.34375 121.828125 266.519531 120.714844 C 265.503906 120.089844 261.167969 116.660156 264.5 119.574219 C 262.136719 117.503906 259.796875 115.421875 257.457031 113.328125 C 250.96875 107.546875 244.171875 101.417969 236.394531 97.425781 C 227.871094 93.050781 217.183594 91.386719 209.980469 99.191406 C 200.027344 109.996094 207.753906 121.804688 218.46875 127.855469 C 218.640625 127.953125 221.113281 129.253906 221.0625 129.339844 C 220.804688 129.78125 219.289062 127.527344 219.472656 127.464844 C 219.972656 127.28125 219.742188 129.328125 219.730469 129.667969 C 219.65625 132.191406 219.925781 129.816406 219.507812 131.960938 C 218.457031 137.375 216.59375 142.605469 215.160156 147.921875 C 211.621094 160.96875 209.957031 175.523438 220.253906 186.011719 C 224.441406 190.273438 232.511719 190.691406 236.640625 186.011719 C 242.335938 179.566406 247.21875 172.449219 253.035156 166.101562 C 257.765625 160.945312 263.996094 154.722656 270.082031 155.492188 C 283.957031 157.234375 280.738281 175.695312 274.589844 185.164062 C 279.84375 183.792969 285.097656 182.410156 290.335938 181.035156 C 289.34375 180.386719 291.292969 182.324219 290.765625 181.34375 C 290.09375 180.082031 290.632812 181.195312 290.886719 181.871094 C 290.632812 181.183594 290.496094 180.460938 290.25 179.773438 C 290.066406 179.246094 289.75 176.992188 290.09375 179.589844 C 290.007812 178.929688 289.945312 178.242188 289.921875 177.582031 C 289.871094 175.953125 289.859375 174.335938 289.945312 172.707031 C 290.152344 168.589844 290.351562 167.707031 291.355469 163.003906 C 292.234375 158.824219 293.351562 154.699219 294.585938 150.617188 C 298.675781 137.09375 302.375 126.804688 308.9375 115.105469 C 305.632812 117.003906 302.324219 118.902344 299.019531 120.800781 C 297.796875 120.703125 296.875 120.113281 296.265625 119.023438 C 296.363281 118.582031 296.460938 118.742188 296.535156 119.5 C 296.546875 119.488281 296.523438 122.246094 296.449219 122.832031 C 304.113281 122.832031 311.765625 122.832031 319.433594 122.832031 C 317.621094 96.703125 323.4375 63.859375 342.457031 44.492188 C 336.429688 43.71875 330.40625 42.933594 324.394531 42.164062 C 325.042969 43.277344 325.113281 43.21875 324.589844 41.992188 C 324.761719 42.480469 324.894531 42.984375 324.992188 43.5 C 325.164062 44.296875 325.140625 44.195312 324.945312 43.203125 C 324.992188 44.011719 324.992188 44.820312 324.96875 45.628906 C 324.785156 48.496094 324.734375 49.304688 324.308594 51.953125 C 323.304688 58.164062 321.796875 64.519531 321.945312 70.84375 C 322.101562 77.789062 324.550781 84.710938 330.601562 88.628906 C 333.933594 90.785156 337.910156 91.667969 341.84375 91.679688 C 345.074219 91.691406 348.996094 90.0625 352.140625 90.710938 C 365.832031 93.554688 345.921875 115.582031 342.171875 120.578125 C 330.785156 135.757812 317.792969 149.75 304.113281 162.855469 C 297.269531 169.410156 302.140625 183.375 312.269531 182.554688 C 322.703125 181.710938 332.941406 179.101562 343.386719 178.5 C 351.457031 178.035156 358.667969 179.6875 366.320312 181.941406 C 372.578125 183.792969 379.203125 185.839844 385.007812 188.351562 C 387.617188 189.476562 390.605469 191.019531 393.1875 192.636719 C 393.851562 193.054688 394.488281 193.496094 395.125 193.960938 C 394.21875 193.285156 394.242188 193.371094 395.199219 194.195312 C 396.089844 195.125 395.210938 194.464844 394.890625 193.386719 C 395.882812 189.636719 396.875 185.886719 397.867188 182.140625 C 399.078125 181.183594 398.882812 182.015625 397.730469 181.246094 C 396.203125 180.226562 394.191406 179.566406 392.503906 178.390625 C 389.050781 175.988281 386.039062 172.914062 383.195312 169.816406 C 380.636719 167.023438 376.609375 162.917969 377.023438 159.671875 C 377.503906 155.898438 380.917969 151.867188 383.625 149.160156 C 397.179688 135.539062 419.933594 131.484375 438.414062 132.121094 C 434.714844 129.300781 431.027344 126.496094 427.328125 123.679688 C 428.175781 125.859375 428.8125 127.441406 428.640625 128.972656 C 428.714844 128.261719 427.953125 129.9375 427.855469 130.050781 C 426.3125 131.703125 424.246094 132.746094 422.234375 133.722656 C 418.476562 135.574219 416.503906 137.105469 413.675781 140.046875 C 406.144531 147.875 396.984375 151.011719 386.332031 148.683594 C 389 151.351562 391.683594 154.035156 394.351562 156.707031 C 391.695312 141.675781 397.707031 130.6875 407.773438 120.164062 C 412.636719 115.078125 416.371094 109.601562 422.824219 106.28125 C 428.640625 103.28125 434.800781 102.753906 441.253906 103.136719 C 438.558594 102.019531 435.851562 100.894531 433.160156 99.777344 C 438.558594 104.3125 438.300781 107.605469 435.191406 113.914062 C 432.78125 118.816406 429.496094 121.351562 424.011719 121.792969 C 425.933594 122.308594 427.855469 122.832031 429.777344 123.347656 C 425.871094 120.691406 425.601562 119.304688 427.402344 115.238281 C 429.632812 110.226562 432.339844 103.613281 436.84375 100.132812 C 438.4375 98.910156 440.261719 98.027344 442.148438 97.390625 C 443.46875 96.949219 444.839844 96.605469 446.214844 96.335938 C 447.71875 96.042969 447.351562 96.691406 448.355469 96.089844 C 447.21875 95.832031 447.035156 95.808594 447.816406 96.003906 C 448.636719 96.238281 448.429688 96.152344 447.191406 95.746094 C 446.175781 95.390625 445.5625 93.234375 446.542969 95.453125 C 447.609375 97.867188 448.980469 100.097656 449.960938 102.570312 C 455.605469 116.832031 455.238281 130.34375 447.277344 143.621094 C 444.828125 147.703125 443.679688 149.171875 441.132812 152.101562 C 439.464844 154.023438 437.714844 156.019531 435.707031 157.589844 C 437.113281 156.5 434.554688 158.46875 434.382812 158.347656 C 434.726562 158.199219 435.070312 158.042969 435.414062 157.894531 C 438.007812 157.40625 440.324219 158.003906 442.34375 159.695312 C 443.324219 163.40625 444.300781 167.132812 445.292969 170.84375 C 446.617188 167.253906 447.5 164.3125 448.929688 161.472656 C 449.605469 160.113281 451.195312 157.710938 451.515625 157.097656 C 451.96875 156.214844 452.03125 157.097656 451.734375 156.878906 C 451.589844 156.769531 449.789062 157.332031 449.382812 157.234375 C 447.695312 156.253906 446.003906 155.261719 444.316406 154.28125 C 447.644531 158.359375 446.113281 168.539062 445.039062 174.640625 C 443.410156 183.816406 440.933594 192.882812 440.335938 202.207031 C 440.015625 207.128906 444.132812 212.140625 448.796875 213.328125 C 456.660156 215.339844 464.054688 213.167969 470.484375 208.503906 C 474.269531 205.757812 474.390625 205.316406 478.050781 202.902344 C 478.640625 202.511719 479.289062 202.144531 479.925781 201.835938 C 478.882812 202.339844 479.214844 202.070312 480.109375 201.8125 C 481.136719 201.519531 481.320312 201.652344 480.183594 201.726562 C 482.082031 201.605469 479.988281 201.433594 481.101562 201.875 C 486.855469 204.191406 487.222656 210.804688 487.015625 216.953125 C 486.722656 226.058594 485.449219 235.195312 488.289062 244.066406 C 490.898438 252.199219 501.023438 255.261719 507.332031 249.089844 C 520.984375 235.722656 532.105469 217.199219 551.074219 210.902344 C 547.398438 209.933594 543.726562 208.957031 540.050781 207.988281 C 542.90625 211.234375 545.609375 215.214844 546.347656 219.578125 C 546.664062 221.449219 546.578125 223.3125 546.039062 225.125 C 545.722656 226.191406 545.292969 226.902344 544.789062 227.894531 C 543.46875 230.480469 546.175781 226.644531 544.105469 228.910156 C 541.902344 231.335938 539.464844 233.222656 536.597656 234.78125 C 535.691406 235.269531 532.460938 235.929688 532.054688 236.53125 C 531.085938 237.988281 532.410156 236.152344 532.179688 236.59375 C 532.277344 236.410156 533.339844 237.21875 533.390625 237.253906 C 534.492188 239.914062 535.59375 242.582031 536.695312 245.242188 C 537.320312 238.46875 538.324219 231.347656 541.277344 225.210938 C 544.535156 218.449219 550.03125 213.511719 555.886719 208.980469 C 551.328125 209.566406 546.773438 210.15625 542.230469 210.742188 C 543.53125 211.441406 543.761719 211.539062 542.929688 211.027344 C 541.777344 208.648438 541.398438 208.132812 541.804688 209.457031 C 541.972656 209.421875 541.691406 210.535156 541.753906 210.253906 C 541.277344 212.582031 540.578125 214.910156 539.671875 217.113281 C 537.199219 223.128906 533.804688 229.191406 530.328125 234.65625 C 521.597656 248.378906 509.035156 258.789062 495.074219 266.863281 C 499.605469 267.453125 504.148438 268.039062 508.679688 268.617188 C 494.679688 256.734375 496.46875 239.386719 503.425781 223.851562 C 506.328125 217.359375 510.429688 210.203125 514.359375 205.609375 C 516.378906 203.246094 518.964844 200.589844 520.851562 199.410156 C 522.097656 198.628906 522.539062 199.128906 520.898438 198.738281 C 519.417969 198.382812 518.632812 196.925781 520.003906 199.226562 C 519.625 196.335938 519.246094 193.445312 518.867188 190.566406 C 514.3125 205.402344 499.066406 215.398438 489.441406 226.851562 C 477.867188 240.625 467.8125 256.535156 466.027344 274.800781 C 464.472656 290.65625 469.808594 305.613281 479.914062 317.582031 C 483.980469 322.394531 488.351562 326.964844 492.390625 331.804688 C 494.191406 333.960938 495.269531 335.320312 496.773438 337.597656 C 497.546875 338.761719 498.246094 339.949219 498.917969 341.164062 C 498.96875 341.261719 499.800781 342.878906 499.238281 341.738281 C 498.699219 340.660156 499.664062 342.925781 499.59375 343.136719 C 499.578125 343.171875 499.738281 340.992188 499.421875 342.21875 C 499.140625 343.296875 499.800781 340.671875 499.824219 340.453125 C 499.824219 340.417969 500.523438 339.265625 500.511719 339.214844 C 500.65625 339.890625 499.617188 339.839844 499.617188 339.851562 C 498.757812 340.207031 495.023438 341.226562 493.25 341.347656 C 489.992188 341.554688 485.988281 341.335938 483.636719 340.882812 C 482.179688 340.601562 480.769531 340.195312 479.335938 339.804688 C 476.914062 339.128906 479.152344 340.046875 476.863281 338.652344 C 476.863281 345.21875 476.863281 351.785156 476.863281 358.339844 C 478.222656 357.542969 478.738281 357.617188 481.222656 357.933594 C 484.359375 358.339844 487.53125 359.492188 490.445312 360.617188 C 496.078125 362.796875 501.488281 365.789062 506.644531 368.9375 C 508.617188 370.136719 510.882812 371.261719 511.140625 372.550781 C 510.917969 371.472656 509.316406 375.453125 510.601562 373.433594 C 508.949219 376.054688 509.253906 375.980469 507.492188 377.757812 C 507.171875 378.074219 506.695312 378.980469 506.386719 378.734375 C 507.808594 378.074219 509.316406 378 510.917969 378.503906 C 513.441406 378.820312 514.753906 379.828125 514.863281 381.53125 C 513.882812 385.230469 512.902344 388.929688 511.921875 392.640625 C 509.609375 394.6875 505.777344 392.050781 505.652344 389.171875 C 506.179688 387.25 506.695312 385.316406 507.222656 383.390625 C 506.867188 383.953125 506.5 384.507812 505.933594 384.996094 C 505.949219 384.984375 503.316406 386.664062 502.296875 387.164062 C 500.683594 387.960938 496.125 389.1875 492.808594 389.785156 C 486.195312 390.988281 477.023438 390.949219 469.394531 390.535156 C 465.621094 390.324219 461.863281 390.007812 458.101562 389.578125 C 457.367188 389.492188 453.253906 388.941406 455.445312 389.257812 C 453.855469 389.027344 452.261719 388.792969 450.671875 388.511719 C 443.347656 387.25 435.414062 385.339844 429.042969 382.214844 C 425.738281 380.585938 422.957031 378.933594 420.828125 376.835938 C 418.917969 374.964844 417.804688 373.113281 417.644531 372.070312 C 416.664062 365.40625 422.664062 356.941406 427.820312 351.820312 C 438.878906 340.796875 454.257812 339.082031 469.492188 340.121094 C 488.375 341.410156 506.878906 347.4375 524.976562 352.851562 C 523.324219 346.566406 521.660156 340.292969 520.003906 334.007812 C 521.121094 332.773438 524.023438 331.15625 525.367188 331.597656 C 525.015625 331.484375 524.265625 331.695312 523.851562 331.667969 C 522.050781 331.570312 520.238281 331.570312 518.4375 331.425781 C 513.417969 331.007812 511.164062 330.605469 506.449219 329.867188 C 498.84375 328.667969 491.214844 327.640625 483.625 326.425781 C 469.085938 324.109375 454.148438 319.136719 439.6875 324.660156 C 428.601562 328.902344 422.101562 338.015625 421.597656 349.863281 C 421.195312 359.503906 424.597656 368.703125 425.824219 378.148438 C 425.652344 376.847656 425.933594 380.511719 425.945312 381.0625 C 425.984375 382.839844 425.921875 384.628906 425.824219 386.40625 C 425.53125 391.355469 425.1875 393.632812 424.097656 398.558594 C 423.621094 400.75 423.054688 402.917969 422.394531 405.0625 C 422.015625 406.324219 421.597656 407.574219 421.132812 408.8125 C 421.109375 408.886719 420.3125 410.84375 420.851562 409.609375 C 420.066406 411.421875 419.113281 413.183594 418.035156 414.851562 C 416.101562 417.863281 419.332031 413.320312 417.191406 415.941406 C 416.835938 416.371094 414.582031 418.355469 416.527344 416.6875 C 414.667969 418.292969 418.28125 416.527344 415.929688 417.03125 C 416.417969 416.921875 418.367188 417.082031 416.246094 416.96875 C 416.40625 416.984375 413.8125 416.257812 414.71875 416.664062 C 411.324219 415.15625 410.808594 414.457031 408.777344 410.980469 C 404.6875 403.984375 403.292969 393.523438 402.800781 384.53125 C 402.3125 375.660156 402.640625 366.792969 402.925781 357.921875 C 395.308594 357.921875 387.703125 357.921875 380.085938 357.921875 C 380.097656 385.988281 382.117188 414.019531 378.75 441.972656 C 378.691406 442.453125 378.371094 444.816406 378.640625 442.890625 C 378.53125 443.699219 378.410156 444.507812 378.285156 445.316406 C 377.980469 447.242188 377.648438 449.152344 377.257812 451.050781 C 376.375 455.425781 375.308594 459.871094 373.621094 464.011719 C 372.898438 465.777344 370.71875 469.585938 369.605469 470.824219 C 367.667969 472.980469 366.871094 473.1875 364.203125 473.496094 C 362.269531 473.714844 366.945312 473.714844 364.019531 473.53125 C 363.003906 473.46875 362.746094 473.933594 364.289062 473.824219 C 363.921875 473.851562 362.023438 472.195312 363.234375 473.371094 C 364.558594 474.65625 362.453125 472.613281 362.402344 472.550781 C 362.074219 472.160156 361.082031 470.910156 362.453125 472.757812 C 362.085938 472.269531 361.691406 471.695312 361.398438 471.140625 C 361.007812 470.40625 360.589844 469.671875 360.210938 468.925781 C 359.867188 468.191406 359.90625 468.3125 360.320312 469.28125 C 360.125 468.777344 359.929688 468.261719 359.757812 467.75 C 357.148438 459.492188 356.597656 454.457031 356.183594 446.164062 C 355.507812 432.613281 356.316406 419.027344 355.988281 405.480469 C 355.753906 395.800781 355.496094 385.316406 356.976562 376.113281 C 357.6875 371.691406 359.109375 366.007812 360.664062 362.894531 C 362.722656 358.78125 364.339844 357.003906 367.546875 355.152344 C 362.867188 354.554688 358.191406 353.941406 353.511719 353.339844 C 354.1875 354.074219 354.074219 354.40625 353.734375 353.523438 C 354.0625 354.382812 354.773438 355.238281 355.191406 356.085938 C 355.375 356.464844 356.109375 358.472656 356.585938 360.113281 C 357.640625 363.753906 358.363281 367.515625 358.863281 371.261719 C 360.039062 380.058594 360.199219 388.964844 360.714844 397.824219 C 361.128906 405.113281 362.28125 412.328125 362.710938 419.617188 C 362.964844 423.917969 363.175781 428.363281 362.636719 432.640625 C 362.511719 433.605469 362.144531 435.542969 361.621094 437.097656 C 361.019531 438.851562 361.421875 438.066406 360.394531 439.09375 C 364.167969 438.101562 367.9375 437.097656 371.699219 436.105469 C 371.636719 436.09375 368.980469 435.347656 370.082031 435.800781 C 371.304688 436.300781 368.746094 434.929688 368.515625 434.722656 C 369.617188 435.664062 367.777344 433.914062 367.507812 433.617188 C 366.726562 432.761719 365.917969 431.953125 365.183594 431.046875 C 362.5625 427.789062 360.246094 423.671875 358.167969 419.875 C 354.050781 412.351562 350.511719 404.488281 346.949219 396.695312 C 342.933594 387.875 339.429688 378.773438 336.96875 369.390625 C 335.707031 364.574219 334.667969 359.699219 334.519531 354.699219 C 334.398438 350.597656 334.753906 346.882812 336.136719 344.164062 C 330.109375 344.9375 324.085938 345.722656 318.0625 346.492188 C 320.484375 348.488281 319.542969 347.472656 320.867188 349.761719 C 322.140625 351.957031 322.652344 353.414062 323.609375 356.585938 C 325.445312 362.613281 326.574219 368.835938 327.515625 375.0625 C 329.230469 386.355469 331.335938 398.421875 331.433594 409.890625 C 331.496094 416.210938 330.945312 423.378906 327.332031 428.792969 C 325.984375 430.824219 323.402344 432.945312 322.210938 433.960938 C 322.003906 434.132812 321.734375 434.109375 322.113281 434.144531 C 322.703125 434.183594 323.4375 434.269531 324.039062 434.28125 C 322.433594 434.253906 324.0625 434.585938 324.378906 434.511719 C 323.5 434.746094 323.890625 433.238281 324.085938 434.367188 C 324.171875 434.867188 324.34375 434.734375 323.867188 434.011719 C 322.75 432.320312 324.308594 434.917969 323.191406 433.042969 C 321.464844 430.152344 321.269531 429.710938 320.425781 427.296875 C 318.785156 422.679688 317.570312 417.914062 316.53125 413.136719 C 312.21875 393.363281 310.003906 373.429688 309.796875 353.207031 C 302.375 353.207031 294.953125 353.207031 287.546875 353.207031 C 288.890625 364.722656 285.988281 374.863281 282.597656 386.515625 C 280.601562 393.363281 278.484375 399.425781 275.324219 405.429688 C 274.039062 407.855469 272.667969 410.292969 270.988281 412.472656 C 272.019531 411.140625 269.839844 413.636719 269.386719 414.128906 C 268.96875 414.570312 268.453125 415.023438 267.976562 415.402344 C 269.117188 414.496094 268.710938 414.777344 267.730469 415.390625 C 266.554688 416.125 268.613281 415.046875 268.566406 415.121094 C 268.625 414.996094 267.105469 415.683594 267.046875 415.5625 C 266.984375 415.449219 269.554688 415.378906 267.71875 415.367188 C 266.3125 415.351562 267.4375 414.828125 268.589844 415.550781 C 266.703125 414.371094 268.675781 415.660156 268.636719 415.648438 C 268.796875 415.734375 270.292969 417.546875 269.9375 416.859375 C 269.128906 415.28125 270.277344 419.199219 269.851562 416.75 C 269.789062 416.382812 269.078125 413.074219 269.335938 414.839844 C 269.570312 416.429688 269.273438 413.480469 269.261719 412.878906 C 269.226562 411.433594 269.261719 409.988281 269.347656 408.542969 C 269.65625 403.457031 270.476562 399.464844 272.003906 392.984375 C 273.5 386.660156 275.300781 380.425781 277.222656 374.226562 C 280.394531 364 284.800781 353.816406 287.042969 343.332031 C 289.710938 330.835938 273.425781 323.597656 266.359375 334.609375 C 254.421875 353.230469 240.546875 370.589844 227.957031 388.78125 C 221.625 397.945312 215.199219 407.035156 208.632812 416.027344 C 205.351562 420.523438 200.722656 430.582031 195.347656 432.785156 C 199.609375 434.523438 203.882812 436.265625 208.144531 437.992188 C 207.261719 436.792969 207.175781 436.324219 207.238281 437 C 207.152344 436.007812 208.046875 434.023438 208.351562 433.226562 C 209.308594 430.8125 210.554688 428.496094 211.574219 426.109375 C 213.996094 420.398438 215.429688 414.777344 216.324219 408.664062 C 218.027344 397.113281 220.929688 386.246094 226.195312 375.785156 C 236.847656 354.640625 252.9375 335 272.9375 322.089844 C 267.363281 319.824219 261.792969 317.554688 256.222656 315.289062 C 256.675781 317.273438 256.195312 320.460938 255.414062 323.558594 C 254.421875 327.453125 253.0625 331.253906 251.59375 335 C 248.824219 342.082031 245.433594 348.917969 242.871094 356.085938 C 240.839844 361.769531 239.101562 367.589844 236.601562 372.683594 C 235.464844 375.011719 233.1875 378.945312 232.269531 380.011719 C 230.835938 381.675781 231.179688 381.429688 230.078125 382.140625 C 229.339844 382.621094 228.496094 382.65625 229.425781 382.582031 C 233.089844 385.375 236.761719 388.167969 240.425781 390.960938 C 238.722656 386.710938 241.515625 381.148438 242.984375 376.847656 C 245.25 370.222656 247.355469 363.582031 250.121094 357.152344 C 256.476562 342.363281 264.179688 328.140625 271.257812 313.683594 C 276.21875 303.554688 281.386719 293.617188 286.554688 283.597656 C 291.4375 274.128906 297.660156 262.390625 296.363281 251.328125 C 295.347656 242.707031 287.410156 237.035156 279.121094 241.429688 C 268.34375 247.128906 259.894531 257.824219 251.46875 266.375 C 246.375 271.542969 241.195312 276.664062 235.597656 281.308594 C 233.847656 282.753906 231.703125 284.359375 229.132812 285.925781 C 225.984375 287.859375 224.824219 288.375 222.863281 288.953125 C 222.226562 289.136719 221.578125 289.28125 220.929688 289.417969 C 221.308594 289.34375 223.316406 288.976562 221.136719 289.332031 C 220.707031 289.40625 220.167969 289.34375 219.742188 289.308594 C 218.050781 289.171875 221.738281 289.246094 220.070312 289.320312 C 219.8125 289.332031 218.945312 289.085938 218.75 288.925781 C 220.367188 290.199219 219.496094 289.222656 218.921875 288.867188 C 216.949219 287.640625 219.140625 289.183594 219.238281 289.195312 C 218.894531 289.160156 217.414062 287.078125 218.554688 288.621094 C 219.570312 290.003906 217.070312 286.328125 218.761719 289.148438 C 218.296875 288.375 218.125 285.117188 218.332031 288.230469 C 218.257812 287.199219 218.308594 286.183594 218.285156 285.152344 C 218.269531 284.773438 218.492188 282.8125 218.308594 284.359375 C 218.101562 286.035156 218.589844 283.023438 218.601562 282.984375 C 221.125 272.472656 227.8125 261.511719 234.851562 252.859375 C 239.222656 247.496094 244 242.460938 249.277344 237.964844 C 249.828125 237.5 250.378906 237.035156 250.957031 236.59375 C 249.695312 237.574219 250.808594 236.714844 251.480469 236.261719 C 252.644531 235.476562 253.796875 234.695312 255.007812 234.019531 C 256.171875 233.371094 258.375 232.648438 255.902344 233.433594 C 257.003906 233.078125 258.03125 232.746094 259.171875 232.5625 C 254.824219 230.796875 250.488281 229.023438 246.144531 227.257812 C 245.800781 226.546875 244.808594 224.855469 245.421875 225.6875 C 245.039062 225.175781 245.824219 223.386719 245.421875 225.101562 C 245.273438 225.703125 245.066406 226.277344 244.867188 226.867188 C 245.617188 224.585938 244.148438 228.25 243.828125 228.835938 C 242.957031 230.394531 241.992188 231.902344 240.976562 233.371094 C 237.507812 238.417969 232.378906 244.015625 227.515625 249.0625 C 220.023438 256.867188 212.367188 264.449219 204.960938 272.328125 C 200.503906 277.070312 195.054688 282.507812 190.667969 285.421875 C 189.394531 286.269531 188.085938 287.089844 186.714844 287.75 C 188.785156 286.769531 185.171875 288.058594 184.792969 288.265625 C 185.097656 288.09375 186.761719 288.300781 185.699219 288.046875 C 184.265625 287.703125 187.03125 288.351562 187.375 288.460938 C 187.828125 288.609375 189.8125 289.378906 188.660156 289.234375 C 188.121094 288.667969 188.234375 288.816406 188.992188 289.648438 C 188.820312 289.332031 188.648438 289.011719 188.464844 288.683594 C 188.871094 290.496094 187.925781 285.324219 188.21875 287.628906 C 188 285.890625 188.085938 284.050781 188.21875 282.3125 C 188.488281 278.941406 189.578125 274.714844 190.65625 271.027344 C 192.996094 263.078125 196.203125 255.433594 200.050781 248.097656 C 204.101562 240.351562 208.988281 232.90625 214.207031 225.898438 C 219.289062 219.074219 226.523438 209.777344 234.253906 206.933594 C 230.515625 200.527344 226.792969 194.109375 223.058594 187.699219 C 212.183594 199.203125 200.097656 209.433594 188.636719 220.324219 C 178.960938 229.511719 166.691406 237.242188 159.625 248.757812 C 154.386719 257.296875 163.054688 268.234375 172.546875 265.566406 C 181.644531 263.003906 187.328125 256.988281 195.152344 252.296875 C 203.394531 247.347656 211.84375 242.753906 220.476562 238.515625 C 234.300781 231.742188 251.164062 220.078125 267.265625 224.085938 C 264.546875 220.519531 261.839844 216.953125 259.125 213.390625 C 259.222656 214.542969 259.308594 214.1875 259.378906 212.3125 C 260.054688 210.804688 260.054688 210.621094 259.390625 211.75 C 260.164062 210.730469 260.101562 210.730469 259.222656 211.75 C 258.828125 212.152344 258.425781 212.542969 258.007812 212.910156 C 255.867188 214.910156 254.027344 216.183594 251.371094 218.007812 C 246.546875 221.316406 241.464844 224.269531 236.703125 227.675781 C 229.414062 232.878906 222.667969 238.894531 215.492188 244.285156 C 206.417969 251.109375 197.320312 257.921875 188.820312 265.46875 C 178.265625 274.816406 193.71875 290.152344 204.214844 280.902344 Z M 204.214844 280.902344 " fill-opacity="1" fill-rule="nonzero"/><path fill="#e02b8e" d="M 447.082031 223.460938 C 429.375 222.761719 412 225.199219 395.589844 232.035156 C 387.777344 235.292969 380.074219 238.933594 373.289062 244.015625 C 370.546875 246.074219 367.902344 248.230469 365.121094 250.226562 C 363.789062 251.183594 362.429688 252.125 361.007812 252.960938 C 359.085938 254.085938 357.1875 254.269531 360.359375 253.914062 C 364.777344 259.710938 369.1875 265.515625 373.609375 271.3125 C 377.34375 260.089844 385.121094 246.859375 389.28125 233.703125 C 393.789062 219.464844 395.945312 194.339844 376.78125 190.347656 C 359.550781 186.769531 344.390625 198.726562 333.40625 210.585938 C 329.007812 215.324219 325.777344 220.59375 322.410156 226.070312 C 321.660156 227.28125 320.914062 228.484375 320.105469 229.660156 C 317.804688 233.003906 321.589844 228.371094 318.917969 231.179688 C 318.34375 231.804688 317.742188 232.402344 317.09375 232.964844 C 317.386719 232.722656 317.667969 232.476562 317.953125 232.230469 C 319.554688 231.730469 319.617188 231.691406 318.109375 232.132812 C 319.921875 231.902344 319.996094 231.765625 318.332031 231.703125 C 322.324219 238.664062 326.316406 245.632812 330.320312 252.59375 C 339.601562 235.882812 351.726562 219.527344 348.761719 199.425781 C 347.597656 191.523438 338.207031 188.398438 331.554688 189.648438 C 305.484375 194.535156 308.828125 229.707031 324.453125 243.859375 C 334.9375 253.351562 351.027344 253.757812 363.871094 249.617188 C 375.945312 245.730469 386.515625 237.929688 398.515625 235.464844 C 394.035156 227.761719 389.539062 220.042969 385.058594 212.335938 C 372.445312 228.285156 362.402344 245.632812 351.601562 262.796875 C 344.316406 274.386719 330.429688 288.585938 340.65625 302.964844 C 345.003906 309.078125 352.496094 311.824219 359.441406 307.890625 C 372.898438 300.269531 384.214844 289.578125 395.269531 278.894531 C 402.726562 271.691406 411.152344 258.707031 420.484375 255.828125 C 415.367188 249.175781 410.246094 242.511719 405.140625 235.859375 C 396.519531 251.402344 383.160156 263.605469 376.375 280.289062 C 373.15625 288.21875 371.84375 297.441406 374.820312 305.660156 C 379.144531 317.570312 391.511719 321.855469 402.972656 317.460938 C 397.757812 310.671875 392.550781 303.898438 387.335938 297.109375 C 385.203125 300.332031 388.546875 296.230469 386.011719 298.519531 C 387.886719 296.839844 385.230469 299.292969 386.417969 298.03125 C 387.089844 297.320312 385.035156 297.945312 387.285156 297.761719 C 386.550781 297.820312 383.378906 297.234375 386.160156 297.820312 C 381.113281 296.753906 379.289062 295.578125 374.109375 292.40625 C 365.429688 287.078125 357.320312 280.816406 348.785156 275.269531 C 344.695312 272.609375 341.132812 269.976562 339.355469 266.277344 C 340.078125 267.769531 339.664062 264.316406 339.441406 265.96875 C 339.625 264.585938 339.46875 264.71875 339.6875 263.667969 C 340.226562 261.046875 341.179688 258.914062 342.003906 257.113281 C 347.023438 245.988281 354.308594 234.816406 363.640625 226.855469 C 374.941406 217.210938 359.796875 197.144531 347.585938 206.039062 C 332.292969 217.199219 321.207031 233.371094 314.5 250.976562 C 310.960938 260.261719 310.457031 269.851562 314.65625 278.992188 C 318.390625 287.101562 325.3125 292.898438 332.523438 297.847656 C 354.234375 312.71875 390.066406 342.964844 411.226562 311.101562 C 417.605469 301.507812 406.867188 286.464844 395.589844 290.753906 C 394.78125 291.121094 393.960938 291.402344 393.101562 291.621094 C 392 291.917969 392.0625 291.917969 393.261719 291.621094 C 395.199219 292.441406 397.121094 293.25 399.054688 294.074219 C 399.519531 294.488281 399.898438 294.96875 400.179688 295.519531 C 401.269531 295.824219 399.925781 297.476562 400.414062 295.078125 C 401.320312 290.714844 399.542969 297.761719 400.5625 293.191406 C 401.675781 288.15625 404.246094 283.976562 407.515625 279.078125 C 414.203125 269.03125 422.652344 260.125 428.578125 249.589844 C 434.238281 239.519531 424.832031 226.117188 413.234375 229.621094 C 398.835938 233.972656 389.394531 245.5 379.363281 255.9375 C 369.222656 266.484375 358.289062 276.847656 345.554688 284.1875 C 351.8125 285.828125 358.082031 287.46875 364.339844 289.109375 C 362.636719 286.769531 364.15625 292.417969 364.410156 293.066406 C 364.523438 292.652344 364.644531 292.234375 364.753906 291.820312 C 364.300781 292.738281 364.300781 292.75 364.742188 291.867188 C 365.90625 289.367188 367.59375 287.054688 369.1875 284.824219 C 372.507812 280.191406 375.617188 275.609375 378.578125 270.722656 C 386.648438 257.40625 394.71875 244.015625 404.566406 231.914062 C 413.359375 221.109375 405.203125 206.101562 391.105469 208.785156 C 382.03125 210.511719 373.71875 214.921875 365.453125 218.855469 C 358.789062 222.027344 351.148438 225.324219 345.050781 223.789062 C 344.167969 223.582031 343.300781 223.300781 342.441406 222.96875 C 343.507812 223.410156 343.519531 223.335938 342.46875 222.761719 C 346.277344 225.175781 340.925781 220.226562 343.203125 223.386719 C 342.308594 222.136719 341.550781 220.789062 340.886719 219.417969 C 342.257812 222.222656 340.617188 218.449219 340.421875 217.738281 C 340.226562 217.039062 339.269531 212.753906 340.019531 216.292969 C 339.96875 215.546875 339.957031 214.8125 339.992188 214.0625 C 339.636719 215.988281 339.625 216.183594 339.933594 214.640625 C 340.445312 213.167969 339.945312 215.191406 339.183594 215.691406 C 337.003906 217.175781 335.730469 217.226562 338.929688 216.625 C 333.199219 213.367188 327.453125 210.105469 321.722656 206.847656 C 321.183594 203.171875 320.890625 210.523438 321.429688 207.679688 C 321.148438 209.210938 320.683594 210.71875 320.191406 212.191406 C 319.152344 215.300781 318.136719 217.285156 316.496094 220.472656 C 313.308594 226.632812 309.601562 232.488281 306.292969 238.578125 C 300.90625 248.488281 307.875 258.398438 318.28125 259.464844 C 333.933594 261.082031 342.382812 245.964844 349.300781 234.65625 C 349.9375 233.605469 350.585938 232.550781 351.296875 231.546875 C 351.898438 230.6875 351.726562 230.910156 350.78125 232.230469 C 351.445312 231.496094 352.117188 230.761719 352.789062 230.039062 C 355.09375 227.578125 357.457031 225.125 360.027344 222.945312 C 362.242188 221.058594 364.667969 219.183594 367.375 218.03125 C 370.03125 216.90625 370.351562 217.152344 372.554688 217.886719 C 369.800781 215.765625 367.042969 213.648438 364.300781 211.539062 C 363.433594 209.652344 364.460938 212.3125 364.535156 212.765625 C 364.765625 214.160156 364.621094 211.492188 364.691406 213.964844 C 364.777344 216.871094 364.65625 217.789062 364.375 219.269531 C 363.308594 224.722656 361.460938 230.003906 359.367188 235.136719 C 355.621094 244.335938 350.304688 254.136719 347.058594 264.007812 C 343.519531 274.777344 354.34375 282.65625 363.957031 280.914062 C 371.660156 279.519531 378.140625 273.945312 383.992188 269.117188 C 389.773438 264.339844 393.910156 261.328125 400.929688 257.835938 C 415.488281 250.582031 430.90625 248.21875 447.035156 248.621094 C 463.308594 249.039062 463.234375 224.085938 447.082031 223.460938 Z M 447.082031 223.460938 " fill-opacity="1" fill-rule="nonzero"/><path fill="#000000" d="M 340.703125 194.683594 C 333.515625 194.621094 326.082031 194.4375 319.410156 197.511719 C 311.878906 200.992188 307.359375 208.023438 303.929688 215.277344 C 295.515625 233.027344 292.0625 252.984375 293.949219 272.5625 C 294.792969 281.257812 295.0625 290.300781 296.707031 298.886719 C 298.457031 308.0625 303.796875 314.835938 310.960938 320.523438 C 324.050781 330.921875 339.566406 340.195312 356.21875 343.085938 C 390.054688 348.96875 427.316406 338.972656 446.066406 308.367188 C 463.554688 279.8125 460.0625 239.839844 437.164062 215.238281 C 430.917969 208.527344 422.617188 203.527344 415.476562 197.796875 C 407.003906 190.984375 398.785156 187.996094 387.863281 188.496094 C 377.292969 188.976562 366.835938 188.804688 356.257812 189.0625 C 350.636719 189.195312 345.785156 190.285156 340.765625 192.796875 C 337.238281 194.5625 334.421875 196.753906 330.429688 197.292969 C 319.1875 198.8125 321.722656 218.558594 333.136719 217.285156 C 340.238281 216.488281 344.769531 213.132812 351.089844 210.460938 C 357.898438 207.582031 367.386719 209.835938 374.699219 209.738281 C 381.078125 209.652344 387.886719 207.976562 394.230469 208.957031 C 400.425781 209.910156 405.238281 215.976562 409.976562 219.675781 C 415.023438 223.621094 420.265625 226.621094 424.390625 231.644531 C 428.40625 236.53125 431.433594 242.410156 433.441406 248.402344 C 437.433594 260.359375 437.664062 273 434.078125 285.105469 C 426.460938 310.769531 402.335938 323.511719 376.867188 324.125 C 363.972656 324.441406 351.96875 322.054688 340.765625 315.597656 C 334.753906 312.128906 328.582031 308.625 323.21875 304.191406 C 317.667969 299.609375 316.273438 295.261719 315.710938 288.253906 C 314.289062 270.613281 312.035156 254.074219 316.765625 236.652344 C 318.625 229.78125 321.097656 219.871094 326.425781 214.847656 C 330.039062 211.453125 336.125 212.105469 340.703125 211.945312 C 351.773438 211.578125 351.847656 194.78125 340.703125 194.683594 Z M 340.703125 194.683594 " fill-opacity="1" fill-rule="nonzero"/><path fill="#000000" d="M 387.03125 125.222656 C 385.644531 115.496094 384.296875 106.554688 384.089844 96.691406 C 383.859375 85.140625 381.8125 73.671875 379.753906 62.339844 C 378.164062 53.582031 377.5625 44.085938 374.488281 35.695312 C 371.441406 27.378906 365.734375 21.582031 359.796875 15.25 C 353.378906 8.414062 346.140625 1.539062 336.308594 0.816406 C 327.957031 0.207031 320.289062 3.757812 313.933594 8.902344 C 301.210938 19.195312 293.226562 35.007812 288.15625 50.273438 C 284.460938 61.410156 281.972656 73.132812 281.386719 84.871094 C 280.796875 96.628906 284.019531 108.808594 281.445312 120.421875 C 287.007812 118.949219 292.578125 117.480469 298.136719 116.011719 C 291.207031 110.535156 286.125 103.207031 279.351562 97.5625 C 272.1875 91.59375 263.691406 87.722656 254.578125 85.824219 C 245.835938 84 236.824219 83.300781 227.996094 82.050781 C 220.523438 81 214.242188 81.28125 207.496094 84.992188 C 193.253906 92.832031 181.242188 106.027344 177.003906 121.914062 C 172.914062 137.253906 174.785156 155.175781 184.839844 167.855469 C 190.546875 175.058594 199.203125 179.714844 207.25 183.816406 C 211.328125 185.898438 215.453125 187.738281 219.863281 189.035156 C 224.34375 190.359375 228.691406 191.242188 232.5625 193.972656 C 231.890625 188.777344 231.226562 183.574219 230.554688 178.378906 C 229.832031 179.003906 222.714844 178.734375 220.746094 179.261719 C 215.285156 180.730469 210.457031 184 205.828125 187.125 C 196.4375 193.472656 187.484375 200.441406 178.730469 207.632812 C 164.820312 219.0625 152.929688 231.851562 146.414062 248.917969 C 140.535156 264.339844 140.132812 282.152344 142.972656 298.273438 C 145.554688 312.914062 154.421875 325.3125 169.253906 329.207031 C 179.390625 331.867188 191.355469 331.769531 201.777344 331.449219 C 213.839844 331.082031 225.289062 327.015625 237.398438 326.941406 C 248.285156 326.878906 251.371094 309.59375 240.042969 307.375 C 219.347656 303.308594 204.261719 321.453125 194.453125 337.207031 C 182.550781 356.316406 174.886719 378.28125 172.324219 400.617188 C 170.183594 419.296875 165.578125 447.449219 183.382812 460.09375 C 197.441406 470.078125 217.660156 465.164062 232.367188 459.332031 C 242.652344 455.265625 252.523438 450.011719 261.316406 443.296875 C 267.230469 438.777344 272.472656 433.777344 276.941406 427.824219 C 280.480469 423.109375 283.417969 417.070312 288.304688 413.578125 C 283.480469 411.617188 278.667969 409.65625 273.84375 407.683594 C 276.425781 417.398438 275.089844 427.210938 275.472656 437.121094 C 275.851562 447.390625 278.433594 457.019531 284.691406 465.285156 C 291.832031 474.730469 302.03125 482.488281 311.4375 489.566406 C 320.570312 496.453125 330.355469 502.296875 341.097656 506.328125 C 358.949219 513.015625 379.695312 512.511719 395.722656 501.449219 C 410.0625 491.5625 419.234375 476.570312 425.335938 460.535156 C 431.921875 443.199219 434.886719 423.734375 433.476562 405.234375 C 427.429688 406.875 421.390625 408.503906 415.339844 410.148438 C 422.578125 426.90625 441.9375 434.511719 458.800781 437.160156 C 480.894531 440.636719 503.019531 437.40625 524.195312 430.570312 C 533.660156 427.519531 542.683594 423.609375 549.601562 416.199219 C 556.214844 409.117188 560.332031 400.285156 563.332031 391.171875 C 569.257812 373.164062 570.949219 351.550781 563.011719 333.921875 C 558.445312 323.78125 549.222656 315.878906 540.148438 309.800781 C 529.65625 302.757812 517.015625 298.753906 504.34375 300.074219 C 505.199219 306.410156 506.058594 312.730469 506.914062 319.0625 C 517.164062 315.09375 525.34375 308.515625 534.1875 302.15625 C 542.660156 296.058594 551.539062 290.519531 559.4375 283.648438 C 573.875 271.078125 585.300781 253.742188 588.261719 234.683594 C 589.71875 225.308594 591.59375 215.792969 591.359375 206.273438 C 591.128906 196.949219 588.089844 188.679688 583.292969 180.753906 C 573.972656 165.355469 559.277344 150.765625 541.632812 145.582031 C 531.417969 142.582031 520.667969 144.164062 510.660156 147.238281 C 506.117188 148.632812 501.234375 150.300781 497.191406 152.847656 C 495.269531 154.0625 493.589844 155.652344 491.804688 157.050781 C 491.753906 157.085938 490.457031 158.03125 490.113281 158.398438 C 488.707031 159.929688 489.011719 158.386719 490.015625 158.765625 C 491.949219 163.519531 493.886719 168.269531 495.820312 173.023438 C 500.230469 165.0625 506.242188 158.066406 510.039062 149.761719 C 514.445312 140.144531 516.625 129.535156 517.042969 118.988281 C 517.421875 109.210938 516.257812 98.835938 514.324219 89.242188 C 512.488281 80.105469 508.164062 71.96875 500.558594 66.40625 C 486.367188 56.03125 465.292969 51.792969 448.011719 53.582031 C 428.984375 55.542969 410.101562 62.632812 394.390625 73.550781 C 385.035156 80.042969 378.226562 88.054688 371.980469 97.523438 C 369.003906 102.019531 366.75 106.578125 365.023438 111.710938 C 363.273438 116.929688 362.109375 121.890625 358.707031 126.324219 C 355.460938 130.550781 358.054688 137.375 362.246094 139.835938 C 367.324219 142.816406 372.492188 140.535156 375.75 136.296875 C 381.960938 128.210938 382.449219 117.566406 387.824219 109.0625 C 393.324219 100.378906 399.289062 93.335938 408.03125 87.808594 C 423.828125 77.835938 443.886719 70.523438 462.804688 73.058594 C 471.597656 74.234375 482.277344 76.773438 489.464844 82.261719 C 496.003906 87.246094 496.199219 97.230469 496.996094 104.726562 C 498.21875 116.15625 497.902344 127.746094 493.773438 138.625 C 490.382812 147.566406 483.671875 154.894531 479.066406 163.210938 C 475.796875 169.117188 478.996094 175.230469 484.871094 177.472656 C 493.519531 180.777344 499.652344 174.875 506.117188 170.269531 C 511.382812 166.519531 518.449219 164.792969 524.757812 163.738281 C 539.683594 161.25 552.578125 172.105469 561.382812 183.058594 C 565.425781 188.09375 569.625 194.179688 571.289062 200.503906 C 573.152344 207.597656 571.71875 215.804688 570.628906 222.933594 C 569.464844 230.527344 568.644531 238.332031 565.167969 245.289062 C 561.714844 252.199219 556.9375 258.535156 551.710938 264.195312 C 544.742188 271.738281 536.15625 277.242188 527.78125 283.070312 C 519.429688 288.878906 511.371094 296.683594 501.785156 300.40625 C 497.300781 302.144531 494.105469 305.957031 494.863281 311.015625 C 495.515625 315.351562 499.507812 319.910156 504.355469 319.394531 C 519.394531 317.828125 536.976562 326.917969 544.621094 340.207031 C 551.5 352.152344 549.542969 368.800781 546.0625 381.515625 C 542.15625 395.765625 535.59375 406.363281 521.15625 411.1875 C 503.804688 416.96875 485.632812 420.707031 467.289062 418.832031 C 454.246094 417.496094 437.859375 413.503906 432.179688 400.320312 C 428.359375 391.453125 413.34375 395.960938 414.042969 405.234375 C 415.964844 430.839844 409.683594 462.320312 390.46875 480.722656 C 363.164062 506.878906 325.371094 478.332031 304.347656 457.925781 C 297.257812 451.039062 295.113281 443.589844 295.078125 433.925781 C 295.039062 423.253906 295.554688 412.902344 292.847656 402.453125 C 291.367188 396.695312 283.601562 392.886719 278.386719 396.5625 C 269.972656 402.492188 265.722656 411.003906 259.160156 418.601562 C 252.570312 426.21875 244.097656 431.660156 235.28125 436.339844 C 225.335938 441.617188 211.648438 447.328125 200.074219 445.796875 C 195.3125 445.171875 192.777344 443.578125 191.34375 438.296875 C 189.066406 429.917969 190.398438 419.972656 191.0625 411.433594 C 192.53125 392.664062 196.902344 374.511719 205.558594 357.691406 C 209.429688 350.167969 213.828125 342.644531 219.445312 336.277344 C 221.996094 333.398438 224.710938 330.566406 227.996094 328.546875 C 229.453125 327.652344 230.480469 327.125 231.851562 326.757812 C 232.84375 326.5 234.054688 326.425781 234.753906 326.5625 C 235.636719 320.042969 236.515625 313.515625 237.398438 306.996094 C 227.8125 307.019531 218.722656 309.066406 209.34375 310.78125 C 200.601562 312.375 191.453125 311.347656 182.636719 310.941406 C 170.648438 310.402344 164.734375 306.175781 162.332031 294.378906 C 159.738281 281.613281 160.59375 267.085938 165.160156 254.882812 C 170.390625 240.90625 181.386719 230.773438 192.640625 221.523438 C 201.152344 214.515625 209.945312 207.839844 219.238281 201.875 C 223 199.460938 225.703125 198.320312 230.078125 198.003906 C 235.84375 197.597656 240.179688 196.203125 244.601562 192.394531 C 249.839844 187.882812 247.402344 180.214844 242.589844 176.796875 C 235.597656 171.824219 227.039062 171.234375 219.460938 167.695312 C 213.066406 164.707031 204.800781 161.054688 200.269531 155.445312 C 191.378906 144.433594 194.011719 126.066406 201.921875 115.398438 C 205.878906 110.070312 212.222656 104.484375 218.269531 101.726562 C 222.777344 99.667969 232.992188 102.753906 238.894531 103.464844 C 247.894531 104.542969 257.445312 105.832031 264.925781 111.402344 C 272.078125 116.734375 277 124.5625 284.03125 130.097656 C 289.480469 134.386719 298.945312 133.785156 300.722656 125.6875 C 304.703125 107.570312 299.363281 89.144531 303.171875 70.890625 C 306.121094 56.753906 310.789062 43.035156 319.554688 31.421875 C 322.703125 27.253906 327.027344 22.230469 332.253906 20.726562 C 338.28125 18.984375 342.96875 25.675781 346.691406 29.546875 C 351.015625 34.03125 355.375 37.839844 357.125 44.027344 C 359.257812 51.585938 360.113281 59.609375 361.59375 67.3125 C 363.773438 78.671875 365.539062 89.757812 365.699219 101.347656 C 365.820312 111.148438 368.390625 120.285156 370.128906 129.851562 C 370.988281 134.546875 376.632812 137.117188 380.917969 135.980469 C 385.953125 134.679688 387.691406 129.890625 387.03125 125.222656 Z M 387.03125 125.222656 " fill-opacity="1" fill-rule="nonzero"/><path fill="#000000" d="M 419.417969 411.679688 C 418.550781 433.765625 425.664062 454.382812 433.820312 474.585938 C 442.796875 496.796875 451.761719 519.003906 460.492188 541.3125 C 469.171875 563.511719 477.597656 585.808594 485.472656 608.300781 C 493.25 630.511719 500.007812 653.050781 507.734375 675.285156 C 511.75 686.828125 516.367188 698.109375 520.800781 709.503906 C 524.964844 720.210938 529.078125 731.125 535.335938 740.816406 C 541.105469 749.734375 557.316406 744.246094 553.363281 733.207031 C 547.460938 716.71875 537.738281 702.667969 528.199219 688.160156 C 519.453125 674.882812 513.292969 660.917969 508.324219 645.847656 C 502.835938 629.238281 498.148438 612.441406 495.21875 595.179688 C 492.757812 580.652344 488.019531 563.867188 494.925781 550.023438 C 501.527344 536.78125 511.863281 524.945312 522.246094 514.523438 C 533.453125 503.261719 546.445312 493.132812 561.222656 487.019531 C 567.664062 484.359375 574.558594 482.585938 581.453125 481.664062 C 583.351562 481.410156 586.402344 481.8125 588.433594 481.296875 C 590.664062 480.734375 589.878906 482.597656 589.339844 479.78125 C 590.246094 484.542969 586.121094 491.148438 584.171875 495.289062 C 581.195312 501.597656 578.28125 507.894531 573.933594 513.394531 C 563.402344 526.722656 549.125 532.519531 533.683594 538.214844 C 523.726562 541.890625 513.90625 546.128906 503.769531 549.289062 C 495.710938 551.8125 487.714844 553.980469 481.542969 560.117188 C 472.664062 568.9375 486.402344 582.683594 495.269531 573.851562 C 500.339844 568.804688 509.890625 567.789062 516.429688 565.363281 C 526.53125 561.613281 536.5625 557.667969 546.726562 554.078125 C 562.414062 548.542969 577.007812 540.164062 587.6875 527.140625 C 592.964844 520.707031 596.882812 513.835938 600.410156 506.339844 C 603.605469 499.515625 607.195312 492.605469 608.382812 485.097656 C 609.644531 477.144531 607.625 469.171875 600.347656 464.808594 C 593.933594 460.949219 585.886719 461.476562 578.785156 462.457031 C 542.894531 467.371094 514.175781 491.441406 492.246094 518.980469 C 481.921875 531.941406 470.851562 547.660156 471.5625 565.054688 C 471.976562 575.296875 473.949219 585.785156 475.542969 595.902344 C 477.109375 605.886719 479.03125 615.847656 481.675781 625.609375 C 487.050781 645.417969 493.175781 665.609375 502.628906 683.886719 C 512.316406 702.628906 527.046875 718.382812 534.34375 738.425781 C 540.359375 735.890625 546.359375 733.355469 552.371094 730.816406 C 547.128906 722.832031 543.480469 714.035156 539.964844 705.191406 C 536.183594 695.671875 532.179688 686.238281 528.640625 676.609375 C 520.800781 655.355469 514.25 633.648438 506.753906 612.269531 C 491.105469 567.628906 473.203125 523.820312 455.128906 480.121094 C 445.957031 457.949219 436.257812 436.058594 436.183594 411.628906 C 436.148438 400.859375 419.847656 400.921875 419.417969 411.679688 Z M 419.417969 411.679688 " fill-opacity="1" fill-rule="nonzero"/></svg>