<svg xmlns="http://www.w3.org/2000/svg" xmlns:xlink="http://www.w3.org/1999/xlink" width="1000" zoomAndPan="magnify" viewBox="0 0 750 749.999995" height="1000" preserveAspectRatio="xMidYMid meet" version="1.0"><defs><clipPath id="f7edfbc3a1"><path d="M 89.265625 0 L 660.765625 0 L 660.765625 750 L 89.265625 750 Z M 89.265625 0 " clip-rule="nonzero"/></clipPath></defs><g clip-path="url(#f7edfbc3a1)"><path fill="#c13c35" d="M 582.648438 1.585938 C 581.730469 2.085938 580.480469 2.335938 579.894531 2.167969 C 579.394531 2 578.894531 2.335938 578.894531 2.753906 C 578.894531 3.167969 578.0625 3.335938 577.058594 3.085938 C 575.644531 2.753906 574.890625 3.085938 574.140625 4.585938 C 573.558594 5.585938 573.058594 6.003906 573.058594 5.421875 C 573.058594 4.921875 572.640625 4.421875 572.222656 4.421875 C 571.804688 4.421875 571.640625 4.921875 571.972656 5.421875 C 572.390625 6.253906 572.222656 6.253906 571.140625 5.421875 C 569.972656 4.585938 568.804688 4.671875 564.882812 5.753906 C 562.296875 6.421875 558.796875 7.171875 557.210938 7.421875 C 555.625 7.589844 553.789062 8.257812 553.125 8.757812 C 552.457031 9.339844 551.121094 9.925781 550.203125 10.089844 C 549.203125 10.175781 547.703125 11.175781 546.703125 12.34375 C 545.785156 13.511719 544.617188 14.429688 544.199219 14.429688 C 543.78125 14.429688 542.53125 14.84375 541.363281 15.429688 C 540.195312 16.097656 537.695312 17.597656 535.691406 18.847656 C 533.773438 20.097656 532.023438 21.515625 531.773438 21.933594 C 531.523438 22.351562 530.605469 22.769531 529.6875 22.769531 C 528.769531 22.769531 528.019531 23.183594 528.019531 23.601562 C 528.019531 24.019531 527.769531 24.269531 527.351562 24.101562 C 527.019531 23.933594 525.933594 24.183594 524.933594 24.6875 C 523.933594 25.269531 521.765625 26.769531 520.011719 28.1875 C 518.34375 29.523438 515.425781 32.109375 513.507812 33.859375 C 511.589844 35.609375 508.417969 37.863281 506.417969 38.863281 C 504.414062 39.863281 502.664062 41.199219 502.496094 41.699219 C 502.332031 42.28125 501.832031 42.785156 501.332031 42.785156 C 500.914062 42.785156 499.746094 43.617188 498.660156 44.617188 C 497.578125 45.703125 495.660156 47.285156 494.324219 48.203125 C 492.988281 49.121094 490.738281 50.957031 489.320312 52.207031 C 487.902344 53.457031 486.566406 54.542969 486.316406 54.460938 C 486.066406 54.460938 484.816406 55.460938 483.398438 56.628906 C 481.980469 57.796875 479.5625 59.964844 477.976562 61.464844 C 476.394531 62.964844 474.808594 64.132812 474.472656 64.132812 C 474.222656 64.050781 472.972656 65.050781 471.804688 66.300781 C 470.636719 67.636719 469.386719 68.636719 469.054688 68.636719 C 468.636719 68.636719 466.300781 70.636719 463.796875 73.058594 C 461.296875 75.558594 457.960938 78.976562 456.375 80.8125 C 454.792969 82.5625 452.457031 84.734375 451.121094 85.484375 C 449.871094 86.316406 446.449219 89.402344 443.613281 92.320312 C 440.695312 95.242188 434.609375 101.496094 430.019531 106.25 C 425.433594 111.085938 419.59375 117.339844 417.09375 120.175781 C 414.589844 123.09375 411.503906 126.515625 410.253906 127.847656 C 408.917969 129.265625 407.917969 130.769531 407.917969 131.183594 C 407.917969 131.601562 405.332031 134.605469 402.082031 137.855469 C 398.492188 141.441406 396.410156 144.195312 396.660156 144.945312 C 396.910156 145.78125 396.410156 146.363281 395.242188 146.613281 C 394.15625 146.78125 393.574219 147.199219 393.988281 147.449219 C 394.324219 147.699219 393.238281 149.117188 391.65625 150.535156 C 390.070312 152.035156 388.734375 153.535156 388.734375 153.871094 C 388.734375 154.285156 387.234375 156.121094 385.398438 158.039062 C 383.566406 160.042969 382.0625 161.875 382.0625 162.210938 C 382.0625 162.625 380.730469 164.378906 379.144531 166.210938 C 377.558594 168.046875 376.390625 169.964844 376.640625 170.382812 C 376.890625 170.800781 376.308594 171.382812 375.390625 171.632812 C 374.472656 171.882812 372.640625 173.800781 371.222656 175.96875 C 369.886719 178.222656 368.386719 180.472656 367.886719 180.972656 C 367.46875 181.558594 367.21875 182.058594 367.46875 182.058594 C 367.71875 182.058594 366.882812 183.226562 365.550781 184.726562 C 364.296875 186.144531 362.296875 188.398438 360.960938 189.730469 C 359.710938 190.980469 358.710938 192.816406 358.710938 193.734375 C 358.710938 194.652344 358.292969 195.234375 357.875 194.984375 C 357.460938 194.734375 356.625 195.402344 356.125 196.402344 C 355.542969 197.488281 354.625 198.570312 354.039062 198.90625 C 353.371094 199.320312 352.871094 200.070312 352.871094 200.574219 C 352.871094 201.15625 351.621094 203.40625 349.953125 205.578125 C 347.285156 209.246094 347.199219 209.664062 348.535156 210.496094 C 349.480469 211.054688 349.535156 211.21875 348.703125 210.996094 C 348.035156 210.832031 346.785156 211.496094 345.949219 212.414062 C 345.117188 213.414062 344.699219 214.667969 344.949219 215.167969 C 345.199219 215.75 344.78125 216.417969 344.113281 216.667969 C 343.449219 216.917969 343.03125 217.503906 343.28125 217.917969 C 343.53125 218.335938 343.113281 218.585938 342.445312 218.335938 C 341.695312 218.085938 341.027344 218.585938 340.777344 219.585938 C 340.527344 220.503906 340.527344 221.671875 340.777344 222.089844 C 341.027344 222.507812 340.695312 222.921875 340.113281 222.921875 C 339.609375 222.839844 338.445312 223.507812 337.691406 224.339844 C 336.859375 225.175781 336.191406 226.09375 336.191406 226.425781 C 336.191406 226.84375 336.859375 226.84375 337.609375 226.425781 C 338.859375 225.925781 338.945312 226.007812 337.777344 227.675781 C 337.027344 228.929688 336.441406 229.179688 336.109375 228.511719 C 335.773438 227.84375 335.164062 228.207031 334.273438 229.59375 C 333.523438 230.761719 333.105469 231.929688 333.273438 232.265625 C 333.523438 232.679688 332.9375 233.347656 332.019531 233.765625 C 331.105469 234.183594 330.351562 235.183594 330.351562 235.851562 C 330.351562 236.515625 329.351562 238.183594 328.019531 239.4375 C 326.765625 240.6875 324.683594 243.023438 323.429688 244.605469 C 321.929688 246.523438 321.179688 248.277344 321.347656 249.777344 C 321.511719 251.363281 321.261719 251.945312 320.511719 251.695312 C 320.011719 251.445312 318.84375 252.03125 318.007812 252.945312 C 317.257812 253.949219 317.007812 254.613281 317.425781 254.613281 C 317.84375 254.613281 317.675781 255.199219 316.925781 256.03125 C 316.257812 256.867188 314.757812 259.367188 313.589844 261.621094 C 312.503906 263.789062 311.085938 265.957031 310.503906 266.375 C 310.003906 266.789062 309.667969 267.707031 309.917969 268.375 C 310.167969 269.042969 309.667969 270.292969 308.835938 271.210938 C 308.085938 272.046875 306.75 273.628906 305.917969 274.714844 C 305.164062 275.796875 304.5 277.132812 304.5 277.550781 C 304.5 277.964844 303.746094 279.132812 302.832031 280.050781 C 301.914062 280.96875 301.078125 282.554688 301.164062 283.554688 C 301.164062 284.636719 300.660156 285.972656 300.078125 286.472656 C 299.578125 287.058594 297.574219 290.394531 295.824219 293.8125 C 293.988281 297.230469 292.320312 300.234375 292.070312 300.484375 C 291.820312 300.734375 290.320312 303.402344 288.820312 306.488281 C 287.402344 309.65625 286.148438 312.410156 286.066406 312.742188 C 285.984375 313.160156 285.066406 315.078125 283.980469 317.164062 C 282.898438 319.25 281.980469 321.167969 281.980469 321.5 C 281.980469 321.917969 280.8125 323.75 279.476562 325.671875 C 278.058594 327.671875 276.976562 329.757812 276.976562 330.257812 C 276.976562 330.839844 276.058594 332.507812 274.890625 333.84375 C 273.722656 335.175781 272.804688 337.09375 272.804688 338.011719 C 272.804688 338.929688 272.222656 339.847656 271.554688 340.097656 C 270.886719 340.347656 270.136719 340.515625 269.886719 340.515625 C 269.636719 340.515625 269.050781 338.929688 268.550781 336.929688 C 268.050781 335.011719 267.382812 332.84375 267.132812 332.175781 C 266.882812 331.507812 266.550781 330.339844 266.382812 329.671875 C 266.214844 329.007812 266.050781 327.839844 265.964844 327.171875 C 265.964844 326.503906 265.382812 324.585938 264.714844 323 C 263.964844 321.417969 263.464844 319.5 263.378906 318.832031 C 263.378906 318.164062 263.714844 316.996094 263.964844 316.328125 C 264.296875 315.664062 264.046875 314.496094 263.464844 313.828125 C 262.878906 313.160156 262.296875 311.242188 262.128906 309.65625 C 262.046875 308.074219 261.960938 305.820312 261.960938 304.652344 C 261.960938 303.484375 261.628906 302.152344 261.210938 301.734375 C 260.796875 301.316406 260.210938 299.234375 259.878906 297.148438 C 259.542969 295.0625 258.960938 292.894531 258.542969 292.3125 C 258.125 291.808594 257.875 291.058594 257.875 290.644531 C 257.960938 290.308594 257.875 289.890625 257.792969 289.640625 C 257.625 289.390625 257.457031 287.140625 257.292969 284.636719 C 257.125 282.136719 256.542969 277.632812 255.875 274.628906 C 255.289062 271.628906 254.539062 268.710938 254.207031 268.125 C 253.871094 267.625 253.957031 266.625 254.371094 266.039062 C 254.875 265.457031 254.707031 263.789062 253.957031 261.703125 C 253.289062 259.867188 252.621094 257.617188 252.453125 256.699219 C 252.371094 255.78125 252.039062 254.613281 251.789062 254.199219 C 251.453125 253.78125 251.121094 251.695312 250.953125 249.777344 C 250.785156 247.777344 250.453125 245.941406 250.035156 245.773438 C 249.703125 245.609375 249.453125 244.605469 249.453125 243.523438 C 249.453125 242.523438 249.785156 241.269531 250.285156 240.855469 C 250.84375 240.296875 250.785156 239.046875 250.121094 237.101562 C 249.617188 235.515625 248.867188 233.429688 248.453125 232.515625 C 248.035156 231.597656 247.617188 229.511719 247.367188 227.925781 C 247.199219 226.34375 246.867188 224.089844 246.699219 222.921875 C 246.449219 221.753906 245.699219 219.585938 244.949219 218.085938 C 244.199219 216.585938 243.78125 214.332031 244.03125 212.914062 C 244.28125 211.332031 244.03125 209.996094 243.195312 209.164062 C 242.363281 208.328125 242.113281 207.078125 242.445312 205.160156 C 242.863281 203.074219 242.613281 202.074219 241.027344 200.488281 C 239.945312 199.40625 239.527344 198.738281 240.109375 199.070312 C 240.695312 199.320312 241.113281 199.070312 241.113281 198.320312 C 241.113281 197.652344 240.777344 196.402344 240.359375 195.570312 C 239.945312 194.816406 239.277344 193.402344 238.945312 192.484375 C 238.609375 191.566406 238.191406 190.230469 238.027344 189.5625 C 237.777344 188.898438 237.441406 186.394531 237.273438 184.144531 C 237.109375 181.808594 236.273438 178.640625 235.523438 177.054688 C 234.691406 175.46875 234.191406 173.886719 234.273438 173.46875 C 234.355469 173.132812 233.9375 172.21875 233.4375 171.464844 C 232.855469 170.714844 232.105469 168.382812 231.769531 166.296875 C 231.519531 164.210938 230.601562 160.792969 229.851562 158.707031 C 229.101562 156.621094 227.933594 154.371094 227.265625 153.703125 C 226.683594 153.035156 226.097656 151.617188 226.097656 150.535156 C 226.097656 149.53125 225.683594 148.53125 225.265625 148.28125 C 224.847656 148.03125 224.679688 147.199219 224.933594 146.363281 C 225.183594 145.613281 225.015625 144.695312 224.515625 144.277344 C 224.015625 143.945312 223.847656 143.027344 224.097656 142.195312 C 224.347656 141.445312 223.679688 139.523438 222.597656 137.855469 C 221.511719 136.273438 220.261719 134.1875 219.84375 133.269531 C 219.425781 132.351562 219.09375 130.851562 218.925781 129.933594 C 218.84375 129.015625 217.425781 125.765625 215.757812 122.59375 C 214.089844 119.507812 212.753906 116.425781 212.753906 115.757812 C 212.753906 115.089844 212.335938 114.003906 211.921875 113.421875 C 211.421875 112.921875 209.917969 110.917969 208.5 109.085938 C 207.082031 107.25 205.25 104.414062 204.414062 102.828125 C 203.664062 101.246094 202.164062 99.660156 201.160156 99.242188 C 199.992188 98.828125 199.578125 98.160156 199.910156 97.160156 C 200.160156 96.324219 199.660156 95.074219 198.578125 94.074219 C 197.660156 93.15625 196.824219 91.90625 196.910156 91.320312 C 196.910156 90.820312 196.242188 90.320312 195.492188 90.320312 C 194.65625 90.320312 193.570312 89.484375 193.15625 88.484375 C 192.738281 87.402344 191.488281 86.148438 190.402344 85.734375 C 189.402344 85.316406 188.566406 84.648438 188.566406 84.230469 C 188.566406 83.898438 186.066406 81.230469 182.894531 78.226562 C 179.808594 75.226562 176.640625 72.554688 175.808594 72.390625 C 175.054688 72.140625 174.390625 71.554688 174.390625 71.140625 C 174.390625 70.722656 173.890625 70.304688 173.304688 70.304688 C 172.804688 70.386719 171.804688 69.804688 171.21875 69.054688 C 170.71875 68.386719 169.71875 67.886719 169.050781 67.96875 C 168.382812 68.136719 167.632812 68.46875 167.382812 68.804688 C 167.132812 69.21875 165.964844 68.46875 164.964844 67.136719 C 163.878906 65.882812 161.960938 64.71875 160.710938 64.46875 C 159.292969 64.214844 158.125 64.46875 157.875 65.132812 C 157.375 65.96875 157.042969 65.882812 156.039062 64.96875 C 155.375 64.300781 153.789062 63.800781 152.453125 63.714844 C 151.203125 63.632812 150.203125 64.050781 150.203125 64.46875 C 150.203125 65.023438 149.644531 65.023438 148.535156 64.46875 C 147.617188 64.050781 146.449219 63.632812 146.03125 63.632812 C 145.613281 63.632812 145.03125 64.382812 144.78125 65.300781 C 144.449219 66.550781 143.945312 66.800781 142.445312 66.46875 C 141.277344 66.136719 140.277344 66.300781 139.777344 67.136719 C 139.359375 67.71875 137.359375 68.71875 135.355469 69.304688 C 133.019531 69.972656 131.6875 70.886719 131.4375 71.972656 C 131.1875 72.972656 130.351562 73.640625 129.351562 73.640625 C 128.433594 73.640625 127.683594 74.140625 127.683594 74.640625 C 127.683594 75.226562 126.015625 77.226562 124.097656 79.0625 C 122.09375 80.894531 119.257812 84.066406 117.84375 86.148438 C 116.339844 88.234375 115.171875 90.570312 115.171875 91.320312 C 115.171875 92.15625 114.757812 92.65625 114.339844 92.40625 C 113.921875 92.15625 112.921875 92.65625 112.253906 93.40625 C 111.585938 94.238281 111.253906 95.40625 111.417969 95.90625 C 111.671875 96.492188 110.917969 98.078125 109.75 99.492188 C 108.585938 100.828125 107.832031 102.578125 108.082031 103.246094 C 108.332031 103.914062 107.917969 104.664062 107.25 104.914062 C 106.582031 105.164062 106 106.164062 106 107.167969 C 106.082031 108.25 105.5 109.667969 104.746094 110.335938 C 103.996094 111.003906 103.414062 112.421875 103.496094 113.421875 C 103.496094 114.503906 103.078125 115.339844 102.664062 115.339844 C 102.246094 115.339844 101.996094 115.921875 102.246094 116.589844 C 102.496094 117.257812 102.078125 118.007812 101.410156 118.257812 C 100.660156 118.507812 100.078125 119.925781 99.910156 121.679688 C 99.828125 123.511719 100.160156 124.847656 100.746094 125.015625 C 101.328125 125.179688 101.746094 125.679688 101.746094 126.097656 C 101.660156 126.515625 100.828125 127.097656 99.828125 127.433594 C 98.824219 127.765625 98.492188 128.101562 99.074219 128.351562 C 99.660156 128.515625 100.160156 129.101562 100.160156 129.515625 C 100.160156 129.933594 99.578125 130.351562 98.910156 130.351562 C 98.242188 130.351562 97.824219 130.851562 97.992188 131.351562 C 98.160156 131.9375 97.824219 133.1875 97.15625 134.105469 C 96.492188 135.023438 95.988281 136.605469 95.988281 137.605469 C 95.988281 138.773438 96.492188 139.523438 97.242188 139.523438 C 97.910156 139.523438 98.660156 140.109375 98.910156 140.777344 C 99.160156 141.441406 99.328125 142.277344 99.328125 142.609375 C 99.410156 143.027344 98.574219 142.527344 97.660156 141.609375 C 96.742188 140.691406 95.824219 140.109375 95.738281 140.359375 C 95.574219 140.609375 94.824219 142.359375 94.070312 144.277344 C 93.238281 146.28125 92.902344 148.367188 93.238281 148.867188 C 93.488281 149.449219 93.820312 151.367188 93.820312 153.035156 C 93.90625 154.785156 93.65625 156.203125 93.238281 156.203125 C 92.902344 156.203125 92.820312 156.621094 93.070312 157.039062 C 93.320312 157.457031 92.988281 158.875 92.402344 160.042969 C 91.570312 161.792969 91.652344 162.460938 92.570312 163.960938 C 93.40625 165.296875 93.488281 165.878906 92.738281 165.960938 C 92.238281 166.128906 91.820312 166.628906 91.820312 167.046875 C 91.820312 167.464844 92.402344 167.878906 93.070312 167.878906 C 93.738281 167.878906 94.320312 168.546875 94.320312 169.296875 C 94.40625 170.550781 94.15625 170.632812 93.070312 169.714844 C 92.070312 168.882812 91.738281 168.964844 91.152344 169.964844 C 90.820312 170.632812 90.820312 171.550781 91.152344 171.882812 C 91.488281 172.21875 91.234375 173.800781 90.734375 175.386719 C 90.152344 176.972656 89.734375 181.890625 89.734375 186.226562 C 89.734375 192.816406 89.902344 194.066406 90.984375 193.902344 C 91.988281 193.652344 91.988281 193.902344 90.820312 195.152344 C 89.984375 195.984375 89.484375 197.402344 89.652344 198.320312 C 89.820312 199.238281 90.320312 200.738281 90.734375 201.65625 C 91.320312 202.824219 91.234375 203.992188 90.320312 205.828125 C 89.484375 207.578125 89.316406 208.828125 89.902344 209.996094 C 90.402344 210.914062 90.570312 212.414062 90.402344 213.332031 C 90.234375 214.25 90.070312 220.421875 90.070312 227.09375 C 90.070312 233.765625 90.234375 240.355469 90.570312 241.6875 C 90.902344 243.023438 91.402344 246.273438 91.738281 248.777344 C 92.070312 251.445312 91.902344 254.113281 91.402344 255.28125 C 90.820312 256.617188 90.820312 257.449219 91.570312 258.199219 C 92.152344 258.699219 92.402344 260.117188 92.152344 261.285156 C 91.902344 262.453125 92.238281 265.039062 92.902344 267.125 C 93.570312 269.210938 93.988281 272.296875 93.820312 273.964844 C 93.65625 275.714844 93.738281 277.132812 94.070312 277.132812 C 94.488281 277.132812 94.738281 279.132812 94.824219 281.550781 C 94.90625 283.886719 95.074219 287.472656 95.238281 289.390625 C 95.40625 291.308594 95.824219 293.144531 96.242188 293.5625 C 96.574219 293.894531 96.824219 295.0625 96.824219 296.0625 C 96.824219 297.148438 97.242188 298.148438 97.660156 298.398438 C 98.214844 298.675781 98.214844 299.371094 97.660156 300.484375 C 96.992188 301.734375 97.242188 302.820312 98.410156 304.820312 C 99.660156 306.90625 99.828125 308.074219 99.242188 309.824219 C 98.742188 311.410156 98.824219 312.910156 99.410156 314.410156 C 99.992188 315.746094 100.492188 317.496094 100.660156 318.414062 C 100.828125 319.332031 101.160156 321.667969 101.410156 323.585938 C 101.660156 325.585938 102.246094 327.171875 102.664062 327.171875 C 103.078125 327.171875 103.496094 328.171875 103.496094 329.421875 C 103.414062 330.757812 103.414062 333.007812 103.496094 334.425781 C 103.496094 335.929688 103.914062 337.179688 104.332031 337.179688 C 104.746094 337.179688 104.996094 338.011719 104.832031 339.015625 C 104.664062 340.097656 104.996094 341.433594 105.5 342.097656 C 106 342.765625 106.414062 344.851562 106.5 346.6875 C 106.582031 348.605469 106.917969 351.273438 107.25 352.609375 C 107.582031 353.941406 108.417969 355.945312 109 356.945312 C 109.667969 358.027344 109.835938 358.863281 109.335938 358.863281 C 108.777344 358.863281 108.777344 359.417969 109.335938 360.53125 C 109.890625 361.640625 109.890625 362.335938 109.335938 362.617188 C 108.835938 362.867188 109 363.78125 109.75 364.867188 C 110.417969 365.953125 110.835938 366.953125 110.585938 367.203125 C 110.335938 367.453125 110.753906 369.703125 111.503906 372.207031 C 112.253906 374.707031 113.253906 377.210938 113.589844 377.628906 C 113.921875 378.042969 114.503906 380.546875 114.757812 383.046875 C 114.921875 385.550781 115.171875 388.46875 115.171875 389.46875 C 115.171875 390.554688 116.089844 391.972656 117.339844 392.804688 C 119.09375 394.054688 119.257812 394.390625 118.175781 394.890625 C 117.175781 395.390625 117.007812 396.226562 117.339844 398.226562 C 117.589844 399.726562 118.507812 401.730469 119.34375 402.648438 C 120.175781 403.5625 120.675781 405.148438 120.511719 406.148438 C 120.34375 407.234375 120.761719 408.652344 121.429688 409.316406 C 122.09375 409.984375 122.429688 410.734375 122.011719 410.984375 C 121.679688 411.152344 121.929688 411.902344 122.429688 412.652344 C 123.011719 413.320312 123.347656 414.320312 123.097656 414.738281 C 122.847656 415.15625 123.097656 416.15625 123.511719 416.824219 C 123.929688 417.492188 124.179688 418.574219 124.015625 419.074219 C 123.847656 419.660156 124.429688 421.660156 125.265625 423.496094 C 126.183594 425.332031 126.847656 427.5 126.847656 428.25 C 126.847656 429.082031 127.433594 430.335938 128.101562 431 C 129.019531 431.917969 129.183594 433.003906 128.683594 435.171875 C 128.183594 437.839844 128.265625 438.175781 129.933594 438.507812 C 131.101562 438.757812 131.769531 439.507812 131.6875 440.34375 C 131.6875 441.175781 131.6875 442.675781 131.6875 443.679688 C 131.769531 444.761719 132.269531 445.429688 132.6875 445.179688 C 133.1875 444.929688 133.1875 445.511719 132.605469 446.597656 C 132.105469 447.679688 131.9375 449.015625 132.1875 449.515625 C 132.4375 450.101562 133.105469 450.601562 133.523438 450.601562 C 133.9375 450.601562 134.355469 450.015625 134.355469 449.347656 C 134.355469 448.683594 134.605469 448.097656 134.941406 448.097656 C 135.355469 448.097656 135.691406 449.015625 135.773438 450.183594 C 135.941406 451.601562 135.691406 452.101562 135.023438 451.601562 C 134.355469 451.210938 134.1875 451.433594 134.523438 452.269531 C 134.773438 452.9375 135.605469 453.4375 136.359375 453.269531 C 137.109375 453.1875 137.691406 453.6875 137.691406 454.351562 C 137.691406 455.105469 137.273438 455.355469 136.609375 455.019531 C 135.855469 454.605469 135.855469 454.6875 136.609375 455.6875 C 137.191406 456.355469 137.359375 457.773438 137.109375 458.941406 C 136.859375 460.109375 137.109375 462.527344 137.691406 464.359375 C 138.359375 466.195312 139.441406 468.363281 140.109375 469.199219 C 140.945312 470.117188 141.195312 471.285156 140.777344 472.285156 C 140.445312 473.367188 140.609375 474.367188 141.277344 474.953125 C 141.945312 475.535156 142.277344 476.539062 142.113281 477.039062 C 141.945312 477.621094 142.277344 478.121094 142.695312 478.121094 C 143.113281 478.121094 143.78125 478.789062 144.03125 479.539062 C 144.28125 480.375 144.699219 481.957031 144.949219 483.125 C 145.199219 484.292969 145.449219 485.628906 145.53125 486.210938 C 145.585938 486.824219 146.085938 486.878906 147.03125 486.378906 C 147.867188 485.960938 148.699219 485.128906 148.867188 484.542969 C 149.203125 483.710938 149.285156 483.710938 149.285156 484.542969 C 149.367188 485.128906 148.785156 486.210938 148.035156 486.878906 C 147.367188 487.546875 146.949219 488.128906 147.199219 488.128906 C 147.449219 488.128906 148.117188 488.296875 148.535156 488.546875 C 148.953125 488.796875 149.867188 488.964844 150.371094 488.964844 C 150.953125 488.964844 150.535156 489.796875 149.453125 490.796875 C 147.785156 492.382812 147.699219 492.882812 148.699219 493.550781 C 149.285156 493.96875 149.953125 495.71875 150.035156 497.304688 C 150.203125 498.972656 151.035156 501.054688 152.121094 502.058594 C 153.621094 503.558594 154.207031 503.726562 155.039062 502.890625 C 155.957031 502.058594 156.125 502.140625 155.707031 503.308594 C 155.457031 504.140625 154.789062 504.808594 154.371094 504.808594 C 153.957031 504.808594 153.539062 505.308594 153.539062 505.808594 C 153.539062 506.394531 154.121094 507.976562 154.871094 509.394531 C 155.625 510.8125 156.289062 513.234375 156.289062 514.984375 C 156.375 516.652344 156.707031 518.320312 157.125 518.738281 C 157.457031 519.070312 157.707031 520.070312 157.707031 520.820312 C 157.707031 521.65625 158.125 522.324219 158.542969 522.324219 C 158.960938 522.324219 159.210938 522.738281 158.960938 523.15625 C 158.710938 523.574219 159.125 524.15625 159.792969 524.40625 C 160.460938 524.65625 161.042969 525.824219 161.042969 527.078125 C 161.042969 528.410156 161.378906 529.996094 161.796875 530.664062 C 162.210938 531.328125 162.878906 531.664062 163.214844 531.328125 C 163.628906 531.078125 164.046875 531.246094 164.128906 531.746094 C 164.214844 532.332031 164.546875 533.832031 164.714844 535.25 C 164.964844 536.667969 165.632812 538.167969 166.132812 538.585938 C 166.800781 539.167969 166.964844 538.667969 166.800781 536.75 C 166.632812 535.25 166.714844 534 167.050781 534 C 167.46875 534 167.882812 534.917969 168.132812 536.082031 C 168.382812 537.417969 168.050781 538.585938 167.050781 539.417969 C 165.714844 540.585938 165.714844 540.753906 167.382812 542.171875 C 168.46875 543.003906 168.96875 544.339844 168.800781 545.425781 C 168.71875 546.507812 168.96875 547.507812 169.386719 547.757812 C 169.886719 548.011719 169.96875 548.925781 169.550781 549.84375 C 169.136719 550.929688 169.46875 552.011719 170.636719 553.265625 C 171.554688 554.265625 172.304688 555.683594 172.304688 556.515625 C 172.304688 557.351562 172.972656 558.769531 173.722656 559.769531 C 174.554688 560.6875 174.972656 561.9375 174.554688 562.4375 C 174.222656 562.9375 174.554688 563.6875 175.222656 564.105469 C 175.890625 564.4375 176.472656 565.273438 176.558594 565.855469 C 176.558594 566.441406 176.890625 568.023438 177.226562 569.441406 C 177.640625 570.859375 178.226562 572.363281 178.558594 572.777344 C 178.976562 573.195312 179.476562 575.113281 179.808594 576.949219 C 180.144531 578.785156 181.3125 581.703125 182.394531 583.371094 C 183.480469 585.121094 184.398438 586.789062 184.398438 587.125 C 184.3125 587.539062 185.066406 588.457031 186.066406 589.207031 C 186.984375 590.042969 187.566406 591.292969 187.316406 591.960938 C 187.066406 592.628906 187.484375 593.378906 188.152344 593.628906 C 188.902344 593.878906 189.652344 595.628906 189.984375 597.964844 C 190.320312 600.382812 191.320312 602.800781 192.488281 604.054688 C 193.570312 605.222656 194.65625 607.140625 194.824219 608.390625 C 195.074219 609.722656 196.742188 612.308594 198.660156 614.226562 C 200.910156 616.730469 201.746094 618.0625 201.160156 618.648438 C 200.578125 619.230469 200.746094 619.980469 201.746094 621.066406 C 202.496094 621.902344 203.164062 622.984375 203.246094 623.570312 C 203.332031 624.070312 203.414062 625.152344 203.414062 625.902344 C 203.496094 626.738281 204.164062 627.40625 204.832031 627.40625 C 205.582031 627.40625 206.332031 628.488281 206.667969 629.992188 C 207.082031 631.40625 207.835938 632.992188 208.417969 633.578125 C 209 634.078125 209.503906 634.996094 209.417969 635.496094 C 209.417969 636.078125 210.003906 636.746094 210.667969 636.996094 C 211.335938 637.246094 211.671875 637.914062 211.421875 638.414062 C 211.171875 638.996094 211.585938 640.164062 212.253906 640.914062 C 213.003906 641.75 213.339844 642.582031 212.921875 642.832031 C 212.589844 643 213.003906 644.167969 213.753906 645.335938 C 214.671875 646.585938 214.921875 647.585938 214.421875 647.835938 C 214.007812 648.085938 213.589844 648.503906 213.589844 648.839844 C 213.589844 649.253906 214.589844 650.671875 215.839844 652.007812 C 217.175781 653.425781 218.84375 655.511719 219.59375 656.59375 C 220.34375 657.761719 220.761719 659.429688 220.511719 660.347656 C 220.175781 661.429688 221.011719 663.683594 222.679688 666.351562 C 224.097656 668.769531 225.515625 670.773438 225.847656 670.773438 C 226.265625 670.773438 227.015625 672.355469 227.683594 674.273438 C 228.351562 676.277344 229.183594 678.277344 229.519531 678.695312 C 229.851562 679.113281 231.269531 681.695312 232.6875 684.28125 C 234.105469 686.953125 235.273438 689.785156 235.273438 690.539062 C 235.273438 691.371094 235.773438 692.707031 236.359375 693.457031 C 236.941406 694.289062 237.777344 694.875 238.191406 694.875 C 238.609375 694.875 239.609375 695.957031 240.277344 697.210938 C 240.945312 698.542969 241.863281 700.128906 242.445312 700.796875 C 242.945312 701.460938 243.613281 703.046875 243.949219 704.296875 C 244.199219 705.632812 245.367188 708.050781 246.53125 709.71875 C 247.699219 711.46875 249.535156 713.972656 250.535156 715.308594 C 251.539062 716.640625 253.371094 718.726562 254.625 720.058594 C 255.957031 721.394531 256.792969 722.894531 256.542969 723.3125 C 256.292969 723.730469 257.042969 724.980469 258.210938 725.980469 C 259.378906 727.066406 260.292969 728.398438 260.292969 728.902344 C 260.292969 729.625 261.046875 729.847656 262.546875 729.566406 C 263.882812 729.316406 264.382812 729.402344 263.796875 729.734375 C 262.964844 730.234375 263.546875 730.984375 265.632812 732.652344 C 267.300781 733.988281 269.21875 734.988281 269.886719 734.988281 C 270.554688 734.988281 271.136719 735.574219 271.136719 736.238281 C 271.136719 736.90625 272.054688 737.90625 273.222656 738.324219 C 274.390625 738.742188 275.308594 739.410156 275.308594 739.742188 C 275.308594 740.160156 276.726562 740.992188 278.394531 741.828125 C 280.144531 742.578125 283.148438 744.746094 285.066406 746.582031 C 287.066406 748.5 289.070312 750 289.484375 750 C 289.902344 750 291.320312 749.082031 292.570312 748 C 294.324219 746.496094 295.324219 746.164062 296.324219 746.746094 C 297.242188 747.164062 298.660156 747.164062 299.660156 746.746094 C 300.828125 746.332031 301.828125 745.078125 302.164062 743.660156 C 302.582031 741.660156 303.332031 741.078125 306.5 740.160156 C 308.585938 739.660156 310.335938 738.742188 310.335938 738.324219 C 310.335938 737.90625 312.421875 735.40625 314.921875 732.902344 C 317.84375 729.984375 319.261719 727.898438 318.925781 727.234375 C 318.425781 726.480469 318.59375 726.480469 319.425781 727.066406 C 320.179688 727.648438 320.761719 727.566406 321.261719 726.648438 C 321.597656 725.980469 322.261719 725.398438 322.597656 725.398438 C 322.929688 725.398438 325.265625 723.898438 327.683594 722.0625 C 330.1875 720.226562 332.855469 717.308594 333.773438 715.558594 C 334.605469 713.890625 335.941406 712.472656 336.609375 712.472656 C 337.277344 712.472656 337.859375 712.222656 337.859375 711.804688 C 337.859375 711.46875 340.113281 708.96875 342.863281 706.214844 C 345.617188 703.464844 348.117188 700.460938 348.453125 699.542969 C 348.703125 698.628906 349.871094 697.210938 350.953125 696.375 C 351.953125 695.625 352.871094 694.539062 352.871094 694.125 C 352.871094 693.707031 353.457031 692.621094 354.125 691.789062 C 354.875 691.039062 356.375 689.121094 357.460938 687.617188 C 358.628906 686.199219 359.542969 684.449219 359.542969 683.867188 C 359.460938 683.363281 360.296875 682.28125 361.296875 681.613281 C 362.296875 680.945312 363.132812 679.445312 363.214844 678.277344 C 363.296875 677.109375 363.714844 676.277344 364.132812 676.359375 C 364.632812 676.441406 365.882812 675.109375 367.050781 673.441406 C 368.21875 671.773438 369.554688 670.105469 370.136719 669.6875 C 370.71875 669.355469 371.222656 668.605469 371.222656 668.019531 C 371.222656 667.519531 373.890625 664.515625 377.058594 661.347656 C 380.3125 658.261719 382.898438 655.34375 382.898438 654.925781 C 382.898438 654.507812 383.480469 653.925781 384.148438 653.675781 C 384.816406 653.425781 385.398438 652.839844 385.398438 652.425781 C 385.398438 652.007812 386.652344 650.171875 388.234375 648.421875 C 389.820312 646.753906 392.65625 643.667969 394.574219 641.582031 C 396.492188 639.496094 399.246094 636.160156 400.746094 634.160156 C 402.164062 632.160156 403.246094 630.15625 403.082031 629.824219 C 402.996094 629.40625 403.332031 629.074219 403.75 629.074219 C 404.164062 629.074219 405.582031 628.070312 406.835938 626.90625 C 408.167969 625.738281 409.253906 624.070312 409.417969 623.320312 C 409.503906 622.566406 411.085938 620.648438 412.921875 619.066406 C 414.675781 617.480469 416.59375 615.144531 417.007812 613.8125 C 417.511719 612.558594 418.511719 611.558594 419.179688 611.558594 C 419.84375 611.558594 420.597656 610.808594 420.847656 609.890625 C 421.097656 608.972656 422.429688 606.972656 423.765625 605.472656 C 425.183594 603.96875 426.601562 601.382812 426.933594 599.550781 C 427.269531 597.796875 427.851562 596.128906 428.351562 595.796875 C 428.851562 595.464844 428.9375 595.878906 428.519531 596.714844 C 428.019531 598.046875 428.101562 598.046875 429.519531 597.132812 C 430.4375 596.632812 431.019531 595.878906 430.769531 595.464844 C 430.605469 595.128906 430.855469 594.878906 431.269531 594.878906 C 431.6875 594.878906 432.105469 594.378906 432.105469 593.796875 C 432.105469 593.296875 433.023438 591.710938 434.191406 590.292969 C 435.359375 588.875 436.277344 588.207031 436.277344 588.625 C 436.277344 589.042969 436.941406 588.457031 437.945312 587.125 C 438.859375 585.871094 439.613281 584.289062 439.613281 583.621094 C 439.613281 582.953125 440.027344 582.371094 440.445312 582.371094 C 440.863281 582.371094 442.03125 580.867188 442.949219 579.035156 C 444.53125 575.949219 444.53125 575.699219 443.113281 575.363281 C 442.363281 575.199219 442.949219 575.03125 444.367188 574.949219 C 446.199219 574.890625 447.117188 574.445312 447.117188 573.613281 C 447.117188 572.945312 446.617188 572.195312 446.035156 572.027344 C 445.535156 571.777344 445.699219 571.613281 446.449219 571.613281 C 447.285156 571.527344 447.953125 571.109375 447.953125 570.695312 C 447.953125 570.277344 447.535156 569.777344 447.117188 569.609375 C 446.617188 569.527344 447.035156 568.941406 447.953125 568.359375 C 449.453125 567.523438 449.535156 567.523438 449.035156 568.777344 C 448.535156 570.109375 448.621094 570.195312 449.953125 569.027344 C 450.703125 568.359375 451.371094 567.273438 451.289062 566.691406 C 451.289062 566.191406 451.539062 565.691406 451.871094 565.691406 C 452.289062 565.691406 453.207031 564.605469 453.957031 563.1875 C 455.375 560.769531 455.375 560.6875 453.957031 560.6875 C 452.707031 560.769531 452.707031 560.601562 453.789062 559.433594 C 454.457031 558.683594 455.457031 558.269531 455.875 558.433594 C 456.292969 558.601562 457.210938 558.269531 457.710938 557.601562 C 458.292969 557.015625 458.710938 555.847656 458.542969 555.015625 C 458.460938 554.265625 458.878906 553.679688 459.378906 553.765625 C 459.960938 553.929688 461.046875 553.515625 461.796875 552.929688 C 463.046875 552.011719 462.964844 551.847656 461.214844 551.347656 L 459.210938 550.84375 C 462.632812 550.679688 463.382812 550.179688 463.464844 549.175781 C 463.546875 548.425781 463.046875 547.09375 462.464844 546.257812 C 461.714844 545.425781 461.628906 544.675781 462.128906 544.425781 C 462.546875 544.171875 463.132812 544.589844 463.382812 545.257812 C 463.632812 545.925781 464.300781 546.507812 464.800781 546.507812 C 465.382812 546.507812 465.632812 546.257812 465.300781 545.925781 C 464.964844 545.589844 465.632812 544.589844 466.71875 543.757812 C 467.886719 543.007812 468.800781 541.753906 468.800781 541.089844 C 468.800781 540.421875 469.554688 539.421875 470.472656 539.003906 C 471.636719 538.417969 472.140625 537.335938 472.140625 535.25 C 472.140625 533 472.472656 532.414062 473.390625 532.75 C 474.222656 533 475.308594 532.082031 476.476562 529.996094 C 477.558594 528.328125 478.3125 526.078125 478.144531 524.992188 C 478.058594 523.824219 478.394531 523.15625 479.226562 523.15625 C 479.894531 523.15625 480.480469 523.574219 480.480469 523.992188 C 480.480469 524.410156 480.894531 524.824219 481.3125 524.824219 C 481.730469 524.824219 482.148438 524.410156 482.148438 523.992188 C 482.148438 523.574219 482.898438 522.324219 483.816406 521.238281 C 484.734375 520.238281 485.484375 519.152344 485.484375 518.738281 C 485.484375 518.402344 484.984375 518.320312 484.398438 518.570312 C 483.816406 518.820312 483.316406 518.238281 483.316406 517.152344 C 483.230469 516.070312 483.316406 515.734375 483.480469 516.234375 C 483.648438 516.820312 484.480469 517.320312 485.234375 517.320312 C 486.484375 517.320312 486.566406 517.152344 485.484375 516.570312 C 484.484375 515.984375 484.734375 515.734375 486.484375 515.316406 C 487.820312 515.066406 488.652344 514.402344 488.402344 513.984375 C 488.152344 513.566406 488.570312 512.984375 489.238281 512.734375 C 489.988281 512.484375 490.402344 511.566406 490.152344 510.398438 C 489.988281 509.3125 490.570312 507.8125 491.65625 506.8125 C 492.65625 505.8125 494.242188 504.058594 495.242188 502.808594 C 496.410156 501.558594 496.910156 500.222656 496.574219 499.554688 C 496.132812 498.886719 496.269531 498.75 496.992188 499.136719 C 497.578125 499.554688 498.410156 499.054688 498.996094 497.722656 C 499.578125 496.554688 500.246094 495.636719 500.496094 495.636719 C 500.746094 495.636719 501.832031 493.882812 503 491.714844 C 504.164062 489.464844 505.332031 487.628906 505.667969 487.464844 C 506.082031 487.378906 508.003906 484.628906 510.085938 481.457031 C 512.171875 478.289062 513.839844 475.203125 513.839844 474.785156 C 513.839844 474.371094 514.925781 472.867188 516.34375 471.449219 C 517.761719 470.03125 518.84375 468.363281 518.84375 467.699219 C 518.84375 467.03125 519.84375 465.363281 521.097656 464.027344 C 522.429688 462.695312 523.933594 460.859375 524.433594 459.859375 C 525.015625 458.859375 525.515625 457.691406 525.515625 457.273438 C 525.515625 456.855469 526.683594 454.855469 528.019531 452.851562 C 529.4375 450.933594 530.519531 449.101562 530.519531 448.683594 C 530.519531 448.347656 531.605469 446.679688 532.855469 444.929688 C 534.109375 443.261719 536.109375 440.007812 537.195312 437.839844 C 538.359375 435.671875 539.863281 433.171875 540.53125 432.421875 C 541.195312 431.585938 543.199219 428.167969 544.949219 424.746094 C 546.703125 421.328125 548.121094 418.074219 548.121094 417.660156 C 548.121094 417.242188 548.703125 416.074219 549.539062 415.238281 C 550.539062 414.074219 550.703125 413.570312 549.871094 413.40625 C 549.285156 413.238281 549.035156 412.320312 549.285156 411.402344 C 549.539062 410.488281 550.539062 409.652344 551.539062 409.484375 C 552.625 409.402344 553.457031 408.820312 553.457031 408.234375 C 553.457031 407.652344 553.875 406.902344 554.375 406.566406 C 554.875 406.234375 555.710938 405.148438 556.292969 404.066406 C 556.792969 403.0625 556.875 402.398438 556.375 402.648438 C 555.960938 402.898438 555.542969 402.648438 555.542969 402.230469 C 555.542969 401.8125 556.542969 400.480469 557.792969 399.3125 C 559.128906 398.144531 559.878906 397.226562 559.460938 397.226562 C 559.128906 397.226562 559.628906 395.808594 560.546875 394.058594 C 561.546875 392.390625 562.132812 390.804688 561.882812 390.554688 C 561.628906 390.304688 561.882812 389.386719 562.382812 388.46875 C 563.214844 386.96875 563.214844 386.886719 561.882812 388.050781 C 561.128906 388.71875 560.464844 388.886719 560.464844 388.46875 C 560.546875 388.050781 560.964844 387.21875 561.546875 386.632812 C 562.132812 386.132812 563.046875 385.800781 563.464844 386.050781 C 563.882812 386.300781 564.550781 385.300781 564.882812 383.882812 C 565.300781 382.546875 565.96875 381.546875 566.386719 381.796875 C 566.800781 382.046875 567.21875 381.796875 567.21875 381.378906 C 567.21875 380.964844 567.300781 380.128906 567.386719 379.628906 C 567.550781 379.128906 568.304688 378.292969 569.054688 377.792969 C 569.804688 377.210938 570.722656 375.542969 571.140625 373.957031 C 571.804688 371.207031 571.722656 371.121094 569.636719 371.457031 C 568.386719 371.621094 567.550781 371.539062 567.71875 371.121094 C 567.886719 370.789062 568.886719 370.539062 569.886719 370.539062 C 570.972656 370.539062 572.390625 370.207031 573.058594 369.789062 C 573.890625 369.203125 574.140625 368.453125 573.640625 367.285156 C 573.222656 366.035156 573.472656 365.367188 574.476562 364.867188 C 575.226562 364.535156 576.144531 363.367188 576.558594 362.199219 C 576.976562 360.78125 576.894531 359.78125 576.226562 359.03125 C 575.308594 358.195312 575.390625 357.945312 576.558594 358.027344 C 577.394531 358.027344 578.226562 357.445312 578.476562 356.777344 C 578.726562 356.109375 578.644531 354.859375 578.226562 354.109375 C 577.726562 352.941406 577.976562 352.859375 579.480469 353.273438 C 580.5625 353.609375 581.398438 353.527344 581.398438 353.023438 C 581.398438 352.609375 581.398438 351.941406 581.480469 351.523438 C 581.5625 351.191406 581.980469 350.191406 582.480469 349.273438 C 582.980469 348.355469 583.566406 347.355469 583.648438 346.9375 C 583.816406 346.601562 583.898438 346.101562 583.898438 345.6875 C 583.898438 345.351562 584.566406 344.351562 585.402344 343.433594 C 586.234375 342.515625 587.152344 341.097656 587.484375 340.265625 C 587.902344 339.265625 587.570312 338.765625 586.402344 338.429688 C 585.402344 338.179688 584.734375 337.347656 584.734375 336.34375 C 584.734375 335.09375 585.152344 334.761719 586.402344 335.09375 C 587.320312 335.34375 588.652344 335.011719 589.320312 334.425781 C 590.070312 333.925781 590.65625 332.757812 590.570312 331.925781 C 590.570312 331.175781 591.324219 329.257812 592.15625 327.753906 C 593.074219 326.335938 593.65625 324.585938 593.40625 324.003906 C 593.242188 323.503906 593.492188 323 593.90625 323 C 594.324219 323 594.574219 322.25 594.324219 321.332031 C 594.074219 320.417969 594.324219 319.664062 594.742188 319.664062 C 595.160156 319.664062 595.910156 318.832031 596.328125 317.746094 C 596.660156 316.746094 597.242188 314.910156 597.578125 313.578125 C 597.910156 311.910156 597.746094 311.324219 596.828125 311.324219 C 596.160156 311.324219 595.742188 310.910156 595.992188 310.492188 C 596.242188 310.074219 596.992188 309.824219 597.660156 310.074219 C 598.496094 310.324219 599.664062 309.324219 600.914062 307.324219 C 602.25 305.265625 602.691406 303.820312 602.25 302.984375 C 601.746094 302.234375 601.914062 301.316406 602.5 300.652344 C 603.082031 300.066406 603.164062 299.566406 602.664062 299.566406 C 602.25 299.566406 602.414062 299.148438 603.164062 298.566406 C 603.832031 297.980469 604.75 296.816406 605.167969 295.898438 C 605.5 294.980469 605.75 293.980469 605.75 293.5625 C 605.667969 293.230469 606 292.976562 606.417969 292.976562 C 606.835938 292.976562 607.667969 291.476562 608.085938 289.640625 C 608.671875 287.308594 608.671875 286.304688 608.085938 286.304688 C 607.585938 286.304688 608.167969 285.390625 609.335938 284.222656 C 610.503906 283.054688 611.421875 281.554688 611.421875 280.886719 C 611.421875 280.21875 611.003906 279.46875 610.589844 279.21875 C 610.171875 278.96875 609.753906 278.382812 609.753906 277.964844 C 609.753906 277.550781 610.339844 277.300781 611.003906 277.550781 C 611.671875 277.800781 612.589844 277.300781 613.007812 276.464844 C 613.425781 275.714844 613.925781 273.878906 614.089844 272.546875 C 614.175781 271.210938 615.007812 269.292969 615.84375 268.375 C 616.59375 267.457031 617.261719 266.125 617.261719 265.457031 C 617.261719 264.789062 618.179688 261.621094 619.347656 258.367188 C 620.429688 255.117188 621.179688 252.28125 621.015625 251.863281 C 620.761719 251.53125 621.015625 251.113281 621.429688 250.863281 C 621.847656 250.613281 622.265625 249.695312 622.265625 248.777344 C 622.265625 247.859375 621.515625 246.609375 620.597656 246.023438 C 619.179688 245.191406 619.09375 244.859375 619.929688 243.941406 C 620.511719 243.441406 621.679688 243.105469 622.433594 243.355469 C 623.265625 243.605469 624.433594 243.441406 624.933594 243.023438 C 625.519531 242.605469 626.019531 241.355469 625.933594 240.269531 C 625.851562 239.1875 626.519531 237.019531 627.351562 235.433594 C 628.269531 233.683594 628.6875 231.679688 628.4375 230.429688 C 628.101562 229.09375 628.351562 228.09375 629.019531 227.761719 C 629.6875 227.425781 630.273438 226.761719 630.355469 226.261719 C 630.523438 225.84375 630.605469 224.84375 630.605469 224.175781 C 630.605469 223.507812 631.105469 222.421875 631.605469 221.839844 C 632.191406 221.339844 632.773438 220.171875 632.855469 219.335938 C 633.023438 218.585938 632.605469 217.835938 632.023438 217.835938 C 631.523438 217.753906 630.523438 217.753906 629.9375 217.835938 C 629.4375 217.835938 628.769531 217.503906 628.519531 217.085938 C 628.269531 216.585938 629.1875 216.335938 630.773438 216.417969 C 633.441406 216.667969 633.523438 216.585938 633.273438 213.5 C 633.191406 211.832031 633.523438 210.414062 633.941406 210.414062 C 634.359375 210.414062 634.941406 209.582031 635.109375 208.496094 C 635.359375 207.328125 634.859375 206.160156 633.691406 205.160156 L 631.855469 203.660156 C 635.527344 204.410156 636.695312 204.160156 637.195312 203.492188 C 637.527344 202.992188 638.113281 201.574219 638.363281 200.40625 C 638.613281 199.238281 638.945312 197.570312 639.195312 196.652344 C 639.363281 195.734375 639.945312 194.234375 640.445312 193.316406 C 641.113281 191.984375 641.03125 191.316406 639.945312 190.148438 C 638.613281 188.730469 638.613281 188.648438 639.945312 188.730469 C 640.863281 188.730469 642.03125 187.5625 642.78125 185.976562 C 643.449219 184.5625 643.867188 182.808594 643.617188 182.226562 C 643.367188 181.726562 643.449219 181.140625 643.867188 180.972656 C 644.367188 180.890625 644.867188 179.140625 645.117188 177.054688 C 645.367188 174.96875 645.953125 173.21875 646.453125 173.050781 C 646.867188 172.96875 647.035156 172.300781 646.617188 171.550781 C 646.285156 170.800781 646.453125 170.050781 647.035156 169.714844 C 647.621094 169.382812 648.203125 167.964844 648.285156 166.464844 C 648.453125 165.046875 648.789062 163.542969 649.203125 163.128906 C 649.539062 162.792969 649.621094 161.292969 649.289062 159.957031 C 648.953125 158.457031 649.121094 157.207031 649.703125 156.789062 C 650.203125 156.457031 650.621094 155.203125 650.621094 153.871094 C 650.621094 152.621094 650.957031 151.203125 651.371094 150.785156 C 651.789062 150.367188 652.375 147.867188 652.625 145.363281 C 652.875 142.863281 653.707031 139.609375 654.375 138.273438 C 655.042969 136.941406 655.792969 133.6875 656.042969 131.1875 C 656.292969 128.683594 656.710938 125.429688 656.960938 124.097656 C 657.210938 122.761719 657.542969 119.925781 657.710938 117.84375 C 657.792969 115.757812 658.296875 113.339844 658.796875 112.421875 C 659.378906 111.335938 659.464844 110.503906 658.878906 109.917969 C 658.378906 109.335938 658.460938 108.25 659.128906 106.582031 C 659.628906 105.25 660.214844 98.996094 660.464844 92.824219 C 660.628906 86.652344 660.714844 80.648438 660.714844 79.480469 C 660.714844 78.3125 660.546875 74.808594 660.296875 71.554688 C 660.046875 68.304688 659.796875 65.21875 659.628906 64.632812 C 659.464844 64.132812 659.128906 63.632812 658.710938 63.632812 C 658.378906 63.632812 658.378906 62.800781 658.628906 61.714844 C 658.878906 60.714844 658.710938 58.546875 658.210938 56.960938 C 657.710938 55.375 657.128906 52.125 656.878906 49.871094 C 656.628906 47.539062 655.960938 45.117188 655.292969 44.453125 C 654.625 43.785156 653.875 42.03125 653.625 40.699219 C 653.292969 39.363281 651.957031 36.863281 650.539062 35.277344 C 649.203125 33.695312 648.203125 31.941406 648.371094 31.523438 C 648.621094 31.109375 648.285156 29.941406 647.621094 29.023438 C 647.035156 28.023438 646.703125 26.269531 646.953125 24.851562 C 647.371094 22.851562 646.953125 21.933594 645.285156 20.265625 C 644.035156 19.097656 643.117188 17.765625 643.117188 17.347656 C 643.199219 16.929688 641.863281 15.511719 640.195312 14.179688 C 638.613281 12.925781 636.859375 11.925781 636.445312 11.925781 C 636.027344 11.925781 635.441406 11.257812 635.191406 10.425781 C 635.027344 9.675781 634.191406 8.339844 633.359375 7.589844 C 632.523438 6.839844 631.355469 6.089844 630.773438 5.921875 C 630.105469 5.753906 628.355469 4.421875 626.769531 2.917969 C 624.601562 0.917969 623.515625 0.417969 622.015625 0.835938 C 621.015625 1.167969 617.511719 1.335938 614.34375 1.25 C 611.171875 1.25 607.003906 0.917969 605.167969 0.585938 C 602.332031 0 602 0.0820312 602.664062 1.085938 C 603.332031 2.085938 603.25 2.167969 602.25 1.5 C 601.582031 1.085938 599.246094 0.75 596.992188 0.667969 C 594.824219 0.667969 593.074219 0.917969 593.074219 1.25 C 593.074219 1.667969 591.988281 1.917969 590.570312 1.917969 C 589.152344 1.917969 587.988281 1.585938 587.902344 1.167969 C 587.820312 0.667969 586.984375 0.417969 586.066406 0.5 C 585.152344 0.585938 583.648438 1.085938 582.648438 1.585938 Z M 114.003906 119.925781 C 114.753906 119.257812 115.507812 118.675781 115.839844 118.675781 C 116.171875 118.675781 116.257812 119.59375 116.007812 120.761719 C 115.671875 122.179688 115.339844 122.59375 114.503906 122.011719 C 113.839844 121.429688 113.339844 121.59375 113.085938 122.429688 C 112.835938 123.097656 112.253906 123.511719 111.835938 123.261719 C 111.417969 123.011719 111.003906 122.429688 111.003906 122.011719 C 111.003906 121.59375 111.417969 121.175781 111.921875 121.175781 C 112.421875 121.175781 113.339844 120.59375 114.003906 119.925781 Z M 528.519531 134.519531 C 528.769531 133.605469 529.519531 132.851562 530.1875 132.851562 C 530.855469 132.851562 531.355469 133.101562 531.355469 133.4375 C 531.355469 133.855469 532.691406 134.019531 534.273438 133.855469 C 536.027344 133.769531 537.027344 134.019531 536.777344 134.519531 C 536.527344 134.9375 536.945312 135.523438 537.609375 135.773438 C 538.277344 136.023438 539.027344 135.605469 539.277344 134.9375 C 539.527344 134.269531 540.195312 133.9375 540.695312 134.1875 C 541.53125 134.605469 541.363281 134.9375 540.28125 135.4375 C 539.527344 135.855469 538.863281 136.773438 538.863281 137.441406 C 538.863281 138.105469 538.195312 138.691406 537.359375 138.691406 C 536.359375 138.691406 536.277344 138.523438 537.027344 138.023438 C 537.945312 137.523438 537.945312 137.273438 537.027344 136.355469 C 536.359375 135.6875 534.523438 135.1875 532.773438 135.105469 C 531.105469 135.023438 529.6875 135.1875 529.6875 135.523438 C 529.6875 135.9375 529.269531 136.1875 528.851562 136.1875 C 528.4375 136.1875 528.269531 135.4375 528.519531 134.519531 Z M 432.523438 134.9375 C 430.855469 133.769531 430.855469 133.769531 432.6875 133.6875 C 434.191406 133.6875 434.523438 134.019531 434.191406 135.355469 C 433.941406 136.273438 434.191406 137.191406 434.609375 137.441406 C 435.023438 137.691406 435.441406 137.441406 435.441406 137.023438 C 435.441406 136.605469 435.691406 136.1875 436.109375 136.1875 C 436.441406 136.1875 436.277344 136.855469 435.691406 137.605469 C 435.109375 138.441406 434.859375 139.441406 435.191406 139.859375 C 435.609375 140.277344 435.359375 140.359375 434.773438 140.109375 C 434.273438 139.773438 434.023438 139.023438 434.355469 138.523438 C 434.859375 137.773438 434.609375 137.691406 433.523438 138.105469 C 432.773438 138.441406 431.9375 138.273438 431.6875 137.855469 C 431.4375 137.441406 431.9375 136.855469 432.6875 136.605469 C 434.105469 136.1875 434.023438 136.023438 432.523438 134.9375 Z M 414.757812 147.53125 C 415.84375 147.363281 416.925781 147.199219 417.175781 147.113281 C 417.511719 147.113281 417.761719 147.949219 417.84375 149.117188 C 417.925781 150.449219 417.511719 151.199219 416.675781 151.199219 C 415.925781 151.199219 415.589844 150.699219 415.84375 149.949219 C 416.09375 149.199219 415.757812 148.699219 415.007812 148.699219 C 414.007812 148.699219 413.921875 149.117188 414.589844 150.785156 C 415.339844 152.703125 415.257812 152.785156 413.757812 152.203125 C 412.757812 151.867188 412.253906 151.117188 412.503906 150.535156 C 412.757812 150.035156 412.921875 149.117188 412.921875 148.699219 C 412.921875 148.28125 413.757812 147.699219 414.757812 147.53125 Z M 419.261719 148.03125 C 419.679688 146.78125 420.09375 147.03125 422.179688 149.28125 C 423.515625 150.785156 424.765625 152.035156 425.015625 152.035156 C 425.265625 152.035156 425.183594 151.535156 424.847656 150.949219 C 424.40625 150.285156 424.542969 150.144531 425.265625 150.535156 C 425.765625 150.949219 426.101562 151.617188 425.851562 152.035156 C 425.601562 152.453125 424.515625 152.703125 423.347656 152.453125 C 422.179688 152.203125 421.097656 152.285156 421.011719 152.617188 C 420.847656 153.035156 420.847656 152.785156 421.011719 152.203125 C 421.097656 151.703125 421.097656 150.617188 420.847656 149.949219 C 420.597656 149.28125 420.011719 148.867188 419.59375 149.117188 C 419.09375 149.367188 419.011719 148.949219 419.261719 148.03125 Z M 532.355469 152.535156 C 532.941406 152.285156 533.523438 152.117188 533.605469 152.117188 C 533.605469 152.035156 533.691406 153.453125 533.605469 155.121094 C 533.605469 156.871094 533.441406 157.621094 533.273438 156.789062 C 533.105469 155.789062 532.441406 155.453125 530.9375 155.789062 C 529.105469 156.121094 528.9375 155.953125 529.4375 154.285156 C 529.6875 153.285156 530.105469 152.953125 530.269531 153.453125 C 530.4375 154.035156 530.9375 154.535156 531.355469 154.535156 C 531.773438 154.535156 532.023438 154.121094 531.773438 153.703125 C 531.523438 153.285156 531.855469 152.703125 532.355469 152.535156 Z M 413.757812 157.871094 C 414.425781 157.457031 415.089844 157.039062 415.257812 157.039062 C 415.339844 157.039062 415.257812 157.957031 415.007812 159.125 C 414.757812 160.292969 415.007812 161.207031 415.425781 161.207031 C 415.84375 161.207031 416.257812 160.792969 416.257812 160.375 C 416.257812 159.957031 417.09375 159.375 418.09375 159.125 C 420.011719 158.707031 420.011719 158.707031 417.925781 160.625 C 416.757812 161.710938 415.675781 162.460938 415.425781 162.292969 C 415.175781 162.125 414.507812 162.542969 413.839844 163.125 C 412.839844 163.878906 412.757812 163.878906 413.171875 163.042969 C 413.507812 162.460938 413.339844 162.042969 412.671875 162.042969 C 412.003906 162.097656 412.171875 161.542969 413.171875 160.375 C 414.171875 159.289062 414.257812 158.707031 413.589844 158.707031 C 412.867188 158.707031 412.921875 158.429688 413.757812 157.871094 Z M 420.429688 157.871094 C 419.429688 157.207031 419.429688 157.039062 420.847656 157.039062 C 421.929688 157.039062 422.597656 157.621094 422.597656 158.457031 C 422.679688 159.289062 422.929688 160.625 423.265625 161.375 C 423.597656 162.460938 423.347656 162.875 422.265625 162.875 C 421.347656 162.875 421.179688 163.125 421.679688 163.628906 C 422.097656 164.042969 423.265625 164.542969 424.183594 164.710938 C 425.351562 164.878906 425.765625 165.546875 425.601562 166.628906 C 425.433594 167.546875 425.183594 168.382812 425.183594 168.546875 C 425.097656 168.632812 424.347656 168.546875 423.515625 168.296875 C 422.765625 168.046875 422.097656 167.128906 422.097656 166.210938 C 422.097656 165.296875 421.511719 164.542969 420.847656 164.542969 C 420.179688 164.542969 419.59375 163.878906 419.511719 163.042969 C 419.511719 162.292969 419.34375 162.125 419.09375 162.625 C 418.925781 163.210938 418.261719 163.460938 417.675781 163.210938 C 417.007812 162.875 417.511719 162.042969 419.179688 160.707031 C 421.261719 159.039062 421.511719 158.625 420.429688 157.871094 Z M 527.269531 158.207031 C 527.351562 157.539062 527.6875 157.121094 528.101562 157.371094 C 528.519531 157.621094 528.269531 158.789062 527.601562 159.957031 C 526.933594 161.125 526.519531 162.460938 526.769531 162.875 C 527.019531 163.292969 526.683594 164.460938 526.101562 165.378906 C 525.601562 166.296875 524.601562 167.046875 524.015625 167.046875 C 523.265625 167.046875 523.265625 166.546875 523.847656 164.960938 C 524.265625 163.792969 524.433594 162.875 524.015625 162.875 C 523.683594 162.875 524.097656 162.460938 524.851562 162.042969 C 525.851562 161.488281 526.15625 160.707031 525.765625 159.707031 C 525.351562 158.707031 525.433594 158.457031 526.183594 158.875 C 526.769531 159.289062 527.183594 159.039062 527.269531 158.207031 Z M 433.273438 167.628906 C 432.941406 166.964844 433.191406 166.546875 433.941406 166.546875 C 434.773438 166.601562 435.023438 167.1875 434.691406 168.296875 C 434.359375 169.464844 434.523438 169.796875 435.273438 169.296875 C 435.859375 168.964844 436.441406 169.132812 436.691406 169.546875 C 436.941406 169.964844 436.609375 170.550781 436.027344 170.714844 C 435.523438 170.964844 434.191406 170.964844 433.105469 170.714844 C 432.105469 170.550781 430.6875 170.882812 430.019531 171.382812 C 428.9375 172.21875 428.6875 172.21875 428.769531 171.382812 C 428.769531 170.882812 429.855469 169.964844 431.273438 169.546875 C 432.941406 168.964844 433.605469 168.296875 433.273438 167.628906 Z M 412.589844 168.796875 C 412.003906 167.964844 412.253906 167.878906 413.839844 168.714844 C 415.425781 169.546875 415.925781 169.464844 416.425781 168.546875 C 416.757812 167.964844 417.09375 167.714844 417.257812 168.046875 C 417.425781 168.296875 416.757812 169.214844 415.84375 169.882812 C 414.839844 170.714844 413.339844 171.132812 411.839844 170.800781 C 410.585938 170.550781 409.585938 169.964844 409.585938 169.546875 C 409.585938 169.046875 410.421875 168.964844 411.421875 169.296875 C 412.921875 169.714844 413.171875 169.632812 412.589844 168.796875 Z M 421.847656 174.96875 C 422.429688 173.800781 423.015625 172.882812 423.179688 172.882812 C 423.347656 172.882812 423.179688 174.300781 422.765625 175.96875 C 422.429688 177.722656 422.015625 179.222656 421.929688 179.304688 C 421.761719 179.472656 420.929688 178.972656 420.011719 178.304688 C 418.761719 177.386719 418.675781 177.136719 419.59375 177.136719 C 420.261719 177.136719 421.347656 176.136719 421.847656 174.96875 Z M 215.507812 183.058594 C 216.257812 182.140625 216.507812 182.226562 216.757812 183.476562 C 216.925781 184.308594 217.507812 185.226562 218.09375 185.5625 C 218.703125 186.003906 218.59375 186.226562 217.757812 186.226562 C 216.757812 186.144531 216.757812 186.394531 217.925781 187.644531 C 218.761719 188.5625 219.175781 189.898438 219.011719 190.980469 C 218.761719 192.066406 219.175781 193.816406 219.84375 194.984375 C 220.511719 196.152344 220.929688 197.570312 220.761719 198.070312 C 220.59375 198.65625 220.84375 200.90625 221.429688 202.992188 C 221.929688 205.078125 222.761719 207.328125 223.261719 207.996094 C 223.847656 208.664062 224.097656 210.664062 224.015625 212.5 C 223.847656 214.417969 224.265625 216.5 224.933594 217.503906 C 225.597656 218.421875 226.097656 219.835938 226.097656 220.589844 C 226.097656 221.839844 225.765625 221.921875 224.429688 221.253906 C 223.261719 220.671875 222.761719 219.585938 222.761719 217.503906 C 222.761719 215.667969 222.347656 214.417969 221.511719 214.167969 C 220.761719 213.917969 220.34375 213 220.511719 211.832031 C 220.679688 210.832031 221.011719 209.578125 221.261719 209.164062 C 221.511719 208.746094 221.179688 206.410156 220.511719 204.160156 C 219.84375 201.824219 218.761719 199.070312 218.175781 197.902344 C 217.59375 196.738281 217.257812 195.320312 217.425781 194.734375 C 217.59375 194.234375 217.34375 193.566406 216.925781 193.316406 C 216.425781 193.066406 216.507812 192.398438 217.089844 191.566406 C 218.007812 190.566406 217.925781 190.148438 217.089844 189.730469 C 216.425781 189.398438 216.007812 188.730469 216.089844 188.3125 C 216.175781 187.894531 215.507812 187.230469 214.671875 186.894531 C 213.839844 186.5625 213.671875 186.3125 214.171875 186.3125 C 214.757812 186.226562 215.089844 185.726562 214.921875 185.144531 C 214.671875 184.644531 214.921875 183.644531 215.507812 183.058594 Z M 200.246094 185.394531 C 200.246094 184.976562 200.496094 184.558594 200.828125 184.558594 C 201.246094 184.558594 201.828125 184.808594 202.164062 185.144531 C 202.578125 185.476562 203.246094 185.894531 203.664062 185.976562 C 204.082031 186.144531 205.164062 186.226562 206 186.226562 C 206.917969 186.226562 207.835938 186.980469 208.085938 188.0625 C 208.585938 189.980469 208.585938 189.980469 206.5 188.480469 C 205.332031 187.730469 203.996094 187.230469 203.582031 187.480469 C 203.164062 187.730469 202.746094 187.480469 202.746094 187.0625 C 202.746094 186.644531 202.164062 186.226562 201.496094 186.226562 C 200.828125 186.226562 200.246094 185.8125 200.246094 185.394531 Z M 548.035156 189.980469 C 549.203125 189.3125 550.453125 189.148438 550.957031 189.5625 C 551.511719 190.066406 551.289062 190.730469 550.289062 191.566406 C 549.539062 192.316406 548.871094 192.484375 548.871094 192.066406 C 548.871094 191.648438 548.203125 191.230469 547.367188 191.230469 C 546.285156 191.148438 546.453125 190.898438 548.035156 189.980469 Z M 546.867188 197.820312 C 548.203125 197.488281 549.453125 197.238281 549.703125 197.152344 C 549.953125 197.152344 549.203125 197.820312 548.035156 198.738281 C 546.867188 199.65625 545.449219 200.40625 544.867188 200.40625 C 544.367188 200.40625 543.949219 199.90625 544.117188 199.320312 C 544.28125 198.820312 545.535156 198.070312 546.867188 197.820312 Z M 539.195312 202.992188 C 539.445312 202.574219 540.113281 202.324219 540.695312 202.40625 C 541.28125 202.492188 542.28125 202.824219 542.78125 203.15625 C 543.367188 203.492188 544.367188 203.492188 544.867188 203.242188 C 545.699219 202.742188 545.699219 202.90625 544.949219 203.824219 C 544.117188 204.742188 543.699219 204.824219 542.613281 203.910156 C 541.449219 202.992188 541.113281 203.492188 540.113281 207.246094 C 539.445312 209.664062 538.363281 212.25 537.609375 212.914062 C 536.859375 213.582031 536.277344 213.917969 536.359375 213.5 C 536.359375 213.164062 536.777344 211.914062 537.277344 210.582031 C 538.109375 208.496094 538.027344 208.414062 536.695312 208.996094 C 535.277344 209.664062 535.191406 209.578125 536.359375 208.246094 C 537.027344 207.410156 538.363281 205.992188 539.277344 205.242188 C 540.28125 204.410156 540.53125 203.824219 539.863281 203.742188 C 539.363281 203.742188 539.027344 203.410156 539.195312 202.992188 Z M 533.105469 219.335938 C 533.105469 218.503906 533.191406 218.503906 533.523438 219.335938 C 533.691406 219.921875 534.273438 220.253906 534.691406 220.003906 C 535.109375 219.753906 535.527344 219.835938 535.527344 220.171875 C 535.527344 220.589844 534.773438 221.339844 533.859375 221.839844 C 532.855469 222.507812 532.191406 222.589844 532.191406 222.089844 C 532.191406 221.589844 531.605469 221.671875 530.6875 222.257812 C 529.355469 223.089844 529.1875 223.007812 529.855469 221.839844 C 530.1875 221.089844 531.105469 220.421875 531.773438 220.421875 C 532.441406 220.421875 533.023438 219.921875 533.105469 219.335938 Z M 123.847656 270.878906 C 123.347656 269.460938 123.429688 269.375 124.429688 270.292969 C 125.429688 271.210938 125.347656 271.542969 123.929688 272.546875 C 123.011719 273.210938 122.011719 273.546875 121.59375 273.378906 C 121.261719 273.128906 120.84375 273.460938 120.675781 273.964844 C 120.425781 274.546875 120.261719 274.296875 120.261719 273.378906 C 120.261719 272.046875 120.59375 271.792969 122.347656 272.128906 C 124.179688 272.460938 124.429688 272.296875 123.847656 270.878906 Z M 585.652344 302.734375 C 586.570312 301.484375 587.734375 300.484375 588.152344 300.484375 C 588.652344 300.484375 588.652344 300.902344 588.152344 301.484375 C 587.734375 302.066406 587.152344 303.652344 586.902344 305.070312 C 586.570312 306.40625 585.902344 307.824219 585.316406 308.074219 C 584.816406 308.40625 584.566406 308.992188 584.902344 309.324219 C 585.234375 309.742188 584.566406 311.074219 583.398438 312.328125 C 582.316406 313.660156 581.5625 314.910156 581.730469 315.246094 C 581.980469 315.664062 581.5625 316.996094 580.898438 318.414062 C 580.230469 319.75 579.730469 321.167969 579.730469 321.5 C 579.730469 321.917969 578.730469 323.5 577.394531 325.085938 C 576.144531 326.753906 575.644531 328.089844 576.144531 328.003906 C 576.976562 328.003906 576.976562 328.339844 576.144531 329.839844 C 575.644531 330.839844 574.640625 332.175781 574.058594 332.757812 C 573.558594 333.34375 573.058594 334.34375 573.058594 334.84375 C 573.058594 335.425781 572.472656 336.929688 571.804688 338.179688 C 570.890625 339.847656 570.804688 341.015625 571.390625 342.183594 C 572.054688 343.515625 571.972656 343.851562 570.972656 343.851562 C 570.304688 343.851562 569.722656 344.433594 569.722656 345.101562 C 569.722656 345.769531 569.304688 346.269531 568.804688 346.101562 C 568.304688 346.019531 567.71875 346.519531 567.636719 347.1875 C 567.46875 347.855469 566.96875 349.4375 566.46875 350.6875 C 565.96875 352.023438 565.300781 353.023438 564.882812 353.023438 C 564.550781 353.023438 564.214844 353.859375 564.132812 354.859375 C 563.964844 355.945312 563.046875 358.113281 561.964844 359.695312 C 560.878906 361.28125 559.796875 363.28125 559.460938 364.03125 C 559.046875 365.035156 559.378906 365.867188 560.296875 366.367188 C 561.632812 367.203125 561.632812 367.203125 560.128906 366.867188 C 558.710938 366.535156 557.878906 367.703125 554.457031 374.707031 C 552.289062 379.296875 550.621094 383.546875 550.789062 384.046875 C 550.957031 384.632812 550.371094 385.550781 549.371094 385.96875 C 548.453125 386.382812 547.785156 387.21875 547.785156 387.636719 C 547.871094 388.050781 547.535156 389.136719 547.117188 389.886719 C 546.617188 390.804688 546.703125 391.554688 547.203125 391.804688 C 547.617188 392.054688 547.871094 392.640625 547.617188 393.054688 C 547.367188 393.472656 546.617188 393.722656 545.949219 393.472656 C 545.199219 393.222656 544.03125 393.972656 543.03125 395.308594 C 542.03125 396.640625 541.28125 398.058594 541.28125 398.476562 C 541.28125 398.894531 540.78125 399.894531 540.195312 400.5625 C 539.527344 401.230469 537.027344 405.730469 534.609375 410.484375 C 532.105469 415.15625 529.605469 419.910156 529.105469 420.910156 C 528.519531 421.828125 528.019531 423.246094 528.019531 423.914062 C 528.019531 424.582031 526.683594 426.664062 525.101562 428.5 C 523.515625 430.335938 522.179688 432.503906 522.179688 433.253906 C 522.179688 434.085938 521.765625 434.921875 521.347656 435.171875 C 520.847656 435.421875 519.011719 438.339844 517.09375 441.59375 C 515.175781 444.929688 512.921875 448.683594 512.089844 449.933594 C 511.253906 451.269531 510.589844 452.933594 510.671875 453.6875 C 510.839844 454.519531 509.835938 456.1875 508.417969 457.4375 C 507 458.773438 505.75 459.605469 505.5 459.355469 C 505.25 459.191406 505.582031 458.441406 506.085938 457.6875 C 506.667969 457.023438 507 455.855469 506.75 455.1875 C 506.5 454.519531 506.835938 453.9375 507.335938 453.9375 C 507.917969 453.9375 509.503906 451.101562 510.921875 447.597656 C 512.339844 444.179688 514.257812 440.507812 515.257812 439.507812 C 516.257812 438.507812 516.925781 437.421875 516.761719 437.007812 C 516.507812 436.671875 516.675781 436.421875 517.175781 436.421875 C 517.59375 436.421875 517.84375 435.839844 517.59375 435.171875 C 517.34375 434.503906 517.425781 434.085938 517.761719 434.339844 C 518.179688 434.503906 519.011719 434.085938 519.761719 433.253906 C 520.511719 432.503906 521.847656 430.335938 522.765625 428.5 C 523.765625 426.664062 525.765625 422.496094 527.269531 419.328125 C 528.769531 416.074219 530.6875 412.738281 531.605469 411.820312 C 532.441406 410.902344 533.691406 409.152344 534.359375 407.816406 C 535.023438 406.566406 535.359375 405.316406 535.109375 404.898438 C 534.941406 404.566406 535.441406 403.398438 536.277344 402.230469 C 537.195312 401.0625 538.027344 399.5625 538.195312 398.894531 C 538.277344 398.226562 538.613281 397.476562 538.863281 397.226562 C 539.113281 396.976562 539.945312 395.808594 540.78125 394.472656 C 541.53125 393.222656 542.199219 391.636719 542.199219 390.972656 C 542.199219 390.304688 542.53125 389.71875 543.03125 389.71875 C 543.449219 389.71875 544.449219 388.300781 545.117188 386.550781 C 545.867188 384.882812 546.285156 383.046875 546.117188 382.632812 C 545.953125 382.214844 547.035156 379.796875 548.621094 377.375 C 550.121094 375.042969 551.371094 372.289062 551.371094 371.371094 C 551.371094 370.453125 551.707031 369.539062 552.207031 369.289062 C 552.625 369.039062 553.039062 368.121094 553.039062 367.203125 C 553.039062 366.285156 553.792969 364.535156 554.707031 363.199219 C 555.710938 361.949219 556.460938 360.363281 556.460938 359.695312 C 556.460938 359.03125 557.960938 355.277344 559.878906 351.355469 C 561.796875 347.4375 563.714844 343.765625 564.214844 343.101562 C 564.71875 342.433594 565.21875 341.015625 565.300781 339.929688 C 565.46875 338.847656 566.386719 336.761719 567.386719 335.261719 C 568.46875 333.84375 569.386719 331.839844 569.554688 330.925781 C 569.722656 330.007812 569.886719 328.421875 569.972656 327.339844 C 570.054688 326.335938 570.472656 325.503906 570.972656 325.503906 C 571.390625 325.503906 572.304688 324.585938 572.808594 323.417969 C 573.390625 322.25 574.226562 321.332031 574.726562 321.332031 C 575.140625 321.332031 575.390625 320.917969 575.140625 320.5 C 574.890625 320.082031 575.058594 319.664062 575.558594 319.664062 C 575.976562 319.664062 576.394531 319.082031 576.394531 318.414062 C 576.394531 317.746094 577.3125 316.164062 578.476562 314.828125 C 579.5625 313.578125 580.3125 312.410156 580.144531 312.160156 C 579.980469 311.910156 580.898438 310.492188 582.230469 308.992188 C 583.648438 307.574219 584.566406 306.070312 584.316406 305.65625 C 584.148438 305.320312 584.734375 304.070312 585.652344 302.734375 Z M 495.992188 358.195312 C 497.242188 356.777344 498.410156 355.527344 498.410156 355.527344 C 498.496094 355.527344 498.410156 356.277344 498.246094 357.195312 C 498.078125 358.113281 497.578125 358.863281 497.160156 358.863281 C 496.660156 358.863281 496.492188 359.28125 496.742188 359.695312 C 496.992188 360.113281 496.578125 360.695312 495.910156 360.949219 C 495.242188 361.199219 494.65625 361.78125 494.65625 362.199219 C 494.65625 362.617188 494.074219 363.617188 493.40625 364.285156 C 492.738281 364.949219 492.15625 365.117188 492.15625 364.699219 C 492.15625 364.285156 492.488281 363.199219 492.90625 362.363281 C 493.324219 361.613281 494.65625 359.695312 495.992188 358.195312 Z M 257.960938 362.113281 C 258.125 359.863281 258.375 359.613281 259.460938 360.53125 C 260.128906 361.113281 260.546875 362.53125 260.460938 363.78125 C 260.292969 364.949219 260.042969 365.449219 259.792969 364.867188 C 259.628906 364.367188 259.042969 364.03125 258.625 364.285156 C 258.125 364.535156 257.875 363.617188 257.960938 362.113281 Z M 201.914062 366.785156 C 201.914062 366.367188 202.328125 366.535156 202.746094 367.203125 C 203.332031 368.203125 203.746094 368.203125 204.582031 367.367188 C 205.082031 366.867188 206.5 366.367188 207.667969 366.367188 C 209.753906 366.367188 209.753906 366.367188 208.167969 367.535156 C 207.167969 368.203125 206.332031 368.371094 206.082031 367.953125 C 205.832031 367.453125 205.082031 367.703125 204.414062 368.453125 C 203.414062 369.539062 202.996094 369.539062 202.578125 368.703125 C 202.246094 368.121094 201.914062 367.203125 201.914062 366.785156 Z M 212.085938 367.117188 C 212.421875 366.785156 213.589844 367.035156 214.757812 367.535156 C 215.839844 368.035156 216.589844 368.703125 216.425781 369.035156 C 216.257812 369.453125 215.339844 369.703125 214.421875 369.703125 C 213.503906 369.703125 212.753906 370.203125 212.753906 370.703125 C 212.753906 371.289062 212.503906 371.457031 212.171875 371.121094 C 211.753906 370.703125 211.503906 369.789062 211.503906 369.035156 C 211.503906 368.285156 211.753906 367.367188 212.085938 367.117188 Z M 490.820312 369.953125 C 491.738281 368.871094 492.824219 368.035156 493.324219 368.035156 C 493.933594 368.035156 493.933594 368.257812 493.324219 368.703125 C 492.90625 369.039062 491.824219 370.707031 491.070312 372.375 C 490.320312 374.125 489.070312 375.707031 488.402344 375.960938 C 487.734375 376.210938 487.152344 376.875 487.152344 377.375 C 487.152344 377.960938 486.402344 379.378906 485.484375 380.546875 C 484.316406 381.9375 483.761719 382.214844 483.816406 381.378906 C 483.816406 380.710938 484.566406 378.960938 485.484375 377.628906 C 486.402344 376.210938 487.570312 374.375 488.152344 373.539062 C 488.738281 372.625 489.988281 371.039062 490.820312 369.953125 Z M 132.855469 371.621094 C 133.855469 370.371094 133.9375 370.371094 134.1875 371.871094 C 134.355469 372.707031 134.941406 373.957031 135.523438 374.542969 C 136.273438 375.457031 136.023438 375.542969 134.355469 375.292969 C 133.1875 375.125 132.1875 374.542969 132.019531 373.957031 C 131.9375 373.457031 132.355469 372.457031 132.855469 371.621094 Z M 562.632812 374.707031 C 562.964844 374.292969 563.464844 373.875 563.882812 373.875 C 564.382812 373.875 564.550781 374.625 564.300781 375.542969 C 564.050781 376.460938 564.214844 377.210938 564.550781 377.210938 C 564.882812 377.210938 565.632812 376.710938 566.21875 376.125 C 566.886719 375.375 567.050781 375.707031 566.636719 377.628906 C 566.300781 379.460938 566.050781 379.796875 565.550781 378.878906 C 565.21875 378.210938 564.464844 377.878906 563.964844 378.210938 C 563.382812 378.628906 562.882812 378.210938 562.632812 377.210938 C 562.382812 376.292969 562.382812 375.125 562.632812 374.707031 Z M 134.855469 381.796875 C 134.4375 380.460938 134.523438 380.460938 135.355469 381.964844 C 136.355469 383.714844 136.523438 383.714844 137.359375 382.378906 C 138.191406 381.214844 138.359375 381.628906 138.277344 384.714844 C 138.277344 387.132812 138.609375 388.386719 139.277344 388.21875 C 139.859375 388.136719 140.027344 388.800781 139.777344 390.136719 C 139.527344 391.304688 139.695312 392.386719 140.195312 392.640625 C 140.609375 392.890625 141.027344 393.640625 141.027344 394.308594 C 141.027344 395.390625 140.695312 395.390625 138.941406 394.472656 C 137.441406 393.804688 136.941406 392.972656 137.273438 391.972656 C 137.523438 391.222656 137.273438 390.46875 136.691406 390.304688 C 136.191406 390.21875 135.691406 388.636719 135.605469 386.800781 C 135.523438 384.964844 135.191406 382.714844 134.855469 381.796875 Z M 177.808594 394.808594 C 178.308594 393.890625 179.476562 393.222656 180.226562 393.304688 C 181.0625 393.390625 181.8125 393.640625 181.8125 393.890625 C 181.8125 394.140625 181.480469 395.058594 181.0625 395.976562 C 180.476562 397.390625 180.3125 397.390625 180.3125 396.140625 C 180.226562 395.390625 179.808594 394.722656 179.394531 394.722656 C 178.894531 394.722656 178.558594 395.308594 178.558594 395.976562 C 178.558594 396.640625 178.140625 397.226562 177.726562 397.226562 C 177.226562 397.226562 176.890625 397.058594 176.890625 396.808594 C 176.890625 396.558594 177.308594 395.640625 177.808594 394.808594 Z M 182.3125 398.058594 C 182.644531 397.644531 182.980469 397.226562 183.148438 397.226562 C 183.398438 397.226562 183.5625 397.726562 183.5625 398.226562 C 183.5625 398.808594 182.0625 400.144531 180.226562 401.144531 C 177.558594 402.730469 176.890625 402.8125 176.890625 401.8125 C 176.890625 401.144531 177.476562 400.5625 178.140625 400.5625 C 178.808594 400.5625 179.558594 399.976562 179.808594 399.3125 C 180.0625 398.644531 180.5625 398.226562 181.0625 398.476562 C 181.480469 398.726562 182.0625 398.476562 182.3125 398.058594 Z M 138.527344 400.980469 C 138.527344 399.144531 138.859375 398.894531 141.195312 398.976562 C 143.695312 398.976562 143.78125 399.058594 142.027344 399.8125 C 141.027344 400.226562 140.359375 400.980469 140.609375 401.394531 C 140.859375 401.8125 141.777344 402.230469 142.695312 402.230469 C 143.613281 402.230469 144.363281 402.648438 144.363281 403.0625 C 144.363281 403.480469 143.863281 403.898438 143.28125 403.898438 C 142.613281 403.898438 142.695312 404.175781 143.53125 404.730469 C 144.449219 405.316406 144.949219 405.066406 145.363281 404.0625 C 145.78125 403.148438 145.949219 403.730469 145.78125 405.566406 C 145.699219 407.734375 145.199219 408.484375 144.195312 408.484375 C 143.195312 408.484375 142.863281 408.902344 143.195312 409.734375 C 143.613281 410.820312 143.53125 410.820312 142.277344 409.734375 C 141.527344 409.066406 140.945312 407.652344 141.027344 406.566406 C 141.027344 405.566406 140.609375 404.898438 140.195312 405.148438 C 139.695312 405.398438 139.191406 404.980469 138.941406 404.316406 C 138.691406 403.648438 138.527344 402.144531 138.527344 400.980469 Z M 183.480469 401.3125 C 184.0625 401.0625 185.230469 400.980469 185.980469 401.230469 C 187.148438 401.5625 187.148438 401.730469 186.066406 402.230469 C 184.980469 402.8125 184.980469 402.898438 186.066406 403.3125 C 186.898438 403.648438 186.648438 403.8125 185.398438 403.8125 C 184.398438 403.898438 183.5625 404.398438 183.5625 404.898438 C 183.5625 405.480469 183.3125 405.648438 182.980469 405.316406 C 182.5625 404.898438 182.3125 403.980469 182.3125 403.230469 C 182.3125 402.480469 182.8125 401.5625 183.480469 401.3125 Z M 184.730469 409.066406 C 185.566406 408.066406 186.648438 407.234375 186.984375 407.234375 C 187.398438 407.234375 187.734375 407.816406 187.734375 408.484375 C 187.734375 409.152344 187.234375 409.820312 186.648438 409.984375 C 185.898438 410.234375 185.898438 410.734375 186.566406 412.320312 C 187.484375 414.15625 187.316406 414.324219 185.066406 414.324219 C 183.230469 414.324219 182.980469 414.15625 183.898438 413.488281 C 184.648438 413.070312 185.148438 411.988281 185.230469 411.152344 C 185.230469 410.320312 184.816406 409.984375 184.148438 410.320312 C 183.648438 410.570312 183.898438 410.070312 184.730469 409.066406 Z M 468.46875 414.070312 C 470.136719 411.238281 471.722656 408.984375 471.804688 409.234375 C 471.890625 409.402344 471.804688 410.402344 471.554688 411.488281 C 471.386719 412.570312 470.554688 414.238281 469.804688 415.15625 C 468.96875 416.074219 467.636719 417.40625 466.800781 418.074219 C 465.882812 418.824219 466.550781 417.15625 468.46875 414.070312 Z M 146.03125 411.152344 C 146.03125 410.652344 146.199219 410.402344 146.449219 410.734375 C 146.699219 411.152344 146.617188 411.902344 146.28125 412.402344 C 145.949219 412.988281 145.699219 414.90625 145.699219 416.65625 C 145.613281 418.324219 145.363281 419.742188 144.949219 419.742188 C 144.613281 419.742188 144.363281 419.492188 144.28125 419.074219 C 144.28125 418.742188 144.113281 417.742188 143.945312 416.824219 C 143.78125 415.90625 143.363281 414.324219 142.945312 413.238281 C 142.363281 411.652344 142.527344 411.402344 144.113281 411.820312 C 145.363281 412.070312 146.03125 411.820312 146.03125 411.152344 Z M 186.066406 416.40625 C 186.066406 415.992188 186.484375 415.574219 186.984375 415.574219 C 187.484375 415.574219 187.234375 416.324219 186.398438 417.242188 C 185.480469 418.160156 184.5625 418.660156 184.148438 418.492188 C 183.8125 418.242188 182.8125 418.660156 181.894531 419.492188 C 180.3125 420.742188 180.226562 420.742188 180.226562 419.074219 C 180.226562 417.824219 180.644531 417.40625 181.476562 417.660156 C 182.144531 417.910156 182.894531 417.660156 182.980469 417.15625 C 183.148438 416.65625 183.898438 416.492188 184.648438 416.742188 C 185.480469 416.992188 186.066406 416.824219 186.066406 416.40625 Z M 146.949219 417.824219 C 146.867188 416.824219 147.535156 416.40625 149.367188 416.40625 C 151.285156 416.40625 151.785156 416.742188 151.621094 417.824219 C 151.535156 418.660156 151.953125 419.242188 152.453125 419.074219 C 153.203125 418.992188 153.371094 419.492188 152.871094 420.660156 C 152.539062 421.660156 152.039062 422.578125 151.621094 422.746094 C 151.285156 422.914062 151.453125 423.664062 151.871094 424.332031 C 152.453125 425.246094 152.371094 425.664062 151.453125 426 C 150.785156 426.25 149.703125 425.832031 149.117188 425.164062 C 148.285156 424.078125 148.285156 423.828125 149.117188 423.914062 C 149.703125 423.914062 150.367188 423.164062 150.621094 422.246094 C 150.871094 421.246094 150.367188 419.910156 149.367188 418.910156 C 148.199219 417.742188 147.617188 417.574219 147.367188 418.242188 C 147.117188 418.824219 146.949219 418.660156 146.949219 417.824219 Z M 147.199219 421.160156 C 147.535156 420.328125 148.117188 419.828125 148.617188 420.078125 C 149.035156 420.410156 148.953125 421.246094 148.285156 422.246094 C 147.785156 423.164062 146.78125 423.914062 146.199219 423.914062 C 145.699219 423.914062 145.199219 423.078125 145.199219 421.996094 C 145.199219 420.578125 145.363281 420.410156 145.949219 421.410156 C 146.53125 422.496094 146.699219 422.410156 147.199219 421.160156 Z M 150.621094 431.417969 C 150.453125 429.5 150.621094 428.082031 151.035156 428.082031 C 151.535156 428.082031 151.871094 428.582031 151.871094 429.082031 C 151.871094 429.667969 152.371094 431.085938 153.039062 432.253906 C 154.039062 434.085938 153.957031 434.503906 152.789062 435.339844 C 151.953125 435.921875 150.953125 436.007812 150.203125 435.503906 C 149.367188 435.003906 149.285156 434.753906 149.953125 434.753906 C 150.703125 434.753906 150.953125 433.753906 150.621094 431.417969 Z M 431.269531 429.667969 C 431.105469 429.335938 431.773438 429.25 432.6875 429.5 C 433.605469 429.75 434.441406 430.167969 434.523438 430.5 C 434.609375 430.75 433.941406 431.917969 433.023438 433.085938 C 432.1875 434.253906 430.6875 436.671875 429.851562 438.507812 C 429.019531 440.34375 427.683594 442.761719 426.933594 443.929688 C 426.183594 445.097656 425.433594 447.097656 425.265625 448.515625 C 425.097656 449.933594 424.347656 451.769531 423.515625 452.683594 C 422.679688 453.601562 421.511719 455.605469 420.847656 457.023438 C 420.179688 458.523438 419.429688 459.609375 419.179688 459.355469 C 418.925781 459.105469 419.179688 458.105469 419.761719 457.023438 C 420.34375 456.019531 420.679688 454.605469 420.59375 453.9375 C 420.429688 453.269531 420.847656 452.101562 421.429688 451.433594 C 422.011719 450.765625 423.179688 448.933594 424.015625 447.429688 C 424.765625 446.011719 425.433594 444.34375 425.433594 443.929688 C 425.433594 443.511719 426.183594 442.09375 427.101562 440.757812 C 428.101562 439.507812 428.851562 437.839844 428.769531 437.007812 C 428.769531 436.257812 429.1875 435.589844 429.601562 435.589844 C 430.019531 435.589844 430.6875 434.339844 431.019531 432.835938 C 431.355469 431.417969 431.4375 429.917969 431.269531 429.667969 Z M 183.3125 430.585938 C 184.148438 430.167969 184.980469 429.75 185.230469 429.75 C 185.398438 429.75 185.980469 430.417969 186.484375 431.167969 C 187.066406 432.253906 187.066406 432.417969 186.234375 432.003906 C 185.730469 431.667969 185.066406 431.835938 184.816406 432.253906 C 184.5625 432.753906 183.648438 432.835938 182.644531 432.417969 C 181.644531 432.085938 180.644531 431.417969 180.3125 431.003906 C 180.0625 430.5 180.226562 430.417969 180.894531 430.75 C 181.394531 431.167969 182.5625 431.085938 183.3125 430.585938 Z M 457.375 435.421875 C 458.378906 433.253906 459.460938 431.753906 459.878906 432.085938 C 460.210938 432.417969 460.046875 433.753906 459.460938 435.171875 C 458.878906 436.589844 457.878906 438.089844 457.210938 438.507812 C 456.625 438.925781 456.210938 440.09375 456.460938 441.007812 C 456.710938 442.011719 456.460938 442.675781 455.792969 442.675781 C 455.042969 442.675781 454.792969 442.09375 455.125 441.007812 C 455.292969 440.09375 456.375 437.589844 457.375 435.421875 Z M 190.988281 440.34375 C 190.988281 440.007812 191.488281 439.757812 192.070312 439.757812 C 192.570312 439.757812 193.15625 440.59375 193.238281 441.59375 C 193.40625 442.679688 193.570312 443.761719 193.570312 444.09375 C 193.570312 444.511719 192.738281 444.511719 191.652344 444.179688 C 190.070312 443.679688 189.902344 443.84375 190.484375 445.179688 C 191.070312 446.515625 190.988281 446.679688 190.070312 445.847656 C 189.234375 445.011719 189.152344 444.597656 189.984375 443.511719 C 190.570312 442.84375 190.988281 442.011719 190.988281 441.59375 C 190.902344 441.261719 190.902344 440.757812 190.988281 440.34375 Z M 290.652344 444.929688 C 291.402344 444.011719 291.738281 444.011719 292.570312 445.347656 C 293.238281 446.429688 293.324219 447.765625 292.65625 450.183594 C 292.238281 452.019531 291.652344 453.9375 291.320312 454.355469 C 291.070312 454.769531 290.738281 456.855469 290.570312 458.941406 C 290.488281 461.027344 290.238281 462.777344 289.902344 462.859375 C 289.652344 463.027344 289.070312 462.945312 288.652344 462.695312 C 288.152344 462.441406 288.066406 461.527344 288.566406 460.359375 C 288.902344 459.359375 289.152344 457.605469 289.070312 456.4375 C 288.984375 455.269531 288.402344 454.4375 287.902344 454.519531 C 287.402344 454.6875 286.984375 454.1875 286.984375 453.519531 C 286.984375 452.851562 287.316406 452.269531 287.816406 452.269531 C 288.234375 452.269531 288.902344 450.851562 289.152344 449.097656 C 289.484375 447.429688 290.152344 445.511719 290.652344 444.929688 Z M 452.289062 445.761719 C 452.789062 445.261719 453.289062 444.761719 453.457031 444.761719 C 453.625 444.761719 453.789062 445.511719 453.789062 446.429688 C 453.789062 447.347656 452.707031 449.351562 451.289062 450.765625 C 449.953125 452.269531 448.785156 453.019531 448.785156 452.433594 C 448.785156 451.933594 449.121094 451.433594 449.621094 451.433594 C 450.039062 451.433594 450.703125 450.433594 450.953125 449.097656 C 451.203125 447.847656 451.789062 446.347656 452.289062 445.761719 Z M 447.035156 454.519531 C 447.617188 454.4375 448.621094 454.4375 449.121094 454.605469 C 449.785156 454.855469 449.785156 455.105469 449.121094 455.519531 C 448.703125 455.769531 447.703125 457.273438 447.035156 458.855469 C 446.367188 460.359375 445.285156 462.109375 444.617188 462.609375 C 443.78125 463.277344 443.867188 462.777344 444.949219 461.023438 C 445.785156 459.609375 446.367188 457.6875 446.199219 456.6875 C 446.035156 455.605469 446.367188 454.6875 447.035156 454.519531 Z M 503.414062 461.941406 C 504.164062 461.191406 504.917969 460.609375 505.082031 460.609375 C 505.25 460.609375 505.167969 461.441406 504.917969 462.441406 C 504.667969 463.527344 503.332031 465.695312 501.996094 467.28125 C 500.664062 468.863281 499.664062 470.617188 499.828125 471.035156 C 499.914062 471.449219 499.160156 473.453125 498.160156 475.371094 C 497.160156 477.371094 496.074219 478.957031 495.660156 478.957031 C 495.324219 478.957031 494.492188 479.957031 493.824219 481.207031 C 493.15625 482.542969 492.074219 484.042969 491.488281 484.542969 C 490.988281 485.128906 490.488281 486.546875 490.488281 487.710938 C 490.488281 489.046875 489.988281 489.882812 488.988281 490.046875 C 488.234375 490.214844 487.484375 491.214844 487.320312 492.132812 C 487.234375 493.132812 487.484375 493.800781 487.984375 493.550781 C 488.402344 493.300781 489.070312 493.550781 489.402344 494.132812 C 489.902344 494.886719 489.488281 494.96875 487.734375 494.550781 C 485.816406 494.050781 485.484375 494.21875 485.484375 495.800781 C 485.398438 496.886719 484.816406 498.136719 483.980469 498.722656 C 482.648438 499.722656 482.648438 499.722656 483.980469 499.804688 C 484.816406 499.804688 485.652344 500.054688 485.816406 500.390625 C 485.984375 500.804688 485.234375 500.972656 484.148438 500.804688 C 483.066406 500.722656 481.648438 501.308594 481.0625 502.058594 C 480.230469 503.226562 480.3125 503.390625 481.480469 502.890625 C 482.3125 502.558594 482.980469 502.722656 482.980469 503.140625 C 482.980469 503.558594 482.0625 503.976562 480.898438 503.976562 C 479.394531 503.976562 478.8125 504.390625 478.8125 505.644531 C 478.8125 506.5625 478.394531 507.3125 477.976562 507.3125 C 477.476562 507.3125 477.144531 507.894531 477.144531 508.5625 C 477.144531 509.230469 476.726562 509.648438 476.308594 509.394531 C 475.808594 509.144531 475.308594 509.5625 475.058594 510.230469 C 474.808594 510.898438 474.640625 512.566406 474.640625 513.984375 C 474.640625 516.066406 474.390625 516.402344 472.972656 516.066406 C 472.054688 515.816406 471.304688 516.066406 471.304688 516.484375 C 471.304688 516.902344 471.890625 517.570312 472.554688 517.902344 C 473.558594 518.488281 473.390625 518.820312 471.890625 519.738281 C 470.222656 520.90625 470.136719 520.820312 470.636719 519.570312 C 471.136719 518.488281 470.972656 518.320312 469.96875 518.738281 C 468.96875 519.238281 469.136719 518.402344 470.722656 515.234375 C 471.890625 512.898438 473.640625 510.3125 474.640625 509.394531 C 475.558594 508.480469 478.144531 504.140625 480.3125 499.804688 C 482.480469 495.46875 484.484375 491.800781 484.816406 491.632812 C 485.234375 491.550781 485.484375 490.882812 485.484375 490.214844 C 485.484375 489.546875 485.734375 488.964844 486.066406 488.964844 C 486.484375 488.964844 487.402344 487.878906 488.152344 486.460938 C 488.988281 485.128906 489.488281 483.960938 489.238281 483.960938 C 488.988281 483.960938 489.570312 483.125 490.488281 482.042969 C 491.40625 481.039062 492.15625 479.957031 492.15625 479.539062 C 492.15625 479.207031 492.988281 478.121094 494.074219 477.039062 C 495.160156 476.035156 496.992188 473.117188 498.246094 470.617188 C 499.410156 468.113281 500.246094 465.777344 500.078125 465.363281 C 499.828125 465.027344 500.246094 464.777344 500.914062 464.777344 C 501.582031 464.777344 502.164062 464.445312 502.082031 464.027344 C 502.082031 463.609375 502.664062 462.609375 503.414062 461.941406 Z M 412.421875 467.863281 C 412.089844 467.53125 412.339844 467.28125 412.839844 467.28125 C 413.339844 467.28125 413.921875 467.78125 414.089844 468.28125 C 414.171875 468.863281 413.507812 471.035156 412.503906 473.117188 C 411.085938 476.035156 410.503906 476.539062 410.085938 475.371094 C 409.835938 474.621094 409.835938 473.953125 410.171875 473.953125 C 410.585938 473.953125 411.253906 472.785156 411.839844 471.285156 C 412.421875 469.78125 412.671875 468.28125 412.421875 467.863281 Z M 286.648438 470.699219 C 287.984375 468.363281 288.402344 468.113281 289.320312 469.03125 C 290.238281 470.03125 290.070312 470.949219 288.234375 474.367188 C 287.066406 476.621094 286.316406 479.207031 286.566406 479.957031 C 286.816406 480.789062 286.816406 482.207031 286.566406 483.125 C 286.316406 484.042969 285.898438 484.792969 285.484375 484.792969 C 285.148438 484.792969 284.898438 483.460938 284.898438 481.707031 C 284.898438 480.039062 284.480469 478.539062 283.8125 478.371094 C 283.3125 478.289062 282.8125 478.707031 282.8125 479.371094 C 282.8125 480.039062 282.398438 480.457031 281.980469 480.207031 C 281.480469 479.957031 281.144531 479.371094 281.144531 478.957031 C 281.144531 478.539062 282.230469 477.703125 283.648438 477.289062 C 285.484375 476.703125 285.984375 476.121094 285.648438 474.953125 C 285.398438 474.203125 285.816406 472.285156 286.648438 470.699219 Z M 439.863281 469.53125 C 440.195312 468.78125 440.613281 468.113281 440.78125 468.113281 C 441.03125 468.113281 441.113281 469.03125 441.03125 470.199219 C 440.945312 471.367188 440.613281 472.285156 440.195312 472.285156 C 439.863281 472.285156 438.945312 473.617188 438.109375 475.203125 C 437.359375 476.871094 436.441406 478.121094 436.027344 478.121094 C 435.691406 478.121094 435.691406 477.289062 435.941406 476.203125 C 436.277344 475.203125 437.109375 473.617188 437.945312 472.703125 C 438.695312 471.785156 439.613281 470.367188 439.863281 469.53125 Z M 395.660156 507.3125 C 396.492188 505.394531 397.578125 504.140625 397.992188 504.390625 C 398.410156 504.644531 398.242188 505.476562 397.578125 506.226562 C 396.910156 507.0625 395.992188 508.730469 395.492188 509.980469 C 394.992188 511.316406 394.15625 512.316406 393.738281 512.316406 C 393.238281 512.316406 392.90625 511.898438 392.90625 511.480469 C 392.90625 511.0625 393.15625 510.648438 393.488281 510.648438 C 393.90625 510.648438 394.824219 509.144531 395.660156 507.3125 Z M 485.652344 508.230469 C 486.734375 507.726562 487.984375 507.394531 488.484375 507.394531 C 488.988281 507.3125 489.320312 507.894531 489.320312 508.5625 C 489.238281 509.230469 488.988281 509.8125 488.570312 509.8125 C 488.234375 509.8125 487.984375 509.3125 487.984375 508.730469 C 487.984375 508.144531 487.734375 508.0625 487.320312 508.5625 C 486.984375 508.980469 485.734375 509.480469 484.398438 509.5625 C 483.148438 509.730469 482.148438 509.394531 482.148438 508.980469 C 482.148438 508.5625 482.480469 508.3125 482.980469 508.5625 C 483.398438 508.8125 484.648438 508.644531 485.652344 508.230469 Z M 480.898438 513.148438 C 481.230469 512.730469 481.8125 512.316406 482.398438 512.398438 C 483.148438 512.398438 483.148438 512.566406 482.3125 512.816406 C 481.8125 512.984375 481.3125 513.734375 481.3125 514.398438 C 481.3125 515.152344 480.8125 515.484375 480.0625 515.234375 C 479.394531 514.984375 478.644531 515.234375 478.394531 515.652344 C 478.144531 516.066406 477.558594 516.320312 477.144531 516.066406 C 476.644531 515.816406 476.308594 515.066406 476.308594 514.398438 C 476.308594 513.484375 476.894531 513.234375 478.394531 513.566406 C 479.5625 513.816406 480.644531 513.566406 480.898438 513.148438 Z M 400.078125 524.40625 C 400.828125 523.242188 401.996094 522.324219 402.746094 522.40625 C 403.582031 522.40625 403.75 522.574219 403.082031 522.824219 C 402.582031 522.988281 402.082031 523.65625 402.082031 524.15625 C 402.164062 524.742188 401.664062 525.742188 401.078125 526.242188 C 400.496094 526.828125 399.746094 527.160156 399.328125 526.910156 C 398.996094 526.660156 399.328125 525.574219 400.078125 524.40625 Z M 463.964844 528.746094 C 464.382812 527.992188 465.050781 527.328125 465.550781 527.328125 C 466.050781 527.328125 465.882812 527.996094 465.132812 528.746094 C 463.964844 530.078125 463.964844 530.328125 465.050781 530.828125 C 465.71875 531.246094 466.132812 531.914062 465.882812 532.332031 C 465.632812 532.746094 466.050781 533.332031 466.71875 533.582031 C 467.386719 533.832031 467.96875 534.25 467.96875 534.582031 C 467.96875 535 467.46875 536 466.882812 536.917969 C 465.882812 538.335938 465.632812 538.417969 464.964844 537.335938 C 464.464844 536.417969 464.550781 536.25 465.300781 536.667969 C 465.96875 537.113281 466.300781 536.777344 466.300781 535.667969 C 466.300781 534.75 465.800781 533.75 465.132812 533.332031 C 464.550781 532.996094 463.882812 532.164062 463.632812 531.496094 C 463.382812 530.828125 463.546875 529.578125 463.964844 528.746094 Z M 459.128906 534.832031 C 459.960938 533.914062 461.214844 533.164062 461.796875 533.164062 C 462.714844 533.164062 462.796875 533.582031 462.128906 534.832031 C 461.628906 535.75 460.460938 536.5 459.378906 536.5 C 457.542969 536.585938 457.542969 536.5 459.128906 534.832031 Z M 202.496094 561.769531 C 202.828125 561.019531 203.246094 561.101562 204.246094 562.019531 C 205.414062 563.105469 205.5 563.6875 203.746094 566.941406 L 202.914062 564.855469 C 202.496094 563.6875 202.328125 562.269531 202.496094 561.769531 Z M 388.652344 561.269531 C 388.652344 560.9375 389.070312 560.6875 389.570312 560.6875 C 389.988281 560.6875 390.570312 561.269531 390.820312 561.9375 C 391.070312 562.605469 391.238281 563.355469 391.238281 563.605469 C 391.238281 563.855469 390.652344 564.023438 389.988281 564.023438 C 389.320312 564.023438 388.734375 564.4375 388.734375 564.855469 C 388.734375 565.273438 388.070312 565.691406 387.234375 565.691406 C 385.898438 565.605469 385.898438 565.605469 387.234375 564.4375 C 388.070312 563.773438 388.652344 562.9375 388.652344 562.519531 C 388.570312 562.1875 388.570312 561.6875 388.652344 561.269531 Z M 438.609375 566.609375 C 439.277344 566.191406 440.277344 566.023438 440.863281 566.273438 C 441.53125 566.523438 442.03125 567.023438 442.113281 567.441406 C 442.113281 567.859375 441.53125 568.441406 440.863281 568.777344 C 440.113281 569.191406 439.113281 569.027344 438.527344 568.359375 C 437.777344 567.523438 437.777344 567.109375 438.609375 566.609375 Z M 206.917969 570.027344 C 207 568.941406 207.5 568.191406 208.085938 568.359375 C 208.585938 568.609375 209.085938 569.777344 209.167969 570.945312 C 209.335938 572.195312 210.335938 574.195312 211.503906 575.449219 C 212.671875 576.78125 213.671875 578.03125 213.589844 578.367188 C 213.589844 578.785156 214.171875 579.699219 214.921875 580.453125 C 215.589844 581.285156 216.007812 582.453125 215.757812 582.953125 C 215.507812 583.539062 215.839844 584.539062 216.507812 585.039062 C 217.257812 585.621094 217.757812 586.707031 217.757812 587.375 C 217.757812 588.042969 218.257812 589.125 219.011719 589.625 C 219.84375 590.375 220.011719 591.125 219.511719 592.128906 C 219.011719 593.210938 219.261719 594.460938 220.59375 596.296875 C 221.511719 597.796875 222.679688 598.800781 223.179688 598.382812 C 223.597656 598.046875 223.515625 598.382812 223.011719 599.050781 C 222.179688 600.050781 222.347656 600.550781 223.679688 601.300781 C 224.515625 601.886719 225.265625 602.96875 225.265625 603.636719 C 225.265625 604.386719 224.097656 603.636719 222.347656 601.71875 C 220.761719 600.050781 219.425781 597.964844 219.425781 597.132812 C 219.425781 596.378906 218.84375 595.546875 218.175781 595.296875 C 217.425781 595.046875 217.175781 594.460938 217.507812 593.878906 C 218.007812 593.210938 217.675781 593.046875 216.257812 593.460938 C 215.257812 593.796875 214.421875 593.710938 214.421875 593.210938 C 214.421875 592.792969 214.921875 592.378906 215.421875 592.292969 C 216.257812 592.292969 216.257812 592.210938 215.421875 591.878906 C 214.921875 591.710938 214.589844 590.792969 214.839844 589.875 C 215.089844 588.957031 214.671875 587.625 214.003906 586.957031 C 213.339844 586.289062 212.921875 585.207031 213.171875 584.621094 C 213.421875 584.121094 212.753906 583.203125 211.753906 582.785156 C 210.503906 582.285156 209.753906 581.117188 209.585938 579.617188 C 209.503906 578.03125 209.085938 577.449219 208.167969 577.78125 C 207.25 578.117188 206.917969 577.617188 207 575.863281 C 207.082031 574.613281 207 573.195312 206.917969 572.777344 C 206.832031 572.363281 206.832031 571.109375 206.917969 570.027344 Z M 227.101562 612.144531 C 226.097656 610.476562 226.183594 610.226562 227.601562 610.308594 C 228.519531 610.308594 229.101562 610.558594 228.933594 610.890625 C 228.769531 611.308594 228.933594 611.558594 229.433594 611.558594 C 229.851562 611.558594 230.269531 612.144531 230.269531 612.808594 C 230.269531 613.476562 229.769531 614.0625 229.183594 614.0625 C 228.683594 614.0625 227.683594 613.226562 227.101562 612.144531 Z M 227.101562 612.144531 " fill-opacity="1" fill-rule="evenodd"/></g></svg>