<svg xmlns="http://www.w3.org/2000/svg" xmlns:xlink="http://www.w3.org/1999/xlink" width="1000" zoomAndPan="magnify" viewBox="0 0 750 749.999995" height="1000" preserveAspectRatio="xMidYMid meet" version="1.0"><path fill="#29abe2" d="M 32.605469 240.03125 C 40.839844 239.597656 48.890625 236.855469 57.007812 235.511719 C 65.28125 234.148438 73.613281 233.257812 81.9375 232.226562 C 98.953125 230.121094 116.109375 228.464844 132.972656 225.238281 C 142.648438 223.386719 140.410156 207.757812 130.65625 208.113281 C 103.503906 209.09375 74.964844 200.035156 48.773438 210.847656 C 45.359375 212.257812 42.734375 214.472656 42.261719 218.40625 C 41.871094 221.679688 43.300781 225.992188 46.605469 227.464844 C 62.75 234.660156 81.054688 228.425781 97.375 224.925781 C 109.394531 222.347656 129.273438 220.667969 129.734375 204.476562 C 129.8125 201.542969 127.992188 197.757812 125.175781 196.523438 C 105.542969 187.898438 85.632812 192.652344 65.242188 195.121094 C 66.066406 201.191406 66.878906 207.25 67.703125 213.316406 C 81.839844 207.535156 96.660156 203.238281 111.414062 199.359375 C 121.707031 196.640625 134.472656 192.359375 134.570312 179.574219 C 134.597656 175.242188 131.609375 171.96875 127.726562 170.59375 C 112.992188 165.371094 96.589844 169.429688 82.113281 173.59375 C 70.515625 176.9375 75.378906 194.042969 87.074219 191.574219 C 98.433594 189.171875 111.445312 187.605469 120.03125 178.9375 C 123.207031 175.730469 123.21875 171.488281 121.492188 167.636719 C 119.5 163.203125 115.5 160.300781 110.804688 159.339844 C 108.863281 158.949219 106.964844 158.949219 105.011719 159.039062 C 104.285156 159.066406 103.40625 159 102.6875 159.164062 C 102.394531 159.164062 102.109375 159.15625 101.816406 159.15625 C 103.511719 159.15625 104.945312 159.929688 106.101562 161.46875 C 106.101562 164.605469 106.101562 167.753906 106.101562 170.890625 C 109.972656 165.871094 113.816406 160.820312 116.609375 155.105469 C 118.921875 150.382812 120.039062 144.402344 123.078125 140.148438 C 128.765625 132.195312 140.558594 127.226562 140.558594 115.796875 C 140.558594 105.050781 126.070312 102.050781 117.882812 102.128906 C 109.648438 102.21875 98.648438 104.199219 93.171875 111.042969 C 88.132812 117.335938 91.191406 126.597656 99.789062 127.011719 C 112.777344 127.636719 138.804688 117.855469 129.394531 100.867188 C 127.855469 98.089844 124.558594 96.171875 121.375 96.269531 C 110.804688 96.589844 107.679688 107.207031 106.53125 115.894531 C 105.160156 126.277344 105.511719 136.871094 106.503906 147.285156 C 107.34375 156.164062 107.984375 166.496094 112.128906 174.625 C 114.355469 178.988281 118.167969 183.105469 123.207031 183.828125 C 129.382812 184.722656 133.832031 180.4375 135.8125 175.007812 C 137.449219 170.515625 137.726562 165.507812 138.226562 160.800781 C 138.332031 159.773438 138.441406 158.734375 138.550781 157.703125 C 138.609375 157.214844 138.667969 156.714844 138.714844 156.222656 C 138.960938 153.890625 138.480469 157.519531 138.695312 156.28125 C 138.84375 155.460938 139.117188 154.546875 139.175781 153.714844 C 139.195312 153.460938 139.441406 153.078125 139.429688 152.824219 C 139.527344 154.753906 134.871094 157.460938 134.128906 157.683594 C 131.128906 156.890625 128.136719 156.097656 125.136719 155.3125 C 127.128906 157.78125 125.117188 166.195312 124.6875 169.339844 C 123.414062 178.644531 122.648438 187.761719 123.136719 197.171875 C 123.71875 208.121094 139.675781 208.171875 140.195312 197.171875 C 140.667969 187.125 142.195312 177.203125 143.46875 167.242188 C 144.625 158.203125 144.15625 149.585938 138.207031 142.265625 C 136.234375 139.84375 132.089844 139 129.214844 139.890625 C 120.707031 142.527344 120.667969 152.351562 119.933594 159.644531 C 119.757812 161.351562 119.589844 163.058594 119.394531 164.753906 C 119.179688 166.617188 119.640625 163.527344 119.304688 165.300781 C 119.160156 166.085938 119.039062 166.878906 118.855469 167.65625 C 118.699219 168.332031 118.460938 168.988281 118.296875 169.664062 C 118.539062 168.613281 119.246094 168.214844 118.421875 169.183594 C 120.933594 166.234375 124.746094 165.253906 128.363281 166.65625 C 131.382812 167.820312 129.324219 167.234375 129.050781 167.144531 C 128.460938 166.949219 128.550781 166.527344 129.136719 167.339844 C 128.824219 166.898438 128.578125 166.410156 128.265625 165.96875 C 127.597656 165.015625 128.882812 168.175781 128.363281 166.203125 C 128.019531 164.898438 127.558594 163.636719 127.234375 162.320312 C 126.835938 160.695312 126.511719 159.046875 126.214844 157.390625 C 126.058594 156.539062 125.921875 155.683594 125.796875 154.832031 C 125.707031 154.234375 125.609375 153.636719 125.53125 153.039062 C 125.316406 151.488281 125.6875 154.292969 125.492188 152.695312 C 124.414062 143.871094 123.875 134.929688 124.15625 126.039062 C 124.226562 123.757812 124.402344 121.5 124.589844 119.226562 C 124.765625 117.058594 124.460938 119.5 124.726562 118.039062 C 124.875 117.199219 125.011719 116.355469 125.207031 115.519531 C 125.402344 114.679688 125.714844 113.855469 125.894531 113.011719 C 126.316406 111.089844 125.257812 113.933594 125.902344 112.941406 C 127.089844 111.121094 124.804688 113.824219 125.726562 113.0625 C 124.078125 114.414062 123.019531 114.855469 121.375 114.882812 C 118.699219 113.355469 116.019531 111.816406 113.355469 110.285156 C 112.101562 107.953125 113.082031 106.050781 114.148438 104.109375 C 113.421875 105.445312 115.0625 103.6875 113.640625 104.503906 C 113.355469 104.667969 110.414062 106.089844 111.816406 105.503906 C 110.777344 105.933594 109.6875 106.277344 108.609375 106.609375 C 106.542969 107.246094 104.453125 107.667969 102.355469 108.140625 C 99.855469 108.699219 103.148438 107.855469 101.628906 108.277344 C 101.082031 108.433594 100.367188 108.363281 99.796875 108.335938 C 102.003906 113.660156 104.207031 118.980469 106.414062 124.304688 C 107.84375 122.519531 106.179688 124.011719 107.472656 123.199219 C 107.609375 123.109375 109.945312 122.03125 108.648438 122.539062 C 110.679688 121.726562 113.835938 121.117188 115.128906 120.992188 C 116.414062 120.863281 117.707031 120.835938 119 120.855469 C 120.382812 120.882812 120.902344 120.914062 121.207031 120.960938 C 122.265625 121.136719 123.355469 121.679688 124.402344 121.785156 C 123.5 121.394531 123.5 121.433594 124.421875 121.914062 C 123.863281 121.578125 123.441406 121.117188 123.167969 120.53125 C 122.855469 118.128906 122.539062 115.726562 122.226562 113.335938 C 121.402344 116.5625 118.277344 118.921875 115.707031 121.257812 C 112.226562 124.414062 108.777344 127.628906 106.40625 131.746094 C 103.726562 136.382812 102.5625 141.726562 100.140625 146.46875 C 97.386719 151.882812 93.699219 156.695312 90.015625 161.488281 C 87.984375 164.125 88.59375 168.214844 90.015625 170.910156 C 92.386719 175.417969 96.914062 177.574219 101.835938 177.828125 C 103.199219 177.898438 104.621094 177.800781 105.984375 177.652344 C 107.433594 177.496094 107.023438 178.054688 106.765625 177.488281 C 106.511719 176.890625 104.179688 174.351562 105.394531 177.066406 C 105.886719 173.300781 106.367188 169.527344 106.855469 165.761719 C 101.40625 171.28125 89.828125 171.988281 82.140625 173.613281 C 83.796875 179.605469 85.445312 185.605469 87.101562 191.59375 C 98.464844 188.320312 111.1875 184.457031 122.804688 188.585938 C 120.519531 185.59375 118.246094 182.59375 115.960938 179.605469 C 115.972656 177.988281 118.34375 176.949219 115.933594 178.308594 C 114.542969 179.09375 113.589844 179.4375 111.6875 180.015625 C 107.925781 181.183594 104.0625 182.085938 100.269531 183.171875 C 87.613281 186.78125 74.957031 190.386719 62.789062 195.484375 C 58.535156 197.269531 55.410156 200.699219 56.152344 205.652344 C 56.761719 209.71875 60.625 214.289062 65.25 213.679688 C 81.121094 211.613281 100.464844 205.640625 115.894531 212.445312 C 114.375 209.796875 112.855469 207.152344 111.335938 204.496094 C 111.375 203.808594 111.5625 203.160156 111.894531 202.554688 C 112.628906 201.679688 112.609375 201.632812 111.863281 202.398438 C 112.628906 201.796875 112.550781 201.796875 111.621094 202.417969 C 111.070312 202.71875 110.511719 203.003906 109.945312 203.269531 C 110.796875 202.898438 107.726562 203.945312 107.316406 204.0625 C 105.953125 204.457031 104.582031 204.789062 103.199219 205.09375 C 98.992188 206.023438 94.71875 206.574219 90.515625 207.523438 C 84.296875 208.925781 78.132812 210.523438 71.847656 211.59375 C 66.925781 212.425781 59.320312 213.308594 55.792969 211.777344 C 55.066406 217.316406 54.339844 222.855469 53.625 228.382812 C 78.230469 218.003906 105.003906 226.609375 130.675781 225.5625 C 129.902344 219.855469 129.128906 214.140625 128.363281 208.433594 C 112.414062 211.574219 96.199219 213.289062 80.082031 215.367188 C 71.828125 216.425781 63.554688 217.414062 55.332031 218.738281 C 51.292969 219.386719 47.253906 220.109375 43.261719 221.003906 C 39.761719 221.789062 36.195312 223.246094 32.636719 223.628906 C 28.226562 224.101562 24.421875 227.0625 24.421875 231.84375 C 24.390625 236.089844 28.15625 240.265625 32.605469 240.03125 Z M 32.605469 240.03125 " fill-opacity="1" fill-rule="nonzero"/><path fill="#29abe2" d="M 179.710938 234.296875 C 179.378906 237.355469 178.410156 236.109375 179.46875 235.855469 C 178.613281 236.058594 180.535156 235.089844 180.722656 234.972656 C 182.28125 233.953125 183.925781 233.082031 185.445312 231.992188 C 189.4375 229.128906 192.996094 224.925781 192.359375 219.640625 C 191.742188 214.550781 188.839844 211.511719 183.652344 210.933594 C 174.625 209.933594 164.96875 218.972656 159.761719 225.316406 C 153.429688 233.011719 147.617188 246.148438 158.332031 253.214844 C 168.214844 259.734375 180.035156 252.019531 188.496094 246.617188 C 200.777344 238.777344 212.574219 229.464844 225.609375 222.914062 C 220.984375 220.257812 216.355469 217.601562 211.71875 214.945312 C 211.796875 215.867188 211.847656 215.425781 211.847656 215.433594 C 211.25 216.257812 210.914062 216.972656 210.464844 217.542969 C 208.613281 219.894531 206.179688 221.90625 203.898438 223.828125 C 199.660156 227.375 195.28125 230.667969 191.152344 234.34375 C 185.59375 239.304688 180.328125 244.714844 174.476562 249.324219 C 168.929688 253.6875 162.273438 258.527344 160.988281 265.988281 C 159.859375 272.539062 165.066406 279.605469 172.351562 277.351562 C 191.082031 271.546875 206.964844 260.304688 223.03125 249.441406 C 240.226562 237.816406 257.707031 226.609375 274.910156 214.984375 C 271.136719 210.09375 267.371094 205.210938 263.597656 200.316406 C 252.636719 211.472656 240.453125 221.257812 228.492188 231.296875 C 216.769531 241.128906 205.75 251.558594 195.269531 262.707031 C 188.164062 270.253906 181.289062 278.097656 174.910156 286.273438 C 169.613281 293.046875 160.417969 304.527344 166.566406 313.386719 C 168.851562 316.679688 173.09375 319.140625 177.230469 317.730469 C 189.5625 313.496094 200.839844 307.191406 211.90625 300.386719 C 222.289062 294.015625 233.609375 288.113281 241.738281 278.832031 C 249.714844 269.722656 237.109375 256.765625 228.324219 265.421875 C 212.945312 280.597656 200.328125 298.164062 186.054688 314.320312 C 179.535156 321.691406 171.917969 327.925781 166.300781 336.082031 C 162.636719 341.394531 157.019531 346.984375 155.8125 353.539062 C 154.8125 358.972656 157.292969 363.324219 162.476562 365.273438 C 172.742188 369.128906 182.535156 360.324219 190.0625 354.667969 C 188.984375 355.480469 190.800781 354.160156 190.984375 354.019531 C 191.964844 353.304688 192.9375 352.570312 193.878906 351.816406 C 195.386719 350.601562 196.828125 349.316406 198.269531 348.023438 C 199.820312 346.648438 201.347656 345.179688 202.984375 343.925781 C 203.867188 343.246094 205.003906 342.765625 205.816406 342.03125 C 206.757812 341.179688 206.757812 341.660156 205.210938 341.835938 C 202.957031 336.394531 200.699219 330.953125 198.445312 325.515625 C 189.878906 336.257812 180.242188 346.570312 174.457031 359.199219 C 173.644531 360.980469 172.949219 362.816406 172.164062 364.609375 C 172.910156 362.914062 171.46875 366.050781 171.488281 366.011719 C 170.398438 368.324219 169.273438 370.609375 168.234375 372.929688 C 165.839844 378.285156 163.3125 383.921875 163.449219 389.910156 C 163.578125 395.832031 169.515625 401.203125 175.59375 399.164062 C 184.171875 396.28125 189.78125 391.097656 195.679688 384.507812 C 191.820312 385.007812 187.957031 385.507812 184.09375 386.007812 C 186.054688 386.921875 183.308594 385.222656 182.761719 384.3125 C 182.191406 383.363281 181.957031 382.234375 181.90625 381.136719 C 181.96875 382.625 181.722656 379.578125 182.09375 380.3125 C 182.183594 380.488281 181.859375 381.207031 181.800781 381.390625 C 181.4375 382.527344 182.652344 379.675781 182.066406 380.851562 C 181.632812 381.707031 181.203125 382.546875 180.703125 383.363281 C 180.074219 384.402344 179.378906 385.390625 178.671875 386.390625 C 178.289062 386.941406 177.976562 387.332031 178.566406 386.566406 C 178.191406 387.046875 177.800781 387.527344 177.417969 388 C 175.671875 390.097656 173.859375 392.136719 171.996094 394.117188 C 166.488281 399.976562 160.371094 405.175781 154.722656 410.878906 C 146.175781 419.527344 159.507812 432.867188 168.066406 424.222656 C 175.3125 416.898438 183.242188 410.390625 189.964844 402.527344 C 196.898438 394.417969 208.972656 376.6875 193.730469 369.492188 C 190.015625 367.734375 185.132812 367.675781 182.144531 370.992188 C 178.613281 374.890625 175.585938 378.941406 170.476562 380.667969 C 174.527344 383.753906 178.574219 386.832031 182.625 389.921875 C 182.605469 389.222656 182.839844 387.882812 183.554688 385.765625 C 184.203125 383.851562 185.035156 382.039062 185.886719 380.207031 C 187.878906 375.949219 189.671875 371.589844 191.710938 367.363281 C 196.820312 356.804688 204.730469 348.140625 211.964844 339.042969 C 214.40625 335.972656 215.632812 332.433594 213.945312 328.59375 C 212.554688 325.433594 208.964844 322.277344 205.210938 322.710938 C 195.269531 323.867188 188.703125 331.277344 181.4375 337.445312 C 180.027344 338.640625 181.742188 337.21875 181.027344 337.757812 C 180.449219 338.1875 179.859375 338.621094 179.28125 339.0625 C 177.164062 340.667969 175.832031 341.796875 173.878906 343.1875 C 172.242188 344.363281 170.546875 345.589844 168.734375 346.472656 C 165.878906 347.863281 169.683594 346.246094 166.9375 347.140625 C 167.546875 346.945312 169.371094 347.582031 167.535156 346.894531 C 169.761719 350.804688 171.976562 354.71875 174.203125 358.628906 C 174.371094 357.71875 174.332031 358.109375 173.957031 358.6875 C 174.429688 357.960938 174.773438 357.148438 175.222656 356.414062 C 176.046875 355.050781 176.976562 353.757812 177.898438 352.472656 C 179.664062 350.023438 181.398438 347.542969 183.171875 345.089844 C 188.445312 337.777344 195.957031 331.953125 201.859375 325.113281 C 215.171875 309.691406 227.21875 293.203125 241.738281 278.851562 C 237.265625 274.378906 232.796875 269.910156 228.324219 265.441406 C 221.25 273.539062 211.386719 278.5 202.347656 284.066406 C 192.710938 289.996094 182.949219 295.839844 172.203125 299.535156 C 175.761719 300.988281 179.308594 302.425781 182.867188 303.878906 C 183.78125 305.191406 183.339844 306.613281 183.367188 308.015625 C 183.347656 307.367188 184.085938 305.917969 183.449219 307.386719 C 184.183594 305.671875 185.242188 304.066406 186.261719 302.515625 C 188.574219 299.015625 189.125 298.417969 191.730469 295.320312 C 199.179688 286.488281 206.730469 277.832031 214.777344 269.539062 C 234.238281 249.5 257.265625 233.492188 276.78125 213.550781 C 283.96875 206.210938 274.5 192.769531 265.46875 198.886719 C 248.746094 210.230469 231.765625 221.199219 215.023438 232.5 C 199.9375 242.6875 185.027344 254.078125 167.429688 259.558594 C 171.214844 263.34375 175.007812 267.136719 178.789062 270.921875 C 179.449219 267.105469 186.75 263.195312 190.125 260.253906 C 196.699219 254.519531 202.808594 248.246094 209.582031 242.738281 C 217.90625 235.960938 231.296875 227.382812 230.179688 214.964844 C 229.542969 207.835938 222.875 203.679688 216.289062 206.996094 C 205.808594 212.277344 196.730469 219.707031 186.90625 226.042969 C 181.152344 229.746094 174.027344 235.21875 167.976562 237.226562 C 165.644531 238 166.222656 237.21875 168.066406 238.128906 C 169.371094 238.777344 169.929688 240.257812 170.222656 241.597656 C 170.398438 242.402344 170.605469 241.167969 170.085938 242.53125 C 170.152344 242.34375 170.773438 240.414062 170.339844 241.375 C 169.910156 242.355469 170.898438 240.285156 171.007812 240.109375 C 171.496094 239.257812 172.859375 237.257812 172.976562 237.109375 C 174.839844 234.777344 178.125 231.679688 179.761719 230.511719 C 180.9375 229.667969 182.183594 228.882812 183.496094 228.277344 C 184.496094 227.816406 182.210938 228.53125 183.742188 228.246094 C 185.527344 227.925781 181.957031 228.21875 183.652344 228.355469 C 180.859375 226.226562 178.054688 224.101562 175.261719 221.964844 C 174.773438 220.226562 175.015625 218.808594 175.988281 217.679688 C 176.398438 217.191406 176.28125 217.277344 175.644531 217.933594 C 176.632812 217.710938 174.929688 218.394531 174.515625 218.667969 C 172.871094 219.738281 171.253906 220.796875 169.695312 222.003906 C 165.585938 225.1875 163.292969 229.070312 162.878906 234.304688 C 162.519531 238.84375 167.007812 242.714844 171.292969 242.714844 C 176.25 242.71875 179.222656 238.835938 179.710938 234.296875 Z M 179.710938 234.296875 " fill-opacity="1" fill-rule="nonzero"/><path fill="#000000" d="M 121.628906 85.917969 C 98.394531 107.277344 82.601562 135.019531 63.152344 159.5 C 58.449219 165.417969 53.910156 171.410156 50.105469 177.957031 C 46.300781 184.488281 42.800781 191.09375 38.359375 197.21875 C 30.097656 208.632812 21.804688 219.964844 13.785156 231.53125 C 7.570312 240.5 0.765625 252.382812 7.617188 262.902344 C 11.1875 268.382812 16.53125 272.164062 21.292969 276.507812 C 27.019531 281.722656 31.863281 288.054688 37.058594 293.792969 C 47.164062 304.976562 57.457031 315.476562 65.769531 328.140625 C 74.023438 340.71875 80.308594 354.226562 87.375 367.453125 C 95.492188 382.65625 105.484375 396.800781 116.335938 410.171875 C 121.589844 416.652344 126.304688 423.074219 130.667969 430.191406 C 135.019531 437.289062 139.5 444.296875 145.363281 450.257812 C 152.558594 457.582031 163.703125 446.40625 156.617188 439.003906 C 147.136719 429.101562 141.558594 416.328125 132.953125 405.734375 C 123.667969 394.3125 114.609375 382.941406 106.894531 370.363281 C 99.386719 358.109375 93.671875 344.914062 86.523438 332.453125 C 79.523438 320.257812 71.476562 308.605469 62.113281 298.09375 C 57.09375 292.46875 51.753906 287.144531 46.703125 281.539062 C 41.929688 276.234375 37.441406 270.460938 32.144531 265.65625 C 29.773438 263.5 27.246094 261.519531 24.882812 259.363281 C 23.363281 257.96875 20.648438 255.980469 20.03125 253.882812 C 19.097656 250.746094 22.824219 245.550781 24.507812 242.875 C 31.214844 232.285156 38.695312 222.128906 46.144531 212.0625 C 50.535156 206.140625 54.859375 200.238281 58.507812 193.820312 C 62.066406 187.546875 65.417969 181.222656 69.652344 175.351562 C 74.359375 168.820312 79.632812 162.703125 84.25 156.105469 C 89.023438 149.292969 93.386719 142.214844 98.238281 135.453125 C 108.34375 121.363281 119.433594 108.109375 130.792969 95.03125 C 136.195312 88.808594 127.804688 80.238281 121.628906 85.917969 Z M 121.628906 85.917969 " fill-opacity="1" fill-rule="nonzero"/><path fill="#000000" d="M 126.195312 91.855469 C 131.894531 92.191406 135.019531 94.53125 138.726562 98.679688 C 143.167969 103.648438 148.675781 106.90625 153.519531 111.375 C 158.558594 116.019531 163.175781 120.648438 168.703125 124.757812 C 174.410156 129.011719 179.613281 133.65625 184.761719 138.570312 C 190.261719 143.8125 195.9375 148.636719 202.074219 153.125 C 208.171875 157.585938 213.238281 163.261719 219.023438 168.09375 C 224.40625 172.585938 228.640625 177.300781 232.972656 182.800781 C 237.070312 188.003906 241.953125 192.269531 246.667969 196.886719 C 250.558594 200.699219 255.785156 205.308594 255 211.296875 C 254.097656 218.160156 250.292969 225.011719 247.921875 231.460938 C 242.296875 246.734375 237.875 262.5 231.503906 277.488281 C 225.21875 292.273438 217.886719 306.632812 212.789062 321.898438 C 207.789062 336.886719 202.101562 351.382812 195.132812 365.578125 C 187.035156 382.078125 179.761719 398.890625 172.625 415.828125 C 169.195312 423.964844 165.597656 431.730469 160.820312 439.171875 C 157.339844 444.601562 153.617188 450.492188 152.941406 457.011719 C 152.5 461.277344 156.902344 464.945312 160.871094 464.945312 C 165.527344 464.945312 168.351562 461.296875 168.800781 457.011719 C 168.695312 457.992188 169.535156 455.816406 169.675781 455.523438 C 170.320312 454.210938 171.074219 452.953125 171.8125 451.699219 C 173.359375 449.050781 175.035156 446.515625 176.691406 443.945312 C 181.28125 436.828125 184.308594 428.664062 187.59375 420.898438 C 194.222656 405.242188 200.964844 389.675781 208.503906 374.429688 C 215.964844 359.335938 222.425781 343.855469 227.589844 327.828125 C 232.609375 312.269531 240.058594 297.691406 246.375 282.644531 C 253.058594 266.734375 257.746094 250.058594 263.726562 233.875 C 266.382812 226.679688 269.871094 219.589844 270.605469 211.855469 C 271.34375 204.179688 268.039062 197.699219 263.324219 191.90625 C 259.136719 186.761719 253.972656 182.585938 249.304688 177.898438 C 244.335938 172.898438 240.699219 166.742188 235.621094 161.851562 C 230.070312 156.5 223.90625 151.480469 218.089844 146.371094 C 212.191406 141.1875 205.535156 137.019531 199.710938 131.726562 C 193.320312 125.921875 187.222656 119.84375 180.261719 114.699219 C 177.339844 112.542969 174.292969 110.550781 171.496094 108.226562 C 168.410156 105.660156 165.761719 102.621094 162.664062 100.070312 C 159.65625 97.601562 156.320312 95.613281 153.273438 93.210938 C 150.390625 90.945312 148.144531 87.996094 145.363281 85.621094 C 139.773438 80.867188 133.539062 78.742188 126.195312 79.191406 C 118.058594 79.691406 118.039062 91.375 126.195312 91.855469 Z M 126.195312 91.855469 " fill-opacity="1" fill-rule="nonzero"/><path fill="#000000" d="M 156.578125 440.503906 C 155.890625 440.59375 155.203125 440.691406 154.519531 440.777344 C 152.175781 441.09375 150.363281 443.515625 149.714844 445.582031 C 147.785156 451.71875 149.429688 457.914062 148.871094 464.167969 C 148.273438 470.863281 146.636719 477.441406 146.617188 484.1875 C 146.578125 496.488281 151.195312 509.339844 155.773438 520.625 C 165.292969 544.113281 179.671875 563.925781 200.035156 579.128906 C 219.289062 593.511719 242.277344 602.039062 266.265625 603.53125 C 290.46875 605.03125 315.847656 599.894531 338.414062 591.355469 C 350.03125 586.953125 361.324219 581.550781 371.667969 574.621094 C 382.664062 567.25 392.617188 558.808594 404.371094 552.535156 C 417.289062 545.644531 429.761719 544.09375 444.191406 543.4375 C 450.699219 543.132812 457.1875 542.476562 463.707031 543.015625 C 470.785156 543.605469 477.757812 545.4375 484.5 547.59375 C 496.488281 551.425781 507.332031 556.554688 517.117188 564.554688 C 526.753906 572.433594 535.789062 581.179688 544.800781 589.757812 C 554.917969 599.382812 564.492188 609.570312 574.1875 619.617188 C 583.738281 629.527344 593.226562 639.644531 604.421875 647.730469 C 614.929688 655.328125 626.941406 660.730469 639.339844 664.417969 C 653.191406 668.523438 667.5625 671.210938 681.996094 669.171875 C 695.601562 667.25 708.914062 661.769531 721.148438 655.664062 C 731.785156 650.359375 739.351562 642.4375 744.742188 631.878906 C 749.351562 622.863281 735.882812 614.882812 731.097656 623.910156 C 726.695312 632.214844 721.414062 637.535156 712.980469 641.714844 C 702.523438 646.890625 690.875 651.730469 679.230469 653.269531 C 667.679688 654.800781 656.164062 652.359375 645.085938 649.230469 C 634.851562 646.339844 625.15625 642.214844 616.226562 636.390625 C 606.078125 629.761719 597.71875 620.871094 589.285156 612.253906 C 579.945312 602.707031 570.796875 592.960938 561.257812 583.609375 C 552.535156 575.070312 543.523438 566.730469 534.390625 558.621094 C 525.644531 550.867188 516.261719 543.398438 505.480469 538.691406 C 493.039062 533.261719 479.902344 529.113281 466.382812 527.566406 C 460.109375 526.851562 453.984375 527.222656 447.710938 527.554688 C 440.71875 527.929688 433.71875 528.085938 426.769531 528.96875 C 413.476562 530.652344 401.714844 535.652344 390.261719 542.515625 C 379.609375 548.898438 370.3125 557.152344 359.785156 563.691406 C 339.894531 576.042969 316.945312 583.402344 293.839844 586.71875 C 272.242188 589.816406 249.894531 588.160156 229.863281 579.042969 C 206.003906 568.179688 186.898438 549.859375 174.792969 526.664062 C 168.800781 515.183594 163.398438 502.007812 161.359375 489.148438 C 160.320312 482.558594 161.585938 475.855469 162.398438 469.316406 C 162.8125 466.042969 163.214844 462.765625 163.058594 459.472656 C 162.890625 456.0625 162.046875 452.609375 162.988281 449.269531 C 161.390625 450.867188 159.78125 452.472656 158.183594 454.070312 C 158.871094 453.953125 159.546875 453.847656 160.234375 453.730469 C 163.910156 453.121094 165.890625 448.613281 165.015625 445.308594 C 163.949219 441.316406 160.222656 440.015625 156.578125 440.503906 Z M 156.578125 440.503906 " fill-opacity="1" fill-rule="nonzero"/><path fill="#000000" d="M 21.253906 243.355469 C 20.734375 243.214844 20.214844 243.078125 19.707031 242.953125 C 19.148438 247.089844 18.589844 251.226562 18.03125 255.371094 C 26.273438 256.332031 35.027344 252.539062 42.910156 250.597656 C 51.59375 248.460938 60.074219 245.753906 68.683594 243.363281 C 86.554688 238.402344 105.355469 236.550781 123.597656 233.355469 C 141.949219 230.140625 159.792969 226.140625 177.488281 220.289062 C 181.339844 219.011719 185.417969 217.472656 189.445312 216.914062 C 193.671875 216.328125 197.945312 217.023438 202.210938 216.386719 C 206.003906 215.816406 209.679688 214.640625 213.484375 214.199219 C 218.121094 213.671875 222.746094 213.121094 227.382812 212.503906 C 235.019531 211.492188 242.039062 212.277344 249.648438 212.542969 C 256.910156 212.796875 264.007812 211.71875 268.46875 205.476562 C 273.242188 198.800781 263.046875 191.722656 257.460938 196.984375 C 254.949219 199.359375 247.519531 197.859375 244.234375 197.574219 C 237.199219 196.964844 230.511719 197.4375 223.503906 198.425781 C 219.601562 198.976562 215.699219 199.308594 211.789062 199.75 C 207.789062 200.199219 203.964844 201.457031 199.996094 202.023438 C 196.398438 202.542969 192.769531 201.9375 189.164062 202.289062 C 184.722656 202.71875 180.398438 204.015625 176.164062 205.347656 C 167.78125 208.003906 159.585938 210.914062 151.019531 212.933594 C 142.175781 215.023438 133.273438 216.796875 124.34375 218.445312 C 106.925781 221.648438 89.09375 223.589844 71.859375 227.6875 C 62.230469 229.972656 52.96875 233.53125 43.410156 236.058594 C 34.371094 238.453125 25.46875 240.902344 16.351562 242.960938 C 8.414062 244.753906 11.972656 257.746094 19.714844 255.148438 C 20.234375 254.96875 20.753906 254.804688 21.265625 254.628906 C 26.527344 252.851562 27.085938 244.875 21.253906 243.355469 Z M 21.253906 243.355469 " fill-opacity="1" fill-rule="nonzero"/><path fill="#000000" d="M 122.089844 93.933594 C 123.617188 94.425781 124.394531 99.238281 124.855469 101.601562 C 125.648438 105.679688 126.382812 109.425781 127.746094 113.363281 C 131.832031 125.214844 135.390625 136.949219 136.058594 149.527344 C 136.753906 162.488281 138.578125 175.230469 140.089844 188.105469 C 141.589844 200.867188 140.175781 213.738281 141.488281 226.523438 C 142.832031 239.589844 145.304688 252.460938 145.960938 265.605469 C 146.625 278.949219 146.253906 292.320312 146.007812 305.671875 C 145.765625 318.859375 144.882812 332.53125 145.863281 345.679688 C 146.253906 350.960938 148.019531 355.992188 148.480469 361.246094 C 149.039062 367.628906 147.785156 373.992188 146.910156 380.273438 C 145.949219 387.144531 145.46875 393.734375 146.636719 400.617188 C 147.195312 403.917969 148.203125 407.066406 148.351562 410.429688 C 148.507812 414.09375 147.949219 417.769531 148.195312 421.4375 C 148.597656 427.457031 151.136719 432.671875 150.734375 438.75 C 150.324219 444.953125 151.019531 450.328125 155.46875 454.992188 C 162.273438 462.121094 173.074219 451.296875 166.273438 444.191406 C 165.242188 443.113281 165.859375 440.769531 165.949219 439.417969 C 166.125 436.769531 166.242188 434.320312 165.851562 431.679688 C 165.457031 429.082031 164.664062 426.644531 164.027344 424.09375 C 163.183594 420.761719 163.457031 417.507812 163.546875 414.09375 C 163.714844 407.988281 162.175781 402.527344 161.339844 396.566406 C 160.488281 390.460938 161.636719 384.234375 162.507812 378.195312 C 163.398438 372 164.234375 365.824219 163.558594 359.570312 C 162.917969 353.738281 161.007812 348.1875 161.007812 342.296875 C 161.007812 328.828125 161.039062 315.347656 161.292969 301.878906 C 161.539062 288.535156 161.800781 275.164062 160.929688 261.832031 C 160.027344 248.128906 157.046875 234.667969 156.195312 220.984375 C 155.390625 208.0625 156.125 195.328125 154.300781 182.457031 C 152.449219 169.390625 151.8125 156.300781 150.371094 143.207031 C 149.585938 136.039062 148.046875 129.089844 145.902344 122.21875 C 144 116.140625 141.304688 110.226562 139.6875 104.070312 C 137.304688 94.992188 136.050781 84.90625 125.363281 82.101562 C 117.667969 80.0625 114.589844 91.511719 122.089844 93.933594 Z M 122.089844 93.933594 " fill-opacity="1" fill-rule="nonzero"/><path fill="#000000" d="M 137.351562 547.75 C 146.136719 550.378906 155.8125 545.203125 163.558594 541.515625 C 171.507812 537.730469 179.613281 531.269531 188.632812 531.035156 C 196.21875 530.832031 198.464844 519.007812 190.484375 517.332031 C 179.59375 515.039062 170.632812 521.917969 161.449219 526.585938 C 154.558594 530.085938 146.960938 534.417969 139.097656 534.800781 C 131.753906 535.164062 130.058594 545.5625 137.351562 547.75 Z M 137.351562 547.75 " fill-opacity="1" fill-rule="nonzero"/><path fill="#000000" d="M 251.039062 563.679688 C 250.511719 568.808594 252.332031 573.414062 253.089844 578.394531 C 253.910156 583.804688 253.351562 589.433594 253.246094 594.875 C 253.019531 606.726562 252.707031 618.695312 253.265625 630.546875 C 253.707031 639.78125 267.195312 639.800781 267.625 630.546875 C 268.183594 618.675781 267.605469 606.753906 267.65625 594.875 C 267.675781 589.609375 267.921875 584.355469 267.34375 579.109375 C 266.773438 573.972656 264.480469 568.828125 264.910156 563.679688 C 265.65625 554.738281 251.941406 554.917969 251.039062 563.679688 Z M 251.039062 563.679688 " fill-opacity="1" fill-rule="nonzero"/><path fill="#000000" d="M 364.882812 543.457031 C 369.550781 548.847656 371.648438 555.945312 374.449219 562.375 C 377.539062 569.472656 381.578125 575.425781 388.125 579.726562 C 395.851562 584.816406 402.664062 572.667969 395.300781 567.453125 C 390.046875 563.730469 387.449219 557.40625 384.921875 551.730469 C 382.097656 545.386719 379.058594 539.242188 373.960938 534.378906 C 367.921875 528.613281 359.511719 537.261719 364.882812 543.457031 Z M 364.882812 543.457031 " fill-opacity="1" fill-rule="nonzero"/><path fill="#000000" d="M 512.605469 527.515625 C 511.5 532.191406 504.15625 536.085938 501.117188 539.671875 C 495.726562 546.023438 490.714844 552.5625 487.285156 560.199219 C 483.714844 568.140625 495.050781 575.199219 499.214844 567.171875 C 503.195312 559.503906 507.988281 551.542969 514.019531 545.300781 C 519.085938 540.046875 524.574219 535.496094 523.429688 527.527344 C 522.617188 521.917969 513.8125 522.4375 512.605469 527.515625 Z M 512.605469 527.515625 " fill-opacity="1" fill-rule="nonzero"/><path fill="#000000" d="M 598.785156 657.789062 C 598.738281 659.425781 598.875 658.054688 600.117188 657.015625 C 600.875 656.386719 601.726562 655.878906 602.539062 655.328125 C 604.480469 654.035156 606.492188 652.828125 608.324219 651.378906 C 614.226562 646.730469 619.226562 640.8125 624.546875 635.539062 C 631.019531 629.125 620.910156 619.019531 614.558594 625.546875 C 608.851562 631.410156 603.363281 638.3125 597.089844 642.59375 C 591.992188 646.074219 585.277344 650.761719 585.835938 657.78125 C 586.503906 666.015625 598.53125 666.230469 598.785156 657.789062 Z M 598.785156 657.789062 " fill-opacity="1" fill-rule="nonzero"/></svg>