<svg xmlns="http://www.w3.org/2000/svg" xmlns:xlink="http://www.w3.org/1999/xlink" width="1000" zoomAndPan="magnify" viewBox="0 0 750 749.999995" height="1000" preserveAspectRatio="xMidYMid meet" version="1.0"><path fill="#ffb701" d="M 688.570312 154.730469 C 691.894531 151.519531 697.160156 151.59375 700.371094 154.914062 C 703.582031 158.199219 703.503906 163.464844 700.21875 166.671875 C 699.398438 167.496094 697.457031 169.136719 694.730469 171.449219 C 698.800781 172.570312 701.453125 176.640625 700.742188 180.933594 C 699.882812 185.933594 692.453125 192.6875 683.046875 199.371094 C 668.671875 209.597656 648.285156 221.617188 645.785156 222.8125 C 627.492188 231.546875 615.765625 235.390625 608.972656 235.464844 C 607.738281 235.949219 606.730469 236.210938 605.949219 236.210938 C 601.355469 236.210938 597.621094 232.476562 597.621094 227.886719 C 597.621094 227.402344 597.660156 226.917969 597.769531 226.433594 L 597.734375 226.433594 C 599.117188 218.628906 611.0625 211.613281 626.183594 202.730469 C 629.917969 200.527344 633.914062 198.214844 637.945312 195.75 C 651.085938 185.597656 665.085938 174.363281 675.09375 166.152344 C 675.804688 165.179688 676.4375 164.171875 677.035156 163.164062 C 678.492188 160.664062 680.992188 159.207031 683.679688 159.023438 C 686.105469 156.96875 687.824219 155.476562 688.570312 154.730469 Z M 463.289062 234.492188 C 463.921875 233.820312 464.632812 233.300781 465.378906 232.890625 C 465.9375 231.394531 466.5 229.902344 466.984375 228.410156 L 466.945312 228.523438 C 465.492188 230.648438 463.996094 232.964844 462.46875 235.351562 Z M 259.773438 454.640625 C 265.296875 451.132812 270.898438 447.136719 276.609375 442.660156 C 270.5625 446.988281 265.371094 450.386719 261.042969 452.921875 Z M 370.621094 345.050781 C 377.265625 337.101562 383.839844 329.152344 390.296875 321.238281 C 393.808594 315.265625 397.503906 309.144531 401.199219 303.097656 C 397.988281 303.882812 395.261719 303.769531 393.171875 302.539062 C 392.574219 302.164062 392.015625 301.753906 391.527344 301.269531 C 371.816406 317.804688 350.273438 335.535156 330.820312 350.277344 C 322.496094 362.074219 314.207031 373.382812 306.367188 383.984375 C 298.5625 396.710938 290.351562 409.699219 282.136719 422.09375 C 297.21875 408.058594 319.546875 387.640625 351.46875 360.246094 C 351.878906 359.910156 359.308594 353.863281 370.621094 345.054688 Z M 259.285156 399.398438 C 261.824219 395.925781 264.476562 392.457031 267.203125 388.910156 L 271.71875 383.199219 C 271.121094 383.011719 270.5625 382.75 270.078125 382.378906 C 265.109375 388.984375 260.257812 395.925781 255.550781 403.132812 Z M 284.824219 367.449219 C 295.578125 354.871094 307.039062 342.289062 318.464844 330.273438 L 320.667969 326.128906 C 314.09375 332.289062 306.738281 339.566406 299.011719 347.890625 C 286.019531 363.117188 280.71875 369.539062 280.902344 369.6875 C 281.128906 369.910156 282.507812 369.089844 284.824219 367.449219 Z M 351.058594 297.277344 C 355.089844 293.355469 359.011719 289.625 362.78125 286.039062 C 382.34375 265.886719 401.574219 249.015625 414.640625 238.449219 C 431.253906 210.867188 437.640625 200.9375 437.488281 200.828125 C 436.855469 200.453125 423.265625 213.628906 406.984375 227.214844 C 400.117188 232.964844 393.023438 238.859375 386.191406 244.273438 C 376.707031 256.777344 364.535156 271.746094 349.339844 289.363281 L 348.21875 290.632812 C 349.675781 291.902344 350.722656 293.691406 350.984375 295.746094 L 351.019531 295.78125 C 351.058594 296.269531 351.09375 296.789062 351.058594 297.277344 Z M 443.539062 217.285156 C 448.652344 214.039062 452.835938 212.472656 455.894531 212.171875 C 457.015625 211.652344 458.0625 211.164062 458.996094 210.792969 C 461.871094 206.949219 464.445312 203.773438 466.722656 201.5 C 475.796875 192.390625 482.890625 191.644531 487.070312 202.394531 C 488.265625 205.53125 488.339844 210.492188 487.035156 217.660156 L 486.847656 218.628906 C 495.285156 213.257812 502.078125 210.71875 506.074219 213.179688 C 507.15625 213.816406 508.015625 214.636719 508.6875 215.644531 C 519.738281 208.105469 528.140625 205.378906 534.824219 206.277344 C 539.414062 206.910156 542.589844 211.128906 541.953125 215.683594 L 541.84375 216.355469 C 544.902344 215.832031 548.003906 217.136719 549.832031 219.5625 C 551.25 221.132812 551.996094 223.109375 551.996094 225.089844 L 552.148438 225.683594 C 552.894531 225.871094 553.601562 226.171875 554.273438 226.542969 C 558.308594 228.820312 559.6875 233.933594 557.375 237.929688 L 554.796875 242.445312 C 555.097656 245.578125 555.394531 248.902344 555.695312 252.296875 C 556.03125 256.21875 556.367188 260.324219 556.8125 264.464844 C 558.605469 266.667969 559.242188 269.765625 558.15625 272.640625 L 557.859375 273.425781 C 558.417969 277.457031 559.089844 281.449219 559.914062 285.367188 C 560.808594 289.625 561.628906 293.765625 562.414062 297.875 C 566.519531 293.507812 570.105469 289.773438 573.167969 286.9375 C 576.527344 283.800781 581.828125 283.988281 584.964844 287.347656 C 588.101562 290.707031 587.914062 296.007812 584.515625 299.140625 C 579.589844 303.734375 573.316406 310.488281 565.960938 318.589844 C 567.191406 327.023438 568.164062 335.125 568.910156 342.925781 L 573.355469 328.742188 L 576.117188 319.671875 L 578.429688 311.832031 C 579.664062 307.390625 584.253906 304.816406 588.699219 306.046875 C 593.140625 307.316406 595.71875 311.90625 594.484375 316.347656 C 593.625 319.371094 592.84375 322.136719 592.097656 324.488281 L 589.222656 333.742188 C 581.230469 358.902344 574.847656 377.824219 569.992188 391.710938 C 569.769531 395.777344 569.433594 399.773438 569.023438 403.617188 C 572.644531 395.257812 577.050781 385.4375 582.238281 375.882812 L 582.277344 375.882812 L 586.195312 368.644531 C 588.398438 364.613281 593.476562 363.117188 597.511719 365.320312 C 601.542969 367.523438 603.035156 372.5625 600.832031 376.59375 L 596.914062 383.835938 L 596.949219 383.835938 C 584.851562 406.117188 572.605469 428.664062 562.714844 437.320312 C 559.128906 450.238281 554.460938 461.433594 549.046875 471.25 C 557.820312 463.152344 565.625 454.941406 572.421875 446.355469 C 575.296875 442.734375 580.523438 442.136719 584.105469 444.972656 C 587.726562 447.8125 588.324219 453.035156 585.488281 456.65625 C 574.847656 470.09375 562.191406 482.484375 547.257812 494.878906 C 533.292969 506.488281 517.460938 518.019531 499.617188 530.335938 C 486.101562 546.574219 470.679688 560.085938 454.738281 565.386719 C 451.675781 566.394531 448.503906 565.574219 446.339844 563.484375 C 432.300781 570.425781 425.132812 571.132812 422.59375 567.476562 C 417.851562 560.535156 428.863281 547.320312 443.539062 531.53125 C 440.289062 533.847656 437.300781 535.710938 434.578125 537.054688 L 425.578125 541.535156 C 421.25 544.261719 417.066406 546.761719 413.109375 549.039062 C 401.945312 555.421875 392.238281 560.050781 385.21875 561.914062 L 383.726562 562.289062 C 374.242188 566.617188 369.089844 568.074219 365.992188 566.542969 C 365.355469 566.246094 364.796875 565.945312 364.273438 565.648438 C 361.996094 567.027344 359.121094 567.289062 356.507812 566.097656 C 354.828125 565.347656 353.558594 564.117188 352.699219 562.625 C 349.042969 567.738281 345.417969 572.777344 341.796875 577.703125 C 339.109375 581.4375 333.882812 582.257812 330.1875 579.53125 C 326.492188 576.84375 325.667969 571.621094 328.359375 567.925781 C 337.28125 555.71875 346.464844 542.765625 355.386719 529.816406 C 339.671875 541.757812 330.074219 547.394531 324.847656 548.066406 L 315.515625 569.269531 C 313.683594 573.484375 308.757812 575.425781 304.539062 573.597656 C 300.320312 571.730469 298.414062 566.84375 300.242188 562.625 L 317.566406 523.207031 C 302.855469 531.421875 291.804688 536.535156 283.667969 538.996094 C 272.167969 546.910156 262.160156 553.070312 254.621094 556.390625 C 251.222656 557.921875 247.339844 556.914062 244.988281 554.261719 C 243.269531 554.5625 241.402344 554.339844 239.722656 553.480469 C 235.617188 551.390625 233.972656 546.351562 236.0625 542.246094 C 246.628906 521.527344 257.496094 502.492188 268.210938 485.246094 C 261.226562 491.59375 254.84375 497.527344 249.054688 502.867188 C 232.554688 518.167969 221.015625 528.84375 213.476562 533.097656 C 209.445312 535.339844 204.367188 533.921875 202.089844 529.890625 C 201.492188 528.808594 201.15625 527.648438 201.042969 526.492188 L 200.96875 526.492188 C 198.542969 526.230469 196.488281 524.960938 195.144531 523.132812 C 194.660156 522.648438 194.210938 522.089844 193.835938 521.453125 C 193.277344 520.519531 192.941406 519.550781 192.792969 518.542969 C 192.417969 518.429688 192.082031 518.242188 191.746094 518.058594 C 187.714844 515.816406 186.296875 510.703125 188.535156 506.710938 C 190.960938 502.417969 194.695312 496.632812 199.921875 489.167969 C 201.417969 483.71875 203.171875 477.78125 205.113281 471.289062 C 196.636719 477.78125 188.460938 483.304688 180.957031 487.335938 C 176.925781 489.503906 171.847656 488.007812 169.679688 483.941406 C 167.476562 479.871094 169.007812 474.832031 173.078125 472.632812 C 185.773438 465.839844 200.855469 454.042969 216.089844 440.644531 C 218.066406 435.605469 220.308594 430.15625 222.734375 424.257812 C 235.953125 392.679688 252.34375 363.601562 269.480469 337.738281 C 266.195312 340.460938 262.832031 343.148438 259.511719 345.800781 C 224.003906 383.386719 188.460938 424.40625 169.417969 454.753906 C 166.992188 458.632812 161.839844 459.828125 157.957031 457.402344 C 154.074219 454.976562 152.878906 449.824219 155.308594 445.945312 C 165.5 429.667969 180.246094 410.484375 197.121094 390.441406 C 194.285156 392.195312 191.523438 393.835938 188.871094 395.328125 C 180.472656 400.070312 172.890625 403.617188 166.46875 405.742188 C 164.714844 407.648438 163.484375 409.066406 162.847656 409.925781 C 160.609375 413.433594 156.089844 414.8125 152.246094 412.984375 C 149.707031 411.789062 148.0625 409.476562 147.578125 406.902344 C 140.113281 404.4375 137.421875 397.382812 140.707031 384.765625 C 141.714844 380.921875 143.507812 376.332031 146.195312 370.808594 L 145.449219 371.179688 C 141.304688 373.160156 136.339844 371.402344 134.363281 367.261719 C 133.054688 364.5 133.355469 361.402344 134.921875 359.050781 C 132.644531 356.0625 132.605469 351.769531 135.070312 348.710938 C 142.390625 339.714844 155.230469 326.425781 170.875 311.609375 C 176.625 296.976562 185.734375 280.890625 196.226562 265.101562 C 224.640625 222.289062 264.4375 180.222656 272.988281 176.152344 C 273.660156 175.855469 274.332031 175.632812 275.042969 175.480469 C 276.199219 175.109375 277.507812 174.996094 278.8125 175.183594 C 279.597656 175.296875 280.34375 175.519531 281.015625 175.816406 L 281.835938 176.226562 C 285.945312 178.503906 287.402344 182.199219 285.832031 187.351562 C 285.382812 188.734375 284.636719 190.414062 283.480469 192.429688 C 280.53125 197.617188 274.296875 206.613281 263.804688 220.085938 L 259.921875 225.011719 C 276.386719 209.710938 290.164062 199.59375 300.207031 194.257812 C 303.269531 192.613281 306.144531 191.421875 308.792969 190.5625 C 318.164062 182.273438 326.976562 174.472656 334.332031 168.128906 C 337.804688 165.105469 343.066406 165.480469 346.09375 168.988281 C 349.078125 172.457031 348.707031 177.722656 345.234375 180.707031 C 339.929688 185.300781 334.292969 190.261719 328.394531 195.453125 C 330.671875 199.894531 330.113281 206.125 326.230469 213.964844 C 326.828125 215.71875 326.675781 218.035156 325.820312 220.90625 C 333.136719 215.496094 340.15625 210.492188 346.800781 206.015625 L 350.648438 203.4375 C 352.140625 191.605469 353.671875 179.328125 354.902344 169.210938 C 355.425781 164.65625 359.570312 161.371094 364.164062 161.933594 C 368.753906 162.457031 372.003906 166.597656 371.480469 171.191406 L 368.867188 192.167969 C 377.976562 187.015625 385.742188 183.394531 391.753906 181.640625 C 410.496094 176.304688 418.933594 181.601562 412.585938 201.050781 C 426.847656 189.851562 439.019531 182.351562 446.039062 186.53125 C 451.339844 189.703125 451.378906 198.886719 443.539062 217.285156 Z M 441.707031 313.511719 C 434.613281 318.289062 427.410156 323.402344 420.351562 328.480469 L 406.574219 344.269531 L 406.238281 345.277344 C 420.015625 333.109375 431.8125 322.472656 441.707031 313.511719 Z M 484.457031 270.847656 L 485.839844 270.476562 C 489.347656 269.617188 492.484375 269.207031 495.171875 269.355469 L 499.578125 264.019531 C 512.160156 249.050781 524.40625 234.417969 534.636719 222.8125 C 533.964844 222.921875 533.253906 222.886719 532.546875 222.8125 C 529.335938 222.363281 523.511719 225.164062 513.878906 232.480469 C 510.367188 235.089844 506.558594 238.265625 502.304688 241.960938 L 500.734375 244.570312 C 494.800781 254.277344 489.386719 263.011719 484.457031 270.847656 Z M 506.597656 281.636719 L 506.636719 283.316406 C 506.671875 286.226562 505.925781 289.847656 504.28125 294.214844 C 510.367188 283.914062 517.238281 272.453125 524.890625 259.839844 Z M 394.925781 402.125 L 382.195312 411.53125 L 377.230469 424.40625 C 380.441406 421.308594 383.800781 418.175781 387.234375 415 C 389.363281 411.121094 391.941406 406.828125 394.925781 402.125 Z M 392.949219 382.789062 C 403.625 374.800781 414.15625 366.738281 424.085938 358.824219 C 427.445312 353.972656 430.65625 349.382812 433.753906 344.976562 C 433.605469 344.492188 433.53125 343.96875 433.457031 343.375 C 422.40625 353.265625 409.597656 364.613281 394.890625 377.453125 Z M 314.167969 461.917969 C 303.117188 470.46875 294.53125 477.523438 289.753906 482.410156 L 285.609375 488.90625 C 285.90625 489.429688 287.773438 489.429688 291.507812 488.90625 C 297.667969 481.328125 304.425781 473.378906 311.257812 465.316406 Z M 317.714844 483.492188 C 322.53125 482.335938 327.910156 481.066406 333.921875 479.574219 C 333.324219 474.347656 338.0625 466.324219 346.277344 456.433594 L 352.066406 442.398438 C 343.515625 453.148438 333.660156 464.71875 323.988281 476.101562 Z M 306.628906 501.746094 C 304.949219 501.933594 303.34375 502.121094 301.773438 502.269531 L 294.753906 510.59375 C 298.636719 507.753906 302.59375 504.769531 306.628906 501.746094 Z M 281.3125 501.933594 C 280.15625 501.707031 279.074219 501.410156 278.066406 501.074219 C 271.53125 511.898438 264.960938 523.394531 258.425781 535.527344 C 260.59375 534.257812 262.871094 532.839844 265.296875 531.269531 C 266.230469 524.066406 272.429688 513.800781 281.3125 501.933594 Z M 511.710938 400.070312 C 498.046875 409.886719 482.816406 420.75 466.761719 431.574219 C 467.433594 437.210938 462.988281 448.148438 451.824219 466.25 C 455.261719 462.292969 459.03125 458.039062 463.175781 453.519531 C 485.914062 428.589844 502.117188 410.96875 513.09375 399.136719 Z M 532.171875 365.433594 C 539.9375 360.28125 546.882812 356.0625 552.894531 353.152344 C 552.519531 347.179688 551.960938 341.023438 551.214844 334.601562 C 539.902344 346.769531 526.984375 360.207031 512.980469 373.085938 L 509.359375 376.332031 C 518.359375 370.996094 526.125 367.074219 532.171875 365.433594 Z M 553.601562 370.546875 C 550.652344 372.523438 547.179688 374.949219 543.261719 377.675781 C 537.808594 391.820312 517.460938 418.734375 475.496094 464.71875 C 458.023438 483.867188 447.605469 497.003906 442.492188 505.441406 C 443.875 504.769531 445.367188 503.984375 447.011719 503.089844 C 451.453125 500.664062 456.417969 497.601562 461.644531 494.058594 C 469.113281 486.929688 476.578125 479.460938 483.152344 472.929688 C 494.800781 461.285156 504.171875 451.917969 510.964844 450.945312 C 514.8125 446.464844 518.171875 442.0625 520.824219 437.882812 C 535.757812 414.179688 546.359375 397.046875 553.417969 385.289062 C 553.601562 380.550781 553.679688 375.660156 553.601562 370.546875 Z M 548.1875 425.152344 L 545.203125 430.15625 C 545.761719 430.304688 546.324219 430.527344 546.769531 430.828125 C 547.257812 428.960938 547.742188 427.09375 548.191406 425.152344 Z M 424.71875 522.351562 C 421.660156 519.886719 420.761719 515.59375 422.554688 509.171875 C 419.457031 513.390625 416.207031 517.832031 412.773438 522.460938 C 409.75 526.492188 406.726562 530.300781 403.738281 533.847656 L 417.515625 526.941406 Z M 472.285156 400.554688 C 470.570312 400.480469 469.222656 399.882812 468.179688 398.765625 C 465.339844 395.667969 465.265625 391 467.84375 387.828125 C 469 384.765625 470.792969 381.257812 473.105469 377.378906 C 469.820312 379.652344 467.023438 380.402344 464.746094 378.980469 C 462.804688 377.824219 463.101562 373.570312 466.351562 365.207031 L 455.035156 375.699219 C 440.847656 391.972656 426.4375 408.207031 414.042969 420.785156 C 437.414062 405.148438 455.671875 396.265625 463.140625 401.898438 C 464.183594 402.683594 465.003906 403.765625 465.527344 405.109375 Z M 429.3125 429.035156 C 435.695312 425.003906 442.269531 420.710938 448.839844 416.308594 C 444.730469 418.398438 437.9375 422.878906 429.3125 429.035156 Z M 380.402344 443.59375 L 371.777344 451.542969 L 381.449219 444.191406 C 381.222656 444.117188 381 444.003906 380.8125 443.890625 Z M 372.375 390.402344 C 371.253906 390.476562 370.285156 390.476562 369.390625 390.367188 L 368.417969 391.449219 C 369.574219 391.375 370.734375 391.484375 371.816406 391.859375 Z M 302.371094 319.933594 C 311.628906 308.0625 323.019531 294.328125 336.71875 278.464844 C 340.378906 274.207031 343.851562 270.140625 347.136719 266.222656 L 344.523438 269.058594 L 339.632812 274.171875 C 327.984375 287.273438 315.214844 302.652344 302.371094 319.933594 Z M 394.515625 201.425781 C 395.152344 200.117188 395.671875 198.886719 396.082031 197.804688 C 389.140625 199.855469 378.761719 205.304688 366.179688 213.292969 L 365.355469 219.75 L 377.566406 211.015625 C 381.636719 202.730469 384.507812 202.28125 386.003906 205.34375 C 389.8125 202.917969 392.722656 201.5 394.515625 201.425781 Z M 347.773438 225.609375 C 332.128906 236.660156 314.617188 250.097656 296.808594 264.839844 L 292.625 269.878906 C 315.8125 254.390625 333.585938 242.144531 346.839844 232.890625 Z M 158.441406 384.09375 C 162.324219 378.160156 166.769531 372.003906 171.734375 365.621094 C 170.914062 364.835938 170.164062 363.976562 169.457031 362.96875 C 164.15625 371.667969 160.570312 378.644531 158.441406 384.09375 Z M 182.414062 352.480469 C 186.855469 347.21875 191.597656 341.878906 196.523438 336.503906 C 191.074219 340.609375 186.035156 344.34375 181.402344 347.703125 C 181.628906 350.277344 181.964844 351.808594 182.414062 352.480469 Z M 222.472656 347.03125 L 204.179688 366.105469 C 217.917969 356.847656 232.964844 345.6875 248.085938 333.667969 C 260.890625 320.082031 273.699219 307.019531 285.683594 295.035156 C 268.695312 307.503906 252.902344 321.050781 238.976562 333.035156 C 233.1875 338.035156 227.664062 342.738281 222.472656 347.03125 Z M 281.800781 243.078125 L 280.679688 243.824219 C 264.550781 254.3125 246.03125 268.421875 227.851562 283.503906 C 222.472656 289.921875 216.910156 296.828125 211.234375 304.144531 L 219.113281 297.949219 C 246.257812 276.597656 266.867188 258.195312 281.800781 243.078125 Z M 206.792969 279.359375 L 214.335938 273.015625 C 214.109375 271.519531 214.222656 269.691406 214.746094 267.488281 C 213.175781 269.730469 211.644531 272.007812 210.113281 274.285156 Z M 383.390625 481.664062 C 367.859375 492.191406 354.195312 501.074219 342.207031 508.578125 L 336.570312 521.453125 L 342.542969 516.003906 C 354.230469 505.480469 369.875 492.714844 383.390625 481.664062 Z M 337.652344 533.25 C 333.734375 533.472656 331.492188 533.660156 333.695312 536.382812 C 334.890625 537.839844 335.824219 536.496094 337.652344 533.25 Z M 454.925781 441.277344 L 454.738281 441.203125 L 453.09375 444.152344 C 454.550781 442.324219 455.148438 441.429688 454.925781 441.277344 Z M 506.410156 483.082031 C 504.46875 486.105469 502.265625 489.390625 499.800781 492.898438 C 494.648438 500.328125 486.660156 509.511719 478.074219 518.953125 C 484.570312 514.660156 491.664062 509.882812 498.832031 504.136719 C 505.738281 494.132812 511.898438 483.71875 516.976562 474.199219 C 513.652344 477.074219 510.105469 480.023438 506.410156 483.082031 Z M 444.769531 550.230469 C 439.019531 554.078125 435.210938 556.390625 436.371094 558.070312 C 436.929688 558.890625 439.09375 556.765625 444.320312 552.0625 C 444.433594 551.425781 444.582031 550.828125 444.769531 550.230469 Z M 509.695312 353.265625 C 524.292969 339.269531 537.289062 325.234375 548.226562 313.289062 C 547.40625 308.472656 546.507812 303.507812 545.539062 298.433594 C 535.308594 316.3125 521.757812 336.058594 509.695312 353.265625 Z M 480.460938 387.453125 C 481.695312 388.796875 482.589844 385.925781 485.691406 380.511719 C 481.695312 383.796875 479.304688 385.8125 480.3125 387.304688 Z M 537.101562 271.707031 C 538.257812 270.589844 539.378906 269.582031 540.460938 268.648438 L 540.238281 266.667969 Z M 473.40625 364.761719 C 476.320312 366.550781 477.25 362.035156 479.082031 355.09375 C 474.265625 361.328125 472.324219 364.089844 473.40625 364.761719 Z M 596.800781 489.167969 C 597.324219 488.792969 597.882812 488.496094 598.480469 488.273438 L 599.300781 487.75 C 600.570312 487.003906 601.992188 486.628906 603.410156 486.628906 C 606.359375 486.480469 609.644531 487.226562 612.816406 488.121094 C 625.847656 488.757812 642.648438 489.914062 659.226562 492.265625 C 681.738281 495.476562 704.140625 501 717.394531 510.703125 C 719.933594 512.570312 721.277344 514.921875 721.464844 517.648438 C 721.988281 524.289062 717.507812 527.351562 709.292969 527.464844 C 707.875 528.507812 705.933594 529.40625 703.542969 530.113281 C 701.863281 530.636719 699.660156 531.046875 697.046875 531.308594 C 697.085938 531.980469 697.046875 532.652344 696.898438 533.359375 C 695.964844 537.839844 691.59375 540.75 687.078125 539.855469 C 684.539062 539.332031 681.777344 538.25 679.199219 537.28125 C 677.707031 536.683594 676.25 536.125 675.242188 535.863281 L 675.242188 535.824219 C 668.1875 534.03125 629.582031 521.378906 607.589844 512.832031 C 602.585938 510.890625 598.40625 509.175781 595.570312 507.792969 C 587.953125 504.097656 584.816406 499.507812 587.800781 493.757812 L 587.953125 493.496094 C 588.625 492.265625 589.59375 491.21875 590.863281 490.398438 L 590.9375 490.363281 C 592.65625 489.28125 594.746094 488.832031 596.800781 489.167969 Z M 385.183594 619.507812 C 385.144531 614.917969 388.804688 611.148438 393.394531 611.109375 C 397.988281 611.035156 401.796875 614.730469 401.835938 619.320312 L 401.835938 621.113281 C 402.46875 621.152344 403.066406 621.226562 403.699219 621.375 C 405.792969 621.898438 407.472656 623.167969 408.554688 624.808594 C 412.472656 624.585938 416.171875 627.160156 417.179688 631.078125 C 418.300781 635.484375 417.066406 651.273438 415.089844 668.964844 C 412.289062 693.636719 407.996094 723.011719 406.574219 728.613281 C 405.902344 731.261719 404.859375 733.203125 403.476562 734.472656 C 402.953125 738.203125 402.507812 741.078125 402.132812 742.757812 C 401.199219 747.164062 396.941406 750 392.539062 749.214844 L 392.203125 749.140625 C 387.683594 748.167969 384.847656 743.726562 385.816406 739.210938 C 386.003906 738.390625 386.226562 737.121094 386.453125 735.515625 L 385.964844 735.664062 C 378.535156 742.160156 374.953125 740.667969 375.996094 729.804688 C 375.175781 727.34375 375.4375 724.355469 377.453125 721.183594 C 377.753906 720.101562 378.273438 718.683594 379.058594 716.777344 C 381.597656 710.621094 382.980469 694.085938 383.726562 677.101562 C 384.472656 660.042969 384.511719 641.753906 384.511719 633.320312 L 385.367188 633.320312 C 385.257812 626.863281 385.21875 622.195312 385.183594 620.328125 Z M 37.847656 553.03125 C 33.703125 554.972656 28.738281 553.179688 26.796875 549 C 24.855469 544.855469 26.648438 539.894531 30.792969 537.953125 C 37.550781 534.777344 57.113281 528.097656 78.246094 521.378906 C 85.898438 518.953125 93.816406 516.488281 101.394531 514.210938 C 113.527344 508.839844 124.691406 504.507812 132.421875 503.089844 C 144.589844 500.851562 149.257812 501.148438 152.246094 503.648438 C 156.949219 505.066406 158.480469 507.53125 157.398438 510.890625 C 161.019531 516.898438 158.40625 521.863281 152.355469 525.96875 C 148.027344 528.957031 141.042969 531.605469 135.480469 533.695312 C 133.128906 534.59375 131.074219 535.375 129.957031 535.898438 C 125.175781 538.136719 90.269531 549.410156 70.890625 554.75 C 66.558594 555.941406 62.902344 556.875 60.324219 557.398438 L 58.421875 557.773438 C 54.722656 560.011719 51.773438 560.125 49.722656 559.003906 C 41.132812 559.636719 38.035156 557.546875 41.546875 552.210938 L 41.210938 551.574219 C 39.863281 552.136719 38.746094 552.621094 37.847656 553.03125 Z M 35.980469 178.09375 C 37.550781 176.117188 39.976562 174.886719 42.664062 174.960938 C 59.09375 175.371094 100.609375 202.84375 122.375 219.378906 C 128.015625 223.707031 132.496094 227.367188 134.882812 229.679688 L 138.246094 232.890625 C 143.957031 236.546875 146.945312 240.207031 147.914062 243.265625 C 156.800781 253.976562 154.261719 257.039062 137.757812 250.359375 C 135.929688 249.945312 133.875 249.164062 131.710938 247.96875 C 125.027344 249.761719 112.371094 247.78125 91.460938 240.207031 C 88.289062 239.046875 67.082031 229.941406 51.214844 222.625 C 40.277344 217.546875 31.164062 212.660156 29.636719 209.972656 C 27.320312 205.976562 28.703125 200.902344 32.695312 198.625 C 36.691406 196.347656 41.769531 197.691406 44.046875 201.683594 C 44.496094 202.46875 49.945312 203.625 58.234375 207.46875 C 64.617188 210.417969 71.824219 213.628906 78.285156 216.464844 L 70.816406 212.546875 C 59.09375 206.425781 47.707031 200.453125 38.257812 193.808594 C 36.207031 192.355469 34.863281 190.75 34.191406 188.996094 L 33.964844 188.359375 C 31.988281 182.984375 32.769531 179.625 35.980469 178.09375 Z M 330.820312 7.441406 C 331.71875 2.925781 336.085938 0.015625 340.601562 0.910156 C 345.121094 1.804688 348.035156 6.171875 347.136719 10.691406 L 346.578125 13.5625 C 348.371094 14.535156 349.824219 16.402344 350.871094 19.199219 L 351.058594 19.722656 C 353.558594 27.152344 354.902344 34.800781 355.574219 42.566406 L 357.742188 50.742188 C 362.59375 68.804688 369.574219 94.671875 369.238281 114.566406 C 369.203125 118.039062 369.390625 121.285156 369.539062 123.265625 C 375.175781 131.625 374.019531 136.402344 370.472656 138.082031 C 370.472656 146.40625 368.121094 147.972656 358.113281 135.542969 C 357.21875 135.804688 356.285156 135.878906 355.3125 135.84375 C 353.558594 135.691406 351.992188 135.058594 350.722656 134.050781 C 345.496094 140.546875 342.023438 138.457031 337.765625 131.289062 L 337.390625 130.992188 C 335.488281 129.460938 334.292969 127.183594 334.21875 124.683594 L 329.625 115.425781 C 322.644531 101.429688 321.710938 80.375 323.203125 59.660156 C 324.625 39.839844 328.28125 19.910156 330.820312 7.441406 Z M 330.820312 7.441406 " fill-opacity="1" fill-rule="nonzero"/><path fill="#000000" d="M 345.484375 122.683594 C 347.761719 126.675781 347.851562 132.945312 343.855469 135.183594 C 339.824219 137.425781 334.738281 133.980469 332.460938 129.949219 C 332.460938 129.933594 330.96875 127.523438 328.96875 121.441406 C 328.167969 119.003906 326.777344 116.210938 325.886719 112.605469 C 325.21875 109.898438 322.929688 107.171875 322.277344 103.746094 C 321.734375 100.917969 322.121094 97.644531 321.628906 94.292969 C 321.199219 91.386719 322.554688 88.074219 322.183594 84.757812 C 321.851562 81.808594 319.902344 78.871094 319.628906 75.578125 C 319.355469 72.292969 319.277344 69.148438 319.050781 66.164062 C 318.792969 62.847656 318.71875 59.703125 318.511719 56.753906 C 318.277344 53.378906 315.9375 50.378906 315.761719 47.480469 C 315.546875 44.011719 316.507812 40.800781 316.363281 37.996094 C 316.171875 34.296875 317.984375 31.078125 317.890625 28.496094 C 317.65625 22.136719 318.054688 19.140625 318.054688 19.125 C 318.054688 14.496094 320.332031 13.046875 324.960938 13.046875 C 329.550781 13.046875 333.125 14.496094 333.125 19.125 C 333.125 19.140625 335.261719 22.019531 335.496094 28.246094 C 335.589844 30.765625 332.9375 33.9375 333.121094 37.550781 C 333.261719 40.285156 334.246094 43.304688 334.453125 46.691406 C 334.628906 49.519531 332.882812 52.714844 333.113281 56.007812 C 333.3125 58.886719 333.726562 61.941406 333.972656 65.183594 C 334.199219 68.089844 336.152344 71.015625 336.417969 74.222656 C 336.710938 77.71875 338.417969 80.828125 338.765625 83.875 C 339.167969 87.417969 336.730469 91.054688 337.183594 94.027344 C 337.738281 97.664062 341.910156 100.234375 342.492188 103.078125 C 343.277344 106.933594 340.417969 110.976562 341.148438 113.535156 C 343.046875 120.175781 345.359375 120.921875 345.359375 120.941406 C 345.023438 121.140625 345.484375 122.683594 345.484375 122.683594 Z M 226.574219 408.910156 C 225.003906 404.617188 225.902344 398.40625 230.195312 396.839844 C 234.523438 395.273438 238.984375 399.507812 240.554688 403.839844 C 241.589844 406.6875 242.804688 409.535156 244.042969 412.285156 C 245.28125 415.050781 247.136719 417.5625 248.574219 420.214844 C 250.015625 422.878906 252.957031 424.617188 254.589844 427.15625 C 256.226562 429.707031 257.15625 432.667969 258.976562 435.078125 C 260.800781 437.496094 261.363281 440.996094 263.363281 443.257812 C 265.367188 445.527344 268.683594 446.609375 270.851562 448.707031 C 273.03125 450.8125 275.160156 452.953125 277.496094 454.871094 C 280.066406 456.988281 282.636719 459.113281 285.386719 460.984375 C 288.136719 462.855469 292.011719 462.734375 294.929688 464.34375 C 297.835938 465.945312 300.199219 468.371094 303.261719 469.691406 C 306.304688 471.003906 308.75 474 311.933594 475.011719 C 315.085938 476.015625 318.324219 477.285156 321.597656 477.976562 C 324.828125 478.660156 328.171875 480.03125 331.511719 480.390625 C 334.46875 480.707031 337.894531 478.878906 341.273438 479.046875 C 344.316406 479.199219 347.539062 477.152344 350.855469 477.179688 C 353.945312 477.203125 357.144531 479.960938 360.421875 479.875 C 363.539062 479.792969 366.707031 478.847656 369.949219 478.660156 C 373.085938 478.480469 376.441406 480.195312 379.65625 479.917969 C 382.804688 479.644531 386.019531 479.128906 389.203125 478.761719 C 392.363281 478.394531 395.332031 476.277344 398.492188 475.8125 C 401.652344 475.351562 404.558594 473.464844 407.6875 472.902344 C 410.890625 472.332031 414.628906 474.546875 417.75 473.871094 C 420.949219 473.175781 423.234375 468.878906 426.304688 468.074219 C 429.496094 467.238281 433.640625 469.953125 436.644531 468.996094 C 439.8125 467.988281 442.925781 466.765625 445.828125 465.621094 C 448.957031 464.386719 451.742188 462.40625 454.488281 461.011719 C 457.527344 459.464844 460.878906 458.320312 463.367188 456.578125 C 465.609375 454.785156 465.480469 450.027344 467.726562 447.878906 C 469.832031 445.867188 472.445312 444.371094 474.519531 442.109375 C 476.507812 439.941406 481.117188 439.925781 483.046875 437.582031 C 484.9375 435.289062 486.148438 432.3125 487.957031 429.902344 C 490.035156 427.128906 491.503906 423.84375 493.441406 420.988281 C 495.414062 418.085938 498.585938 415.917969 500.375 413.015625 C 502.238281 409.984375 504.195312 406.96875 505.8125 404.023438 C 507.558594 400.847656 507.789062 396.945312 509.195312 393.976562 C 511.136719 389.792969 516.355469 385.769531 520.5 387.746094 C 524.679688 389.726562 525.898438 396.773438 523.957031 400.917969 C 522.730469 403.511719 520.660156 405.839844 519.191406 408.585938 C 517.816406 411.152344 517.324219 414.332031 515.761719 416.976562 C 514.269531 419.511719 513.753906 422.78125 512.113281 425.34375 C 510.511719 427.84375 506.140625 428.5625 504.421875 431.042969 C 502.71875 433.5 500.117188 435.246094 498.320312 437.644531 C 496.289062 440.339844 496.488281 444.742188 494.363281 447.316406 C 492.191406 449.941406 489.125 451.746094 486.886719 454.183594 C 484.558594 456.714844 481.78125 458.636719 479.410156 460.894531 C 476.890625 463.296875 475.832031 467.226562 473.300781 469.234375 C 473.121094 469.375 473.328125 469.746094 473.144531 469.878906 C 470.703125 471.621094 468.148438 473.832031 465.289062 475.394531 C 462.636719 476.839844 459.136719 477.09375 456.179688 478.390625 C 453.390625 479.609375 450.792969 481.777344 447.777344 482.863281 C 444.894531 483.902344 441.28125 483.101562 438.230469 484.023438 C 435.28125 484.910156 431.859375 484.140625 428.785156 484.921875 C 425.785156 485.683594 423.222656 488.363281 420.132812 489.023438 C 417.09375 489.671875 413.785156 489.023438 410.6875 489.574219 C 407.371094 490.167969 404.257812 492.085938 400.902344 492.574219 C 397.550781 493.0625 393.988281 491.871094 390.636719 492.257812 C 387.253906 492.644531 383.941406 493.300781 380.597656 493.585938 C 377.183594 493.878906 373.878906 494.984375 370.546875 495.171875 C 367.105469 495.367188 363.664062 493.378906 360.351562 493.460938 C 356.875 493.550781 353.523438 497.671875 350.242188 497.644531 C 346.722656 497.613281 343.367188 495.207031 340.136719 495.042969 C 336.550781 494.863281 333.101562 495.4375 329.957031 495.097656 C 326.632812 494.742188 323.226562 494.71875 319.996094 494.089844 C 316.722656 493.453125 313.910156 490.949219 310.742188 490.042969 C 307.539062 489.128906 304.464844 488.105469 301.378906 486.929688 C 298.269531 485.746094 294.484375 486.144531 291.503906 484.714844 C 288.511719 483.277344 285.191406 482.226562 282.335938 480.550781 C 279.472656 478.875 278.453125 474.328125 275.738281 472.429688 C 273.019531 470.53125 269.324219 470.011719 266.765625 467.902344 C 264.4375 465.984375 262.042969 464.109375 259.855469 462.03125 C 257.671875 459.953125 254.695312 458.5625 252.652344 456.335938 C 250.613281 454.117188 250.773438 450 248.882812 447.640625 C 246.996094 445.292969 243.945312 443.851562 242.214844 441.375 C 240.492188 438.90625 239.78125 435.792969 238.21875 433.207031 C 236.660156 430.628906 235.246094 428.027344 233.855469 425.34375 C 232.46875 422.671875 228.382812 421.230469 227.171875 418.460938 C 225.964844 415.703125 224.839844 412.207031 223.8125 409.363281 C 223.777344 408.972656 226.574219 408.910156 226.574219 408.910156 Z M 247.898438 298.574219 C 247.640625 293.984375 250.300781 288.34375 254.890625 288.082031 C 259.484375 287.820312 262.523438 293.1875 262.785156 297.78125 C 263.054688 302.425781 263.113281 302.425781 263.386719 307.070312 C 263.65625 311.714844 264.203125 311.683594 264.472656 316.328125 C 264.742188 320.976562 266.390625 320.882812 266.660156 325.53125 C 266.933594 330.175781 266.003906 330.230469 266.273438 334.878906 C 266.535156 339.472656 262.609375 342.015625 258.015625 342.238281 C 253.421875 342.5 249.324219 340.4375 249.0625 335.84375 C 248.792969 331.195312 248.96875 331.183594 248.699219 326.53125 C 248.425781 321.882812 248.582031 321.875 248.3125 317.222656 C 248.039062 312.570312 245.90625 312.695312 245.636719 308.042969 C 245.363281 303.390625 246.105469 303.253906 246.226562 298.597656 C 246.238281 298.203125 247.898438 298.574219 247.898438 298.574219 Z M 461.195312 295.972656 C 461.644531 291.382812 465.140625 286.21875 469.695312 286.667969 C 474.289062 287.117188 476.460938 292.847656 476.015625 297.441406 C 475.550781 302.140625 475.605469 302.144531 475.136719 306.839844 C 474.671875 311.539062 475.214844 311.59375 474.75 316.289062 C 474.28125 320.988281 475.925781 321.152344 475.457031 325.851562 C 474.992188 330.550781 474.0625 330.457031 473.597656 335.15625 C 473.148438 339.75 468.84375 341.609375 464.285156 341.164062 C 459.695312 340.714844 455.976562 338.050781 456.425781 333.460938 C 456.894531 328.761719 457.074219 328.78125 457.542969 324.082031 C 458.015625 319.386719 458.167969 319.402344 458.640625 314.703125 C 459.113281 310.003906 456.738281 309.644531 457.46875 304.980469 C 458.207031 300.289062 460.730469 300.671875 461.195312 295.972656 Z M 600.105469 228.664062 C 596.558594 231.613281 590.4375 232.863281 587.523438 229.355469 C 584.574219 225.808594 587.046875 220.171875 590.59375 217.257812 C 590.609375 217.230469 593.445312 214.707031 598.054688 210.921875 C 600.246094 209.125 602.472656 206.613281 605.324219 204.351562 C 607.730469 202.4375 609.320312 199.101562 612.039062 197.023438 C 614.570312 195.085938 617.777344 193.84375 620.457031 191.886719 C 623.09375 189.957031 626.789062 189.507812 629.457031 187.675781 C 631.878906 186.023438 633.460938 182.804688 636.023438 180.8125 C 638.429688 178.949219 640.972656 177.113281 643.378906 175.097656 C 645.785156 173.085938 648.261719 171.152344 650.550781 169.136719 C 652.980469 166.992188 653.867188 163.3125 656.03125 161.324219 C 658.570312 158.992188 661.632812 157.671875 663.589844 155.804688 C 667.675781 151.910156 671.609375 150.726562 671.621094 150.703125 C 674.90625 147.457031 678.433594 147.734375 681.679688 150.980469 C 684.929688 154.226562 684.335938 156.890625 681.089844 160.175781 C 681.0625 160.1875 679.832031 164.367188 675.503906 168.476562 C 673.433594 170.441406 672.445312 174.296875 669.761719 176.757812 C 667.476562 178.847656 663.144531 179 660.570312 181.257812 C 658.15625 183.378906 656.183594 186.148438 653.636719 188.269531 C 651.097656 190.382812 647.332031 190.921875 644.78125 192.890625 C 642.085938 194.976562 639.613281 197.027344 637.042969 198.785156 C 634.453125 200.5625 632.828125 203.824219 630.277344 205.683594 C 627.679688 207.578125 625.972656 210.597656 623.527344 212.464844 C 620.890625 214.480469 616.59375 214.15625 614.265625 216.003906 C 611.503906 218.191406 611.304688 223.054688 609.1875 224.792969 C 604.71875 228.460938 601.894531 228.140625 601.878906 228.15625 C 601.621094 227.859375 600.105469 228.664062 600.105469 228.664062 Z M 602.976562 496.335938 C 598.382812 495.8125 593.25 492.246094 593.808594 487.652344 C 594.332031 483.0625 600.125 480.996094 604.714844 481.519531 C 604.761719 481.527344 608.484375 481.929688 614.308594 482.707031 C 617.089844 483.078125 620.421875 482.976562 623.980469 483.476562 C 626.996094 483.898438 630.46875 482.730469 633.8125 483.226562 C 636.9375 483.691406 640.023438 485.101562 643.257812 485.613281 C 646.464844 486.121094 649.382812 488.402344 652.527344 488.945312 C 655.820312 489.511719 659.316406 488.464844 662.347656 489.054688 C 665.789062 489.722656 668.964844 490.570312 671.796875 491.238281 C 675.742188 492.171875 678.910156 493.242188 681.023438 494.125 C 683.621094 495.203125 687.492188 494.183594 691.066406 495.148438 C 694.183594 495.992188 697.167969 497.863281 700.417969 498.570312 C 703.875 499.324219 706.863281 501.898438 709.808594 502.445312 C 715.5 503.503906 719.582031 504.53125 719.613281 504.53125 C 724.203125 505.203125 725.289062 507.683594 724.617188 512.238281 C 723.945312 516.789062 722.015625 520.101562 717.460938 519.429688 C 717.421875 519.417969 713.539062 520.976562 708.40625 520.03125 C 705.851562 519.5625 703.421875 516.257812 700.289062 515.605469 C 697.511719 515.027344 694.429688 515.179688 691.527344 514.480469 C 688.617188 513.78125 686.277344 511.15625 683.5625 510.359375 C 680.488281 509.453125 677.765625 508.742188 675.371094 507.742188 C 673.503906 506.96875 669.769531 507.71875 665.933594 506.859375 C 663.28125 506.269531 660 507.035156 656.746094 506.433594 C 653.894531 505.90625 651.371094 502.527344 648.265625 502.011719 C 645.308594 501.519531 641.707031 504.644531 638.683594 504.179688 C 635.644531 503.714844 633.167969 499.542969 630.226562 499.117188 C 627.082031 498.660156 624.011719 498.339844 621.171875 497.949219 C 617.824219 497.484375 614.660156 497.742188 612.039062 497.394531 C 606.558594 496.671875 604.542969 497.234375 604.507812 497.226562 C 604.535156 496.832031 602.976562 496.335938 602.976562 496.335938 Z M 403.21875 621.082031 C 403.03125 616.488281 405.757812 610.835938 410.347656 610.648438 C 414.941406 610.460938 417.914062 615.816406 418.101562 620.40625 C 418.101562 620.457031 418.308594 624.410156 418.550781 630.484375 C 418.667969 633.421875 419.351562 636.828125 419.507812 640.550781 C 419.636719 643.738281 421.429688 647.074219 421.578125 650.566406 C 421.71875 653.886719 420.9375 657.324219 421.089844 660.695312 C 421.242188 664.125 419.625 667.609375 419.78125 670.867188 C 419.953125 674.453125 421.773438 677.78125 421.941406 680.867188 C 422.15625 684.898438 422.1875 688.375 422.371094 690.945312 C 422.59375 694.0625 422.570312 697.632812 422.636719 701.339844 C 422.699219 704.769531 424.847656 708.332031 424.828125 711.753906 C 424.800781 715.480469 423.605469 719.058594 423.535156 722.160156 C 423.394531 728.25 421.273438 732.464844 421.273438 732.496094 C 421.125 737.085938 418.382812 739.285156 413.792969 739.136719 C 409.160156 738.988281 407.8125 736.671875 407.960938 732.082031 C 407.960938 732.050781 406.046875 727.882812 406.179688 722.039062 C 406.25 719.0625 404.167969 715.621094 404.191406 712.046875 C 404.214844 708.761719 406.992188 705.351562 406.929688 702.058594 C 406.863281 698.503906 405.925781 695.09375 405.710938 692.105469 C 405.546875 689.820312 407.292969 686.179688 407.070312 681.871094 C 406.914062 678.820312 406.558594 675.398438 406.386719 671.75 C 406.234375 668.496094 404.363281 665.15625 404.210938 661.691406 C 404.058594 658.3125 402.515625 654.949219 402.371094 651.601562 C 402.222656 648.097656 404.972656 644.550781 404.839844 641.335938 C 404.683594 637.597656 400.890625 634.296875 400.769531 631.339844 C 400.519531 625.230469 402.582031 622.832031 402.582031 622.792969 C 402.976562 622.757812 403.21875 621.082031 403.21875 621.082031 Z M 149.277344 518.714844 C 153.570312 517.074219 159.757812 517.828125 161.4375 522.121094 C 163.082031 526.414062 158.949219 530.953125 154.65625 532.59375 C 154.625 532.613281 150.984375 534.082031 145.292969 536.183594 C 142.550781 537.191406 139.539062 538.875 136.042969 540.125 C 133.058594 541.191406 130.402344 543.875 127.105469 545.007812 C 123.984375 546.078125 120.46875 546.28125 117.269531 547.328125 C 114.035156 548.382812 110.285156 547.707031 107.164062 548.652344 C 103.777344 549.675781 100.980469 552.1875 97.964844 552.972656 C 94.238281 553.945312 90.84375 554.519531 88.109375 554.9375 C 85.046875 555.414062 81.914062 555.839844 78.882812 556.464844 C 75.730469 557.117188 73.152344 559.898438 70.265625 560.601562 C 66.929688 561.417969 63.609375 561.121094 60.976562 561.84375 C 55.570312 563.332031 51.472656 562.589844 51.441406 562.589844 C 47.109375 564.046875 44.085938 562.203125 42.667969 557.875 C 41.210938 553.507812 42.941406 551.425781 47.269531 549.972656 C 47.304688 549.972656 50.441406 546.777344 56.242188 545.167969 C 59.078125 544.378906 61.871094 541.421875 65.449219 540.542969 C 68.558594 539.777344 72.503906 541.726562 75.882812 541.027344 C 79.160156 540.347656 82.328125 538.933594 85.605469 538.433594 C 88.152344 538.039062 91.832031 539.203125 95.402344 538.257812 C 98.246094 537.503906 101.351562 536.40625 104.566406 535.425781 C 107.519531 534.519531 110.078125 531.902344 113.144531 530.890625 C 116.175781 529.894531 118.757812 527.546875 121.71875 526.523438 C 124.839844 525.445312 128.835938 527.105469 131.667969 526.089844 C 134.980469 524.902344 136.769531 520.359375 139.367188 519.398438 C 144.765625 517.402344 147.417969 518.679688 147.449219 518.65625 C 147.605469 519.019531 149.277344 518.714844 149.277344 518.714844 Z M 129.269531 245.496094 C 133.152344 247.996094 136.1875 253.4375 133.722656 257.320312 C 131.222656 261.203125 125.109375 260.542969 121.226562 258.042969 C 121.203125 258.03125 117.902344 256.027344 112.859375 252.953125 C 110.429688 251.472656 107.300781 250.21875 104.203125 248.367188 C 101.546875 246.785156 97.875 246.527344 94.945312 244.824219 C 92.167969 243.203125 89.785156 240.761719 86.933594 239.15625 C 84.039062 237.527344 82 234.371094 79.214844 232.878906 C 76.15625 231.242188 72.449219 231.1875 69.75 229.875 C 66.859375 228.476562 64.042969 226.792969 61.207031 225.207031 C 58.335938 223.601562 55.601562 221.800781 52.90625 220.136719 C 50.015625 218.355469 46.078125 218.355469 43.535156 216.65625 C 40.535156 214.65625 38.433594 211.808594 36.140625 210.171875 C 31.328125 206.738281 29.519531 202.84375 29.503906 202.828125 C 25.882812 199.992188 25.777344 196.464844 28.613281 192.882812 C 31.449219 189.261719 34.125 189.558594 37.746094 192.394531 C 37.761719 192.410156 41.8125 192.9375 46.269531 196.117188 C 48.390625 197.628906 52.089844 197.597656 54.867188 199.453125 C 57.21875 201.019531 58.242188 205 60.914062 206.652344 C 63.40625 208.191406 66.441406 209.042969 69.097656 210.527344 C 71.722656 211.992188 73.546875 215.160156 76.222656 216.457031 C 79.023438 217.8125 82.082031 219.171875 85.238281 220.859375 C 88.125 222.398438 91.917969 222.527344 94.90625 224.207031 C 97.855469 225.867188 101.511719 226.355469 104.386719 228.027344 C 107.414062 229.789062 108.878906 234.019531 111.625 235.660156 C 114.828125 237.574219 119.660156 236.226562 122.171875 237.757812 C 127.390625 240.941406 129.246094 245.484375 129.269531 245.496094 Z M 147.558594 291.570312 C 148.953125 289.027344 148.375 284.988281 150.167969 282.128906 C 151.753906 279.601562 155.796875 278.460938 157.65625 275.742188 C 159.371094 273.234375 161.125 270.652344 163.035156 268.027344 C 164.84375 265.546875 166.28125 262.710938 168.238281 260.160156 C 170.121094 257.707031 170.777344 254.199219 172.773438 251.714844 C 174.726562 249.285156 177.457031 247.429688 179.492188 245 C 181.507812 242.601562 184.898438 241.371094 186.976562 239 C 189.054688 236.628906 189.914062 233.191406 192.035156 230.875 C 194.148438 228.566406 196.410156 226.402344 198.554688 224.164062 C 200.734375 221.890625 203.03125 219.773438 205.21875 217.601562 C 207.46875 215.371094 208.253906 211.644531 210.492188 209.550781 C 212.824219 207.371094 215.941406 206.082031 218.238281 204.089844 C 220.667969 201.976562 224.308594 201.476562 226.667969 199.609375 C 229.226562 197.582031 231.90625 196.082031 234.34375 194.398438 C 237.082031 192.503906 240.003906 191.644531 242.539062 190.25 C 245.523438 188.609375 247.503906 185.304688 250.515625 183.953125 C 253.609375 182.570312 255.976562 179.320312 259.097656 178.199219 C 262.273438 177.058594 266.351562 178.6875 269.554688 177.78125 C 272.789062 176.863281 275.8125 175.273438 279.074219 174.554688 C 282.347656 173.828125 285.96875 175.113281 289.265625 174.542969 C 292.5625 173.96875 295.78125 173.285156 299.101562 172.820312 C 302.414062 172.359375 305.496094 170.238281 308.828125 169.839844 C 312.148438 169.445312 315.316406 167.683594 318.652344 167.304688 C 321.871094 166.941406 325.441406 169.449219 328.675781 169.058594 C 331.894531 168.671875 334.644531 164.640625 337.871094 164.1875 C 341.082031 163.738281 344.871094 166.960938 348.078125 166.410156 C 351.277344 165.863281 354.515625 165.128906 357.699219 164.441406 C 357.867188 164.40625 357.722656 163.746094 357.890625 163.707031 C 361.160156 163.007812 364.433594 163.09375 367.511719 162.523438 C 370.796875 161.914062 373.382812 157.769531 376.480469 157.308594 C 379.78125 156.8125 383.15625 157.21875 386.273438 156.886719 C 389.582031 156.535156 393.050781 159.738281 396.191406 159.566406 C 399.496094 159.386719 402.589844 158.421875 405.753906 158.4375 C 409.035156 158.453125 412.214844 157.859375 415.402344 158.078125 C 418.644531 158.300781 421.609375 160.101562 424.808594 160.53125 C 427.976562 160.953125 430.960938 161.621094 434.113281 162.238281 C 437.222656 162.84375 440.597656 161.992188 443.738281 162.785156 C 446.785156 163.550781 450.652344 161.636719 453.78125 162.574219 C 456.769531 163.46875 459.335938 166.078125 462.445312 167.125 C 465.394531 168.117188 468.144531 169.933594 471.238281 171.058594 C 474.15625 172.121094 477.546875 172.1875 480.625 173.367188 C 483.527344 174.476562 487 174.464844 490.070312 175.675781 C 490.488281 175.847656 489.222656 178.851562 489.636719 179.035156 C 492.582031 180.320312 494.910156 182.582031 497.636719 183.882812 C 500.539062 185.265625 504.585938 184.070312 507.257812 185.484375 C 510.097656 186.984375 512.261719 189.488281 514.863281 191.03125 C 517.625 192.664062 519.867188 194.839844 522.378906 196.53125 C 525.03125 198.316406 528.871094 198.308594 531.273438 200.171875 C 533.785156 202.121094 536.519531 203.84375 538.792969 205.894531 C 541.136719 208.003906 543.828125 209.886719 545.953125 212.128906 C 548.101562 214.394531 549.238281 217.671875 551.203125 220.089844 C 553.132812 222.464844 555.867188 224.34375 557.628906 226.863281 C 559.371094 229.347656 559.488281 232.988281 561.105469 235.632812 C 562.679688 238.203125 562.746094 241.640625 564.238281 244.382812 C 565.667969 247.019531 568.859375 248.777344 570.242188 251.585938 C 571.566406 254.269531 571.71875 257.570312 573.023438 260.425781 C 574.265625 263.144531 576.78125 265.367188 578.027344 268.253906 C 579.214844 270.996094 578.894531 274.449219 580.101562 277.355469 C 581.253906 280.113281 582.710938 282.8125 583.898438 285.726562 C 585.160156 288.835938 587.199219 291.632812 588.398438 294.765625 C 589.597656 297.902344 588.746094 301.753906 589.851562 304.917969 C 590.960938 308.089844 595.898438 309.996094 596.882812 313.199219 C 597.871094 316.414062 596.570312 320.300781 597.402344 323.546875 C 598.238281 326.804688 599.800781 329.890625 600.449219 333.179688 C 601.109375 336.574219 602.144531 339.953125 602.570312 343.382812 C 602.992188 346.804688 601.515625 350.398438 601.667969 353.855469 C 601.824219 357.292969 601.835938 360.667969 601.695312 364.140625 C 601.550781 367.5625 603.113281 371.171875 602.648438 374.628906 C 602.195312 378.007812 602.1875 381.636719 601.394531 385.050781 C 600.351562 389.679688 595.929688 393.855469 594.847656 398.296875 C 593.976562 401.882812 594.953125 405.566406 594.21875 408.78125 C 593.460938 412.09375 592.949219 415.390625 592.300781 418.929688 C 591.726562 422.046875 592.320312 425.519531 591.800781 429.277344 C 591.371094 432.367188 588.171875 435.40625 587.765625 439.199219 C 587.375 442.863281 588.503906 446.464844 587.996094 449.683594 C 587.421875 453.316406 585.6875 456.460938 584.933594 459.644531 C 584.09375 463.175781 583.125 466.375 582.019531 469.519531 C 580.855469 472.84375 582.328125 477.257812 580.816406 480.355469 C 579.3125 483.402344 577.398438 486.453125 575.554688 489.390625 C 573.804688 492.175781 568.359375 492.558594 566.246094 495.433594 C 564.332031 498.046875 563.207031 501.367188 560.957031 504.195312 C 558.949219 506.714844 558.109375 510.40625 555.800781 513.203125 C 555.546875 513.507812 556.425781 514.257812 556.167969 514.5625 C 553.941406 517.203125 551.953125 519.972656 549.78125 522.472656 C 547.519531 525.082031 544.332031 526.808594 542.105469 529.261719 C 539.789062 531.8125 536.316406 533.1875 534.003906 535.574219 C 531.613281 538.039062 531.171875 542.4375 528.742188 544.722656 C 526.253906 547.066406 521.105469 546.363281 518.542969 548.519531 C 515.941406 550.703125 513.964844 553.496094 511.242188 555.488281 C 508.820312 557.277344 505.679688 557.832031 503.136719 559.460938 C 500.613281 561.074219 500.230469 566.316406 497.566406 567.773438 C 494.953125 569.199219 490.527344 567.105469 487.753906 568.378906 C 485.058594 569.613281 483.277344 573.035156 480.40625 574.125 C 477.648438 575.171875 474.238281 574.464844 471.296875 575.375 C 468.484375 576.246094 466.320312 579.734375 463.320312 580.480469 C 460.46875 581.191406 457.554688 582.417969 454.519531 583.015625 C 454.109375 583.089844 453.089844 579.070312 452.675781 579.105469 C 449.824219 579.460938 447.269531 583.972656 444.160156 584.277344 C 441.238281 584.5625 438.085938 583.558594 435.027344 583.808594 C 432.054688 584.046875 428.976562 583.550781 425.960938 583.761719 C 422.945312 583.972656 419.964844 584.777344 416.988281 584.964844 C 413.925781 585.160156 410.777344 583.238281 407.839844 583.414062 C 402.578125 583.75 402.601562 584.074219 397.335938 584.394531 C 394.0625 584.5625 390.964844 586.507812 387.871094 586.574219 C 384.597656 586.644531 381.410156 585.015625 378.316406 584.980469 C 375.046875 584.941406 371.804688 586.738281 368.707031 586.585938 C 365.449219 586.429688 362.273438 585.746094 359.179688 585.46875 C 355.941406 585.179688 352.820312 584.320312 349.730469 583.914062 C 346.519531 583.496094 343.027344 585.011719 339.941406 584.480469 C 336.769531 583.929688 333.792969 582.265625 330.707031 581.609375 C 327.582031 580.941406 325.125 577.503906 322.046875 576.742188 C 318.964844 575.972656 316.089844 574.636719 313.011719 573.785156 C 309.96875 572.941406 306.386719 573.996094 303.3125 573.082031 C 300.300781 572.1875 297.039062 571.996094 293.957031 571.042969 C 290.96875 570.121094 288.335938 567.878906 285.246094 566.914062 C 281.789062 565.832031 278.332031 564.476562 274.710938 563.355469 C 271.253906 562.289062 267.003906 563.546875 263.367188 562.464844 C 259.902344 561.429688 256.324219 560.566406 252.667969 559.535156 C 252.445312 559.472656 253.507812 555.773438 253.289062 555.707031 C 250.183594 554.78125 246.554688 556.066406 243.703125 555.050781 C 240.652344 553.96875 237.980469 552.269531 235.195312 551.082031 C 232.226562 549.816406 228.597656 550.128906 225.902344 548.738281 C 223.042969 547.265625 219.921875 546.171875 217.339844 544.554688 C 214.632812 542.859375 212.808594 539.832031 210.359375 537.972656 C 207.84375 536.058594 204.78125 534.730469 202.496094 532.632812 C 200.1875 530.519531 197.5 528.59375 195.382812 526.28125 C 193.328125 524.035156 192.9375 520.292969 191.042969 517.878906 C 189.179688 515.503906 186.835938 513.4375 185.085938 510.890625 C 183.386719 508.421875 183.917969 504.488281 182.285156 501.84375 C 180.710938 499.304688 175.335938 498.949219 173.789062 496.242188 C 172.3125 493.652344 170.808594 490.941406 169.324219 488.191406 C 167.90625 485.574219 168.128906 481.980469 166.675781 479.210938 C 165.296875 476.574219 163.601562 474.011719 162.164062 471.230469 C 160.574219 468.160156 159.324219 464.902344 157.855469 461.777344 C 156.386719 458.648438 154.023438 455.882812 152.675781 452.707031 C 151.324219 449.523438 149.300781 446.539062 148.078125 443.3125 C 146.851562 440.082031 147.863281 436.007812 146.765625 432.734375 C 145.671875 429.460938 143.667969 426.449219 142.703125 423.132812 C 141.734375 419.820312 142.066406 416.140625 141.230469 412.789062 C 140.402344 409.496094 138.917969 406.34375 138.222656 403.011719 C 137.527344 399.6875 136.714844 396.359375 136.152344 393 C 135.589844 389.652344 134.414062 386.351562 133.984375 382.972656 C 133.554688 379.605469 133.96875 376.105469 133.675781 372.710938 C 133.382812 369.328125 131.445312 365.996094 131.285156 362.59375 C 131.128906 359.203125 133.1875 355.699219 133.167969 352.292969 C 133.144531 348.734375 131.253906 345.171875 131.453125 341.8125 C 131.664062 338.292969 134.6875 335.078125 135.148438 331.714844 C 135.621094 328.261719 133.4375 324.3125 134.183594 320.953125 C 134.925781 317.605469 138.539062 314.957031 139.550781 311.65625 C 140.542969 308.417969 140.40625 304.75 141.667969 301.484375 C 142.875 298.359375 144.671875 295.375 146.136719 292.160156 C 146.285156 291.785156 146.542969 293.730469 146.765625 293.394531 C 147.160156 293.414062 147.558594 291.570312 147.558594 291.570312 Z M 203.898438 241.726562 C 201.601562 244.234375 201.246094 248.472656 199.011719 251.039062 C 196.761719 253.617188 192.460938 254.425781 190.300781 257.027344 C 188.097656 259.675781 185.976562 262.382812 183.898438 265.015625 C 181.742188 267.742188 180.082031 270.796875 178.089844 273.457031 C 175.984375 276.273438 175.324219 279.992188 173.441406 282.679688 C 171.390625 285.609375 168.730469 287.898438 166.996094 290.609375 C 165.011719 293.710938 161.679688 295.820312 160.183594 298.539062 C 158.886719 301.40625 159.1875 304.917969 158.117188 307.664062 C 156.984375 310.578125 155.816406 313.367188 154.933594 316.207031 C 154.015625 319.15625 153.082031 322.042969 152.433594 324.984375 C 151.785156 327.941406 153.375 331.222656 152.960938 334.269531 C 152.558594 337.230469 151.148438 340.027344 150.964844 343.140625 C 150.792969 346.089844 148.773438 349.078125 148.796875 352.226562 C 148.816406 355.410156 148.503906 358.648438 148.652344 361.820312 C 148.796875 364.996094 148.191406 368.300781 148.46875 371.464844 C 148.742188 374.632812 151.164062 377.621094 151.566406 380.769531 C 151.96875 383.925781 154.546875 386.722656 155.074219 389.855469 C 155.601562 392.988281 153.449219 396.609375 154.097656 399.722656 C 154.75 402.832031 156.257812 405.765625 157.03125 408.851562 C 157.820312 411.992188 156.800781 415.667969 157.714844 418.777344 C 158.625 421.886719 159.800781 424.992188 160.832031 428.0625 C 161.863281 431.132812 164.582031 433.640625 165.730469 436.671875 C 166.878906 439.699219 169.371094 442.167969 170.636719 445.152344 C 171.898438 448.132812 170.574219 452.277344 171.949219 455.210938 C 173.324219 458.144531 178.027344 459.429688 179.511719 462.3125 C 181.078125 465.34375 179.265625 470.019531 180.761719 472.871094 C 182.351562 475.894531 184.019531 478.785156 185.558594 481.609375 C 187.195312 484.609375 189.421875 487.195312 191.046875 489.972656 C 192.769531 492.917969 193.914062 496.171875 195.667969 498.867188 C 197.523438 501.71875 202.398438 502.316406 204.347656 504.894531 C 206.386719 507.589844 207.753906 510.550781 209.957031 512.953125 C 212.082031 515.273438 211.925781 519.996094 214.308594 522.09375 C 216.632812 524.144531 219.804688 525.519531 222.4375 527.367188 C 224.945312 529.128906 228.070312 530.253906 230.910156 531.835938 C 233.566406 533.316406 235.824219 536.109375 238.8125 537.445312 C 241.578125 538.679688 244.585938 540.078125 247.671875 541.199219 C 250.519531 542.226562 254.089844 541.746094 257.238281 542.679688 C 257.3125 542.703125 258.105469 539.925781 258.179688 539.949219 C 260.960938 540.738281 263.207031 543.164062 265.84375 543.941406 C 268.613281 544.757812 271.078125 546.332031 273.710938 547.132812 C 276.46875 547.96875 279.488281 547.714844 282.121094 548.527344 C 284.867188 549.375 287.933594 548.992188 290.574219 549.808594 C 293.777344 550.808594 295.957031 554.882812 299.046875 555.835938 C 302.242188 556.820312 305.09375 558.828125 308.210938 559.746094 C 311.398438 560.6875 315.363281 558.824219 318.515625 559.679688 C 321.703125 560.546875 324.605469 562.460938 327.804688 563.226562 C 330.992188 563.988281 334.097656 565.328125 337.351562 565.972656 C 340.542969 566.605469 344.171875 564.957031 347.472656 565.464844 C 350.667969 565.957031 353.921875 565.945312 357.261719 566.300781 C 360.460938 566.644531 363.699219 566.382812 367.070312 566.59375 C 370.269531 566.792969 373.441406 568.230469 376.828125 568.300781 C 380.027344 568.363281 383.269531 567.3125 386.660156 567.25 C 389.855469 567.195312 393.1875 568.972656 396.578125 568.796875 C 399.75 568.535156 403.828125 569.777344 406.964844 569.777344 C 409.828125 569.601562 412.710938 567.394531 415.695312 567.203125 C 418.609375 567.019531 421.644531 568.09375 424.582031 567.890625 C 427.542969 567.683594 430.390625 566.074219 433.28125 565.84375 C 436.289062 565.601562 439.386719 566.984375 442.21875 566.710938 C 445.292969 566.414062 448.226562 565.773438 450.972656 565.433594 C 450.988281 565.429688 450.890625 564.578125 450.910156 564.574219 C 454.054688 563.957031 457.621094 565.332031 460.542969 564.582031 C 463.640625 563.785156 465.480469 558.984375 468.351562 558.039062 C 471.378906 557.039062 475.042969 558.136719 477.847656 556.972656 C 480.773438 555.757812 483.238281 553.691406 485.953125 552.296875 C 488.753906 550.863281 491.167969 548.933594 493.78125 547.3125 C 496.433594 545.664062 499.996094 545.394531 502.496094 543.558594 C 505.027344 541.699219 507.546875 539.703125 509.980469 537.644531 C 512.363281 535.628906 513.464844 532.132812 515.789062 529.929688 C 518.046875 527.789062 519.796875 525.152344 522.03125 522.839844 C 524.1875 520.613281 528.730469 520.539062 530.898438 518.148438 C 532.976562 515.855469 533.710938 512.265625 535.824219 509.824219 C 537.851562 507.488281 539.753906 504.96875 541.835938 502.496094 C 542.039062 502.25 541.117188 501.507812 541.316406 501.257812 C 543.410156 498.730469 547.546875 498.113281 549.367188 495.847656 C 551.425781 493.285156 552.074219 489.878906 553.808594 487.554688 C 555.769531 484.925781 558.441406 483.027344 560.015625 480.570312 C 561.75 477.859375 563.34375 475.140625 564.65625 472.457031 C 565.949219 469.828125 564.214844 466.015625 565.203125 463.117188 C 566.121094 460.433594 567.019531 457.851562 567.722656 454.773438 C 568.34375 452.050781 573.089844 449.933594 573.574219 446.789062 C 574 444.03125 573.253906 440.863281 573.597656 437.703125 C 573.933594 434.574219 572.601562 431.515625 572.949219 428.855469 C 573.355469 425.734375 572.621094 422.6875 573.054688 420.03125 C 573.550781 416.984375 573.808594 414.054688 574.359375 411.339844 C 574.941406 408.460938 576.789062 405.910156 577.453125 403.058594 C 578.089844 400.355469 580.316406 397.957031 581.046875 394.964844 C 581.980469 391.269531 580.246094 386.519531 581.625 380.511719 C 582.308594 377.558594 586.726562 375.320312 587.109375 372.386719 C 587.5 369.398438 586.789062 366.203125 586.898438 363.230469 C 587.011719 360.234375 588.3125 357.09375 588.167969 354.113281 C 588.023438 351.125 583.457031 348.511719 583.082031 345.539062 C 582.710938 342.582031 586.046875 339.023438 585.476562 336.078125 C 584.875 333.011719 581.757812 330.457031 580.96875 327.398438 C 580.1875 324.375 581.035156 320.855469 580.101562 317.839844 C 579.175781 314.851562 575.550781 312.75 574.503906 309.773438 C 573.464844 306.824219 571.859375 304.121094 570.726562 301.179688 C 569.605469 298.257812 572.265625 293.824219 571.074219 290.910156 C 569.808594 287.792969 564.679688 286.378906 563.460938 283.453125 C 562.164062 280.34375 562.074219 276.867188 560.808594 273.964844 C 559.464844 270.875 558.800781 267.617188 557.464844 264.746094 C 556.042969 261.695312 554.085938 259.046875 552.640625 256.226562 C 551.113281 253.238281 551.410156 249.355469 549.816406 246.605469 C 548.140625 243.71875 546.117188 241.054688 544.324219 238.40625 C 542.46875 235.667969 539.066406 234.136719 537.03125 231.628906 C 535.03125 229.167969 534.152344 225.710938 531.90625 223.417969 C 529.710938 221.175781 526.113281 220.410156 523.636719 218.300781 C 521.273438 216.292969 519.117188 214.019531 516.453125 212.105469 C 513.949219 210.308594 511.617188 208.136719 508.808594 206.410156 C 506.195312 204.796875 502.484375 205 499.574219 203.433594 C 496.871094 201.972656 494.589844 199.621094 491.609375 198.1875 C 488.839844 196.855469 487.105469 192.988281 484.074219 191.667969 C 483.960938 191.617188 484.125 191.066406 484.011719 191.019531 C 481.125 189.882812 477.578125 190.652344 474.855469 189.609375 C 471.960938 188.5 468.882812 188.164062 466.148438 187.160156 C 463.234375 186.097656 460.855469 183.816406 458.097656 182.875 C 455.164062 181.878906 452.367188 180.691406 449.570312 179.84375 C 446.621094 178.945312 443.085938 180.476562 440.246094 179.742188 C 437.277344 178.976562 434.398438 178.488281 431.503906 177.90625 C 428.527344 177.308594 426.1875 172.996094 423.234375 172.601562 C 419.832031 172.148438 416.097656 174.152344 412.605469 173.964844 C 409.222656 173.785156 405.769531 173.121094 402.230469 173.195312 C 398.878906 173.265625 395.5625 175.277344 392.003906 175.582031 C 388.679688 175.867188 385.402344 176.835938 381.847656 177.332031 C 378.554688 177.785156 374.964844 176.894531 371.425781 177.53125 C 368.152344 178.121094 364.976562 179.714844 361.460938 180.460938 C 361.308594 180.496094 361.433594 181.039062 361.285156 181.070312 C 357.953125 181.792969 354.179688 180.359375 350.847656 180.933594 C 347.492188 181.511719 344.242188 182.6875 340.890625 183.15625 C 337.523438 183.628906 333.839844 181.488281 330.480469 181.894531 C 327.105469 182.304688 324.253906 187.109375 320.890625 187.496094 C 317.828125 187.839844 314.78125 188.1875 311.734375 188.550781 C 308.671875 188.914062 305.402344 187.433594 302.363281 187.851562 C 299.304688 188.269531 296.332031 189.046875 293.304688 189.558594 C 290.265625 190.070312 287.207031 190.316406 284.203125 190.957031 C 281.191406 191.601562 278.496094 193.308594 275.53125 194.117188 C 272.566406 194.929688 269.976562 196.527344 267.066406 197.542969 C 264.175781 198.550781 260.542969 197.480469 257.710938 198.726562 C 254.917969 199.957031 252.640625 202.199219 249.917969 203.699219 C 247.265625 205.160156 243.796875 205.878906 240.855469 207.992188 C 238.308594 209.828125 236.121094 212.46875 233.414062 214.710938 C 230.949219 216.757812 228.566406 219.074219 226.011719 221.402344 C 223.617188 223.589844 221.679688 226.363281 219.242188 228.75 C 216.898438 231.042969 214.007812 232.847656 211.660156 235.285156 C 209.367188 237.667969 207.976562 241.582031 205.710938 244.058594 C 205.382812 244.28125 203.898438 241.726562 203.898438 241.726562 Z M 203.898438 241.726562 " fill-opacity="1" fill-rule="nonzero"/></svg>